<svg width="999" height="800" viewBox="0 0 999 800" fill="none" xmlns="http://www.w3.org/2000/svg">
<g clip-path="url(#clip0_103_3)">
<g filter="url(#filter0_d_103_3)">
<path d="M-20.1044 232C-20.1044 201.83 -20.1044 186.745 -10.7318 177.373C-1.3592 168 13.7257 168 43.8956 168H95.8956C126.066 168 141.15 168 150.523 177.373C159.896 186.745 159.896 201.83 159.896 232V284C159.896 314.17 159.896 329.255 150.523 338.627C141.15 348 126.066 348 95.8956 348H43.8956C13.7257 348 -1.3592 348 -10.7318 338.627C-20.1044 329.255 -20.1044 314.17 -20.1044 284V232Z" fill="white"/>
<path d="M-10.7318 338.627L-11.4389 339.335L-10.7318 338.627ZM150.523 338.627L149.816 337.92L150.523 338.627ZM150.523 177.373L151.23 176.665L150.523 177.373ZM43.8956 169H95.8956V167H43.8956V169ZM158.896 232V284H160.896V232H158.896ZM95.8956 347H43.8956V349H95.8956V347ZM-19.1044 284V232H-21.1044V284H-19.1044ZM43.8956 347C28.7824 347 17.5481 346.998 8.91618 345.837C0.313023 344.681 -5.55516 342.39 -10.0247 337.92L-11.4389 339.335C-6.53583 344.238 -0.175251 346.633 8.64968 347.82C17.4459 349.002 28.839 349 43.8956 349V347ZM-21.1044 284C-21.1044 299.057 -21.1065 310.45 -19.9239 319.246C-18.7374 328.071 -16.342 334.431 -11.4389 339.335L-10.0247 337.92C-14.4942 333.451 -16.7851 327.583 -17.9417 318.979C-19.1022 310.348 -19.1044 299.113 -19.1044 284H-21.1044ZM158.896 284C158.896 299.113 158.894 310.348 157.733 318.979C156.576 327.583 154.285 333.451 149.816 337.92L151.23 339.335C156.133 334.431 158.529 328.071 159.715 319.246C160.898 310.45 160.896 299.057 160.896 284H158.896ZM95.8956 349C110.952 349 122.345 349.002 131.142 347.82C139.967 346.633 146.327 344.238 151.23 339.335L149.816 337.92C145.346 342.39 139.478 344.681 130.875 345.837C122.243 346.998 111.009 347 95.8956 347V349ZM95.8956 169C111.009 169 122.243 169.002 130.875 170.163C139.478 171.319 145.346 173.61 149.816 178.08L151.23 176.665C146.327 171.762 139.967 169.367 131.142 168.18C122.345 166.998 110.952 167 95.8956 167V169ZM160.896 232C160.896 216.943 160.898 205.55 159.715 196.754C158.529 187.929 156.133 181.569 151.23 176.665L149.816 178.08C154.285 182.549 156.576 188.417 157.733 197.021C158.894 205.652 158.896 216.887 158.896 232H160.896ZM43.8956 167C28.839 167 17.4459 166.998 8.64968 168.18C-0.175249 169.367 -6.53583 171.762 -11.4389 176.665L-10.0247 178.08C-5.55516 173.61 0.313023 171.319 8.91618 170.163C17.5481 169.002 28.7824 169 43.8956 169V167ZM-19.1044 232C-19.1044 216.887 -19.1022 205.652 -17.9417 197.021C-16.7851 188.417 -14.4942 182.549 -10.0247 178.08L-11.4389 176.665C-16.342 181.569 -18.7374 187.929 -19.9239 196.754C-21.1065 205.55 -21.1044 216.943 -21.1044 232H-19.1044Z" fill="#D9D9D9"/>
</g>
<path d="M53.3334 308C62.5334 308 70 300.533 70 291.333V274.667H53.3334C44.1334 274.667 36.6667 282.133 36.6667 291.333C36.6667 300.533 44.1334 308 53.3334 308Z" fill="#0ACF83"/>
<path d="M36.6667 258C36.6667 248.8 44.1334 241.333 53.3334 241.333H70V274.667H53.3334C44.1334 274.667 36.6667 267.2 36.6667 258Z" fill="#A259FF"/>
<path d="M36.6667 224.667C36.6667 215.467 44.1334 208 53.3334 208H70V241.333H53.3334C44.1334 241.333 36.6667 233.867 36.6667 224.667Z" fill="#F24E1E"/>
<path d="M70 208H86.6667C95.8667 208 103.333 215.467 103.333 224.667C103.333 233.867 95.8667 241.333 86.6667 241.333H70V208Z" fill="#FF7262"/>
<path d="M103.333 258C103.333 267.2 95.8667 274.667 86.6667 274.667C77.4667 274.667 70 267.2 70 258C70 248.8 77.4667 241.333 86.6667 241.333C95.8667 241.333 103.333 248.8 103.333 258Z" fill="#1ABCFE"/>
<g filter="url(#filter1_d_103_3)">
<path d="M491.448 169.406C491.448 139.236 491.448 124.151 500.82 114.778C510.193 105.406 525.278 105.406 555.448 105.406H607.448C637.618 105.406 652.703 105.406 662.075 114.778C671.448 124.151 671.448 139.236 671.448 169.406V221.406C671.448 251.576 671.448 266.661 662.075 276.033C652.703 285.406 637.618 285.406 607.448 285.406H555.448C525.278 285.406 510.193 285.406 500.82 276.033C491.448 266.661 491.448 251.576 491.448 221.406V169.406Z" fill="white"/>
<path d="M500.82 276.033L500.113 276.74L500.82 276.033ZM662.075 276.033L661.368 275.326L662.075 276.033ZM662.075 114.778L662.782 114.071L662.075 114.778ZM555.448 106.406H607.448V104.406H555.448V106.406ZM670.448 169.406V221.406H672.448V169.406H670.448ZM607.448 284.406H555.448V286.406H607.448V284.406ZM492.448 221.406V169.406H490.448V221.406H492.448ZM555.448 284.406C540.335 284.406 529.1 284.404 520.468 283.243C511.865 282.086 505.997 279.796 501.528 275.326L500.113 276.74C505.016 281.643 511.377 284.039 520.202 285.225C528.998 286.408 540.391 286.406 555.448 286.406V284.406ZM490.448 221.406C490.448 236.462 490.446 247.856 491.628 256.652C492.815 265.477 495.21 271.837 500.113 276.74L501.528 275.326C497.058 270.857 494.767 264.988 493.611 256.385C492.45 247.753 492.448 236.519 492.448 221.406H490.448ZM670.448 221.406C670.448 236.519 670.446 247.753 669.285 256.385C668.129 264.988 665.838 270.857 661.368 275.326L662.782 276.74C667.685 271.837 670.081 265.477 671.267 256.652C672.45 247.856 672.448 236.462 672.448 221.406H670.448ZM607.448 286.406C622.505 286.406 633.898 286.408 642.694 285.225C651.519 284.039 657.879 281.643 662.782 276.74L661.368 275.326C656.899 279.796 651.03 282.086 642.427 283.243C633.795 284.404 622.561 284.406 607.448 284.406V286.406ZM607.448 106.406C622.561 106.406 633.795 106.408 642.427 107.568C651.03 108.725 656.899 111.016 661.368 115.485L662.782 114.071C657.879 109.168 651.519 106.773 642.694 105.586C633.898 104.404 622.505 104.406 607.448 104.406V106.406ZM672.448 169.406C672.448 154.349 672.45 142.956 671.267 134.16C670.081 125.335 667.685 118.974 662.782 114.071L661.368 115.485C665.838 119.955 668.129 125.823 669.285 134.426C670.446 143.058 670.448 154.293 670.448 169.406H672.448ZM555.448 104.406C540.391 104.406 528.998 104.404 520.202 105.586C511.377 106.773 505.016 109.168 500.113 114.071L501.528 115.485C505.997 111.016 511.865 108.725 520.468 107.568C529.1 106.408 540.335 106.406 555.448 106.406V104.406ZM492.448 169.406C492.448 154.293 492.45 143.058 493.611 134.426C494.767 125.823 497.058 119.955 501.528 115.485L500.113 114.071C495.21 118.974 492.815 125.335 491.628 134.16C490.446 142.956 490.448 154.349 490.448 169.406H492.448Z" fill="#D9D9D9"/>
</g>
<path d="M581 146.234C553.389 146.234 531 168.62 531 196.234C531 218.326 545.327 237.068 565.193 243.68C567.692 244.143 568.61 242.595 568.61 241.274C568.61 240.082 568.563 236.143 568.542 231.965C554.631 234.99 551.696 226.066 551.696 226.066C549.422 220.287 546.145 218.75 546.145 218.75C541.608 215.647 546.487 215.71 546.487 215.71C551.508 216.063 554.151 220.863 554.151 220.863C558.611 228.507 565.848 226.297 568.701 225.02C569.15 221.788 570.446 219.582 571.876 218.334C560.77 217.069 549.095 212.782 549.095 193.623C549.095 188.165 551.049 183.704 554.247 180.202C553.728 178.943 552.017 173.858 554.732 166.97C554.732 166.97 558.93 165.627 568.485 172.096C572.473 170.987 576.751 170.432 581 170.413C585.249 170.432 589.53 170.987 593.526 172.096C603.07 165.627 607.262 166.97 607.262 166.97C609.984 173.858 608.272 178.943 607.753 180.202C610.958 183.704 612.898 188.164 612.898 193.623C612.898 212.827 601.201 217.056 590.068 218.294C591.861 219.845 593.459 222.888 593.459 227.553C593.459 234.243 593.401 239.627 593.401 241.274C593.401 242.605 594.301 244.164 596.836 243.673C616.691 237.054 631 218.319 631 196.234C631 168.62 608.614 146.234 581 146.234Z" fill="#161614"/>
<path d="M549.727 217.461C549.617 217.709 549.226 217.784 548.87 217.613C548.507 217.45 548.303 217.111 548.421 216.862C548.529 216.606 548.92 216.535 549.282 216.707C549.646 216.869 549.853 217.211 549.727 217.461ZM552.186 219.655C551.948 219.876 551.482 219.774 551.165 219.424C550.838 219.076 550.777 218.61 551.019 218.385C551.265 218.164 551.717 218.267 552.045 218.616C552.372 218.969 552.435 219.432 552.186 219.656L552.186 219.655ZM553.874 222.463C553.567 222.676 553.066 222.476 552.756 222.032C552.45 221.587 552.45 221.054 552.763 220.84C553.074 220.627 553.567 220.819 553.881 221.26C554.187 221.712 554.187 222.245 553.873 222.463L553.874 222.463ZM556.727 225.715C556.453 226.017 555.869 225.936 555.442 225.524C555.005 225.121 554.883 224.548 555.158 224.246C555.435 223.943 556.022 224.028 556.453 224.437C556.887 224.84 557.019 225.416 556.727 225.715H556.727ZM560.415 226.813C560.294 227.204 559.732 227.382 559.166 227.216C558.6 227.045 558.23 226.586 558.344 226.19C558.462 225.796 559.026 225.611 559.597 225.789C560.162 225.959 560.533 226.415 560.415 226.813H560.415ZM564.612 227.278C564.626 227.691 564.146 228.033 563.551 228.04C562.953 228.053 562.47 227.72 562.464 227.314C562.464 226.898 562.933 226.559 563.531 226.549C564.125 226.537 564.612 226.869 564.612 227.278ZM568.735 227.12C568.806 227.523 568.393 227.936 567.803 228.046C567.223 228.152 566.685 227.904 566.611 227.505C566.539 227.092 566.96 226.679 567.539 226.572C568.131 226.469 568.66 226.711 568.735 227.12Z" fill="#161614"/>
<g filter="url(#filter2_d_103_3)">
<path d="M251.724 368.703C251.724 338.533 251.724 323.448 261.097 314.075C270.469 304.703 285.554 304.703 315.724 304.703H367.724C397.894 304.703 412.979 304.703 422.351 314.075C431.724 323.448 431.724 338.533 431.724 368.703V420.703C431.724 450.873 431.724 465.958 422.351 475.33C412.979 484.703 397.894 484.703 367.724 484.703H315.724C285.554 484.703 270.469 484.703 261.097 475.33C251.724 465.958 251.724 450.873 251.724 420.703V368.703Z" fill="white"/>
<path d="M261.097 475.33L260.389 476.037L261.097 475.33ZM422.351 475.33L421.644 474.623L422.351 475.33ZM422.351 314.075L423.059 313.368L422.351 314.075ZM315.724 305.703H367.724V303.703H315.724V305.703ZM430.724 368.703V420.703H432.724V368.703H430.724ZM367.724 483.703H315.724V485.703H367.724V483.703ZM252.724 420.703V368.703H250.724V420.703H252.724ZM315.724 483.703C300.611 483.703 289.376 483.701 280.745 482.54C272.141 481.384 266.273 479.093 261.804 474.623L260.389 476.037C265.293 480.94 271.653 483.336 280.478 484.522C289.274 485.705 300.667 485.703 315.724 485.703V483.703ZM250.724 420.703C250.724 435.76 250.722 447.153 251.904 455.949C253.091 464.774 255.486 471.134 260.389 476.037L261.804 474.623C257.334 470.154 255.043 464.285 253.887 455.682C252.726 447.05 252.724 435.816 252.724 420.703H250.724ZM430.724 420.703C430.724 435.816 430.722 447.05 429.561 455.682C428.405 464.285 426.114 470.154 421.644 474.623L423.059 476.037C427.962 471.134 430.357 464.774 431.544 455.949C432.726 447.153 432.724 435.76 432.724 420.703H430.724ZM367.724 485.703C382.781 485.703 394.174 485.705 402.97 484.522C411.795 483.336 418.155 480.94 423.059 476.037L421.644 474.623C417.175 479.093 411.307 481.384 402.703 482.54C394.072 483.701 382.837 483.703 367.724 483.703V485.703ZM367.724 305.703C382.837 305.703 394.072 305.705 402.703 306.866C411.307 308.022 417.175 310.313 421.644 314.783L423.059 313.368C418.155 308.465 411.795 306.07 402.97 304.883C394.174 303.701 382.781 303.703 367.724 303.703V305.703ZM432.724 368.703C432.724 353.646 432.726 342.253 431.544 333.457C430.357 324.632 427.962 318.271 423.059 313.368L421.644 314.783C426.114 319.252 428.405 325.12 429.561 333.723C430.722 342.355 430.724 353.59 430.724 368.703H432.724ZM315.724 303.703C300.667 303.703 289.274 303.701 280.478 304.883C271.653 306.07 265.293 308.465 260.389 313.368L261.804 314.783C266.273 310.313 272.141 308.022 280.745 306.866C289.376 305.705 300.611 305.703 315.724 305.703V303.703ZM252.724 368.703C252.724 353.59 252.726 342.355 253.887 333.723C255.043 325.12 257.334 319.252 261.804 314.783L260.389 313.368C255.486 318.271 253.091 324.632 251.904 333.457C250.722 342.253 250.724 353.646 250.724 368.703H252.724Z" fill="#D9D9D9"/>
</g>
<path d="M342 345L297.808 370V420L342 445L386.192 420V370L342 345Z" fill="white"/>
<path d="M305.7 418.275L340.542 437.983V422.633L318.833 410.692L305.7 418.275ZM303.317 416.117V374.9L316.067 382.258V408.75L303.317 416.117ZM378.442 418.275L343.6 437.983V422.633L365.308 410.692L378.442 418.275ZM380.825 416.117V374.9L368.075 382.258V408.75L380.825 416.117ZM379.333 372.233L343.6 352.017V366.858L366.492 379.45L366.667 379.55L379.333 372.233ZM304.808 372.233L340.542 352.017V366.858L317.65 379.45L317.475 379.55L304.808 372.233Z" fill="#8ED6FB"/>
<path d="M343.6 419.142L365.017 407.367V384.033L343.6 396.4V419.142ZM340.542 419.142L319.125 407.367V384.033L340.542 396.4V419.142ZM363.567 381.333L342.067 369.508L320.567 381.333L342.067 393.75L363.567 381.333Z" fill="#1C78C0"/>
<g filter="url(#filter3_d_103_3)">
<path d="M231.62 700.703C231.62 670.533 231.62 655.448 240.992 646.075C250.365 636.703 265.45 636.703 295.62 636.703H347.62C377.789 636.703 392.874 636.703 402.247 646.075C411.62 655.448 411.62 670.533 411.62 700.703V752.703C411.62 782.873 411.62 797.958 402.247 807.33C392.874 816.703 377.789 816.703 347.62 816.703H295.62C265.45 816.703 250.365 816.703 240.992 807.33C231.62 797.958 231.62 782.873 231.62 752.703V700.703Z" fill="white"/>
<path d="M240.992 807.33L240.285 808.037L240.992 807.33ZM402.247 807.33L401.54 806.623L402.247 807.33ZM402.247 646.075L402.954 645.368L402.247 646.075ZM295.62 637.703H347.62V635.703H295.62V637.703ZM410.62 700.703V752.703H412.62V700.703H410.62ZM347.62 815.703H295.62V817.703H347.62V815.703ZM232.62 752.703V700.703H230.62V752.703H232.62ZM295.62 815.703C280.506 815.703 269.272 815.701 260.64 814.54C252.037 813.384 246.169 811.093 241.699 806.623L240.285 808.037C245.188 812.94 251.549 815.336 260.374 816.522C269.17 817.705 280.563 817.703 295.62 817.703V815.703ZM230.62 752.703C230.62 767.76 230.617 779.153 231.8 787.949C232.986 796.774 235.382 803.134 240.285 808.037L241.699 806.623C237.23 802.154 234.939 796.285 233.782 787.682C232.622 779.05 232.62 767.816 232.62 752.703H230.62ZM410.62 752.703C410.62 767.816 410.617 779.05 409.457 787.682C408.3 796.285 406.009 802.154 401.54 806.623L402.954 808.037C407.857 803.134 410.253 796.774 411.439 787.949C412.622 779.153 412.62 767.76 412.62 752.703H410.62ZM347.62 817.703C362.676 817.703 374.069 817.705 382.865 816.522C391.69 815.336 398.051 812.94 402.954 808.037L401.54 806.623C397.07 811.093 391.202 813.384 382.599 814.54C373.967 815.701 362.733 815.703 347.62 815.703V817.703ZM347.62 637.703C362.733 637.703 373.967 637.705 382.599 638.866C391.202 640.022 397.07 642.313 401.54 646.783L402.954 645.368C398.051 640.465 391.69 638.07 382.865 636.883C374.069 635.701 362.676 635.703 347.62 635.703V637.703ZM412.62 700.703C412.62 685.646 412.622 674.253 411.439 665.457C410.253 656.632 407.857 650.271 402.954 645.368L401.54 646.783C406.009 651.252 408.3 657.12 409.457 665.723C410.617 674.355 410.62 685.59 410.62 700.703H412.62ZM295.62 635.703C280.563 635.703 269.17 635.701 260.374 636.883C251.549 638.07 245.188 640.465 240.285 645.368L241.699 646.783C246.169 642.313 252.037 640.022 260.64 638.866C269.272 637.705 280.506 637.703 295.62 637.703V635.703ZM232.62 700.703C232.62 685.59 232.622 674.355 233.782 665.723C234.939 657.12 237.23 651.252 241.699 646.783L240.285 645.368C235.382 650.271 232.986 656.632 231.8 665.457C230.617 674.253 230.62 685.646 230.62 700.703H232.62Z" fill="#D9D9D9"/>
</g>
<path d="M358.108 732.614C354.619 732.632 351.587 733.473 349.048 734.715C348.117 732.87 347.185 731.226 347.021 730.02C346.838 728.614 346.619 727.756 346.838 726.075C347.057 724.395 348.044 722.002 348.025 721.819C348.007 721.637 347.806 720.778 345.797 720.76C343.788 720.742 342.053 721.143 341.852 721.673C341.651 722.203 341.267 723.408 341.011 724.65C340.664 726.477 336.993 732.998 334.893 736.413C334.217 735.08 333.632 733.911 333.504 732.979C333.322 731.573 333.103 730.715 333.322 729.034C333.541 727.354 334.527 724.961 334.509 724.778C334.491 724.596 334.29 723.737 332.281 723.719C330.271 723.701 328.536 724.102 328.335 724.632C328.134 725.162 327.915 726.404 327.495 727.609C327.075 728.815 322.198 739.701 320.919 742.514C320.262 743.957 319.696 745.108 319.294 745.893C319.294 745.893 319.276 745.948 319.221 746.039C318.874 746.715 318.673 747.08 318.673 747.08C318.673 747.08 318.673 747.08 318.673 747.099C318.399 747.592 318.107 748.048 317.961 748.048C317.851 748.048 317.65 746.733 317.997 744.943C318.728 741.162 320.463 735.281 320.445 735.08C320.445 734.97 320.773 733.947 319.312 733.418C317.887 732.888 317.376 733.765 317.248 733.765C317.12 733.765 317.029 734.075 317.029 734.075C317.029 734.075 318.618 727.463 313.997 727.463C311.111 727.463 307.129 730.623 305.156 733.473C303.914 734.148 301.266 735.591 298.435 737.144C297.357 737.747 296.243 738.349 295.202 738.916C295.129 738.843 295.056 738.751 294.983 738.678C289.393 732.705 279.055 728.486 279.494 720.468C279.658 717.545 280.663 709.874 299.348 700.558C314.728 692.978 326.965 695.079 329.084 699.736C332.116 706.385 322.527 718.732 306.636 720.522C300.572 721.198 297.394 718.86 296.59 717.984C295.75 717.07 295.622 717.015 295.311 717.198C294.8 717.472 295.129 718.294 295.311 718.769C295.786 720.011 297.741 722.203 301.047 723.281C303.969 724.23 311.074 724.76 319.677 721.436C329.303 717.71 336.829 707.353 334.619 698.677C332.408 689.873 317.796 686.969 303.969 691.882C295.75 694.805 286.836 699.408 280.425 705.399C272.808 712.522 271.603 718.714 272.096 721.308C273.868 730.514 286.562 736.505 291.64 740.943C291.384 741.089 291.147 741.217 290.946 741.327C288.407 742.587 278.726 747.647 276.315 752.998C273.576 759.062 276.754 763.41 278.854 763.994C285.375 765.802 292.078 762.551 295.677 757.181C299.275 751.811 298.837 744.834 297.174 741.637C297.156 741.601 297.138 741.564 297.101 741.528C297.759 741.144 298.435 740.742 299.092 740.359C300.389 739.591 301.668 738.879 302.764 738.295C302.143 739.993 301.686 742.021 301.467 744.943C301.193 748.377 302.599 752.834 304.444 754.587C305.266 755.355 306.234 755.373 306.855 755.373C309.01 755.373 309.979 753.583 311.056 751.464C312.371 748.87 313.559 745.857 313.559 745.857C313.559 745.857 312.079 754.003 316.097 754.003C317.559 754.003 319.038 752.103 319.696 751.135C319.696 751.153 319.696 751.153 319.696 751.153C319.696 751.153 319.732 751.099 319.805 750.971C319.951 750.733 320.043 750.587 320.043 750.587C320.043 750.587 320.043 750.569 320.043 750.551C320.627 749.528 321.942 747.208 323.897 743.354C326.417 738.386 328.847 732.176 328.847 732.176C328.847 732.176 329.066 733.692 329.815 736.212C330.253 737.692 331.166 739.318 331.897 740.888C331.312 741.71 330.947 742.167 330.947 742.167C330.947 742.167 330.947 742.167 330.965 742.185C330.491 742.806 329.979 743.482 329.413 744.14C327.422 746.514 325.047 749.236 324.719 750.021C324.335 750.953 324.426 751.628 325.157 752.176C325.687 752.578 326.637 752.633 327.605 752.578C329.395 752.45 330.655 752.012 331.276 751.738C332.244 751.391 333.376 750.861 334.436 750.076C336.39 748.633 337.578 746.569 337.468 743.847C337.413 742.35 336.92 740.852 336.317 739.445C336.5 739.19 336.664 738.934 336.847 738.678C339.934 734.167 342.327 729.217 342.327 729.217C342.327 729.217 342.546 730.733 343.295 733.253C343.66 734.532 344.409 735.92 345.066 737.272C342.162 739.628 340.372 742.368 339.733 744.158C338.582 747.482 339.477 748.98 341.176 749.327C341.943 749.491 343.039 749.126 343.843 748.779C344.865 748.45 346.071 747.884 347.222 747.044C349.176 745.601 351.057 743.592 350.948 740.87C350.893 739.628 350.564 738.404 350.108 737.217C352.573 736.194 355.752 735.628 359.807 736.103C368.501 737.126 370.218 742.55 369.889 744.834C369.56 747.117 367.734 748.359 367.131 748.742C366.528 749.126 366.327 749.254 366.382 749.528C366.455 749.93 366.747 749.911 367.259 749.838C367.971 749.711 371.825 747.994 371.99 743.793C372.264 738.423 367.149 732.559 358.108 732.614ZM291.037 755.227C288.151 758.368 284.133 759.556 282.398 758.551C280.535 757.473 281.265 752.834 284.809 749.51C286.964 747.482 289.74 745.601 291.585 744.45C292.005 744.194 292.626 743.829 293.375 743.372C293.503 743.299 293.576 743.263 293.576 743.263C293.722 743.172 293.868 743.08 294.015 742.989C295.311 747.738 294.069 751.921 291.037 755.227ZM312.043 740.943C311.038 743.391 308.937 749.656 307.659 749.309C306.563 749.016 305.887 744.267 307.44 739.573C308.225 737.217 309.887 734.404 310.855 733.308C312.426 731.555 314.161 730.97 314.581 731.683C315.111 732.614 312.664 739.409 312.043 740.943ZM329.376 749.236C328.956 749.455 328.554 749.601 328.372 749.491C328.244 749.418 328.554 749.126 328.554 749.126C328.554 749.126 330.728 746.788 331.586 745.729C332.08 745.108 332.664 744.377 333.285 743.555C333.285 743.628 333.285 743.719 333.285 743.793C333.285 746.587 330.582 748.468 329.376 749.236ZM342.747 746.185C342.436 745.966 342.491 745.236 343.532 742.952C343.934 742.057 344.884 740.56 346.509 739.117C346.692 739.701 346.82 740.267 346.802 740.797C346.783 744.322 344.263 745.637 342.747 746.185Z" fill="#CD6799"/>
<g filter="url(#filter4_d_103_3)">
<path d="M488.067 588.703C488.067 558.533 488.067 543.448 497.44 534.075C506.812 524.703 521.897 524.703 552.067 524.703H604.067C634.237 524.703 649.322 524.703 658.695 534.075C668.067 543.448 668.067 558.533 668.067 588.703V640.703C668.067 670.873 668.067 685.958 658.695 695.33C649.322 704.703 634.237 704.703 604.067 704.703H552.067C521.897 704.703 506.812 704.703 497.44 695.33C488.067 685.958 488.067 670.873 488.067 640.703V588.703Z" fill="white"/>
<path d="M497.44 695.33L496.733 696.037L497.44 695.33ZM658.695 695.33L657.988 694.623L658.695 695.33ZM658.695 534.075L659.402 533.368L658.695 534.075ZM552.067 525.703H604.067V523.703H552.067V525.703ZM667.067 588.703V640.703H669.067V588.703H667.067ZM604.067 703.703H552.067V705.703H604.067V703.703ZM489.067 640.703V588.703H487.067V640.703H489.067ZM552.067 703.703C536.954 703.703 525.72 703.701 517.088 702.54C508.485 701.384 502.616 699.093 498.147 694.623L496.733 696.037C501.636 700.94 507.996 703.336 516.821 704.522C525.617 705.705 537.011 705.703 552.067 705.703V703.703ZM487.067 640.703C487.067 655.76 487.065 667.153 488.248 675.949C489.434 684.774 491.83 691.134 496.733 696.037L498.147 694.623C493.677 690.154 491.387 684.285 490.23 675.682C489.069 667.05 489.067 655.816 489.067 640.703H487.067ZM667.067 640.703C667.067 655.816 667.065 667.05 665.905 675.682C664.748 684.285 662.457 690.154 657.988 694.623L659.402 696.037C664.305 691.134 666.7 684.774 667.887 675.949C669.069 667.153 669.067 655.76 669.067 640.703H667.067ZM604.067 705.703C619.124 705.703 630.517 705.705 639.313 704.522C648.138 703.336 654.499 700.94 659.402 696.037L657.988 694.623C653.518 699.093 647.65 701.384 639.047 702.54C630.415 703.701 619.18 703.703 604.067 703.703V705.703ZM604.067 525.703C619.18 525.703 630.415 525.705 639.047 526.866C647.65 528.022 653.518 530.313 657.988 534.783L659.402 533.368C654.499 528.465 648.138 526.07 639.313 524.883C630.517 523.701 619.124 523.703 604.067 523.703V525.703ZM669.067 588.703C669.067 573.646 669.069 562.253 667.887 553.457C666.7 544.632 664.305 538.271 659.402 533.368L657.988 534.783C662.457 539.252 664.748 545.12 665.905 553.723C667.065 562.355 667.067 573.59 667.067 588.703H669.067ZM552.067 523.703C537.011 523.703 525.617 523.701 516.821 524.883C507.996 526.07 501.636 528.465 496.733 533.368L498.147 534.783C502.616 530.313 508.485 528.022 517.088 526.866C525.72 525.705 536.954 525.703 552.067 525.703V523.703ZM489.067 588.703C489.067 573.59 489.069 562.355 490.23 553.723C491.387 545.12 493.677 539.252 498.147 534.783L496.733 533.368C491.83 538.271 489.434 544.632 488.248 553.457C487.065 562.253 487.067 573.646 487.067 588.703H489.067Z" fill="#D9D9D9"/>
</g>
<path d="M528.951 600.033C528.951 600.033 526.516 598.278 529.439 595.933L536.248 589.844C536.248 589.844 538.197 587.794 540.257 589.58L603.096 637.156V659.97C603.096 659.97 603.065 663.552 598.468 663.157L528.951 600.033Z" fill="#2489CA"/>
<path d="M545.148 614.739L528.951 629.464C528.951 629.464 527.287 630.702 528.951 632.914L536.471 639.755C536.471 639.755 538.258 641.673 540.896 639.491L558.067 626.47L545.148 614.739Z" fill="#1070B3"/>
<path d="M573.584 614.86L603.289 592.178L603.096 569.486C603.096 569.486 601.827 564.534 597.596 567.112L558.067 603.088L573.584 614.86Z" fill="#0877B9"/>
<path d="M598.468 663.187C600.194 664.953 602.284 664.375 602.284 664.375L625.433 652.968C628.396 650.948 627.98 648.441 627.98 648.441V580.325C627.98 577.331 624.915 576.296 624.915 576.296L604.852 566.625C600.468 563.915 597.596 567.112 597.596 567.112C597.596 567.112 601.29 564.453 603.096 569.486V659.554C603.096 660.173 602.964 660.782 602.7 661.33C602.173 662.396 601.026 663.39 598.276 662.974L598.468 663.187Z" fill="#3C99D4"/>
<g filter="url(#filter5_d_103_3)">
<path d="M232.343 57C232.343 26.8301 232.343 11.7452 241.716 2.37258C251.089 -7 266.173 -7 296.343 -7H348.343C378.513 -7 393.598 -7 402.971 2.37258C412.343 11.7452 412.343 26.8301 412.343 57V109C412.343 139.17 412.343 154.255 402.971 163.627C393.598 173 378.513 173 348.343 173H296.343C266.173 173 251.089 173 241.716 163.627C232.343 154.255 232.343 139.17 232.343 109V57Z" fill="white"/>
<path d="M241.716 163.627L241.009 164.335L241.716 163.627ZM402.971 163.627L402.264 162.92L402.971 163.627ZM402.971 2.37258L403.678 1.66548L402.971 2.37258ZM296.343 -6H348.343V-8H296.343V-6ZM411.343 57V109H413.343V57H411.343ZM348.343 172H296.343V174H348.343V172ZM233.343 109V57H231.343V109H233.343ZM296.343 172C281.23 172 269.996 171.998 261.364 170.837C252.761 169.681 246.893 167.39 242.423 162.92L241.009 164.335C245.912 169.238 252.273 171.633 261.097 172.82C269.894 174.002 281.287 174 296.343 174V172ZM231.343 109C231.343 124.057 231.341 135.45 232.524 144.246C233.71 153.071 236.106 159.431 241.009 164.335L242.423 162.92C237.954 158.451 235.663 152.583 234.506 143.979C233.346 135.348 233.343 124.113 233.343 109H231.343ZM411.343 109C411.343 124.113 411.341 135.348 410.181 143.979C409.024 152.583 406.733 158.451 402.264 162.92L403.678 164.335C408.581 159.431 410.976 153.071 412.163 144.246C413.346 135.45 413.343 124.057 413.343 109H411.343ZM348.343 174C363.4 174 374.793 174.002 383.589 172.82C392.414 171.633 398.775 169.238 403.678 164.335L402.264 162.92C397.794 167.39 391.926 169.681 383.323 170.837C374.691 171.998 363.457 172 348.343 172V174ZM348.343 -6C363.457 -6 374.691 -5.99788 383.323 -4.83734C391.926 -3.68068 397.794 -1.38983 402.264 3.07969L403.678 1.66548C398.775 -3.23758 392.414 -5.63303 383.589 -6.81951C374.793 -8.00212 363.4 -8 348.343 -8V-6ZM413.343 57C413.343 41.9433 413.346 30.5502 412.163 21.7541C410.976 12.9291 408.581 6.56854 403.678 1.66548L402.264 3.07969C406.733 7.54921 409.024 13.4174 410.181 22.0205C411.341 30.6525 411.343 41.8868 411.343 57H413.343ZM296.343 -8C281.287 -8 269.894 -8.00212 261.097 -6.81951C252.273 -5.63303 245.912 -3.23758 241.009 1.66548L242.423 3.07969C246.893 -1.38983 252.761 -3.68068 261.364 -4.83734C269.996 -5.99788 281.23 -6 296.343 -6V-8ZM233.343 57C233.343 41.8868 233.346 30.6525 234.506 22.0205C235.663 13.4174 237.954 7.54921 242.423 3.07969L241.009 1.66548C236.106 6.56854 233.71 12.9291 232.524 21.7541C231.341 30.5502 231.343 41.9433 231.343 57H233.343Z" fill="#D9D9D9"/>
</g>
<path d="M272 33H372V133H272V33Z" fill="#CC0000"/>
<path d="M321.66 43.74H282.74V122.256H321.656V63.54H341.456V122.256H361.256V43.74H321.66Z" fill="white"/>
<g filter="url(#filter6_d_103_3)">
<path d="M814.62 64C814.62 33.8301 814.62 18.7452 823.992 9.37258C833.365 0 848.45 0 878.62 0H930.62C960.789 0 975.874 0 985.247 9.37258C994.62 18.7452 994.62 33.8301 994.62 64V116C994.62 146.17 994.62 161.255 985.247 170.627C975.874 180 960.789 180 930.62 180H878.62C848.45 180 833.365 180 823.992 170.627C814.62 161.255 814.62 146.17 814.62 116V64Z" fill="white"/>
<path d="M823.992 170.627L823.285 171.335L823.992 170.627ZM985.247 170.627L984.54 169.92L985.247 170.627ZM985.247 9.37258L985.954 8.66548L985.247 9.37258ZM878.62 1H930.62V-1H878.62V1ZM993.62 64V116H995.62V64H993.62ZM930.62 179H878.62V181H930.62V179ZM815.62 116V64H813.62V116H815.62ZM878.62 179C863.506 179 852.272 178.998 843.64 177.837C835.037 176.681 829.169 174.39 824.699 169.92L823.285 171.335C828.188 176.238 834.549 178.633 843.374 179.82C852.17 181.002 863.563 181 878.62 181V179ZM813.62 116C813.62 131.057 813.617 142.45 814.8 151.246C815.986 160.071 818.382 166.431 823.285 171.335L824.699 169.92C820.23 165.451 817.939 159.583 816.782 150.979C815.622 142.348 815.62 131.113 815.62 116H813.62ZM993.62 116C993.62 131.113 993.617 142.348 992.457 150.979C991.3 159.583 989.009 165.451 984.54 169.92L985.954 171.335C990.857 166.431 993.253 160.071 994.439 151.246C995.622 142.45 995.62 131.057 995.62 116H993.62ZM930.62 181C945.676 181 957.069 181.002 965.865 179.82C974.69 178.633 981.051 176.238 985.954 171.335L984.54 169.92C980.07 174.39 974.202 176.681 965.599 177.837C956.967 178.998 945.733 179 930.62 179V181ZM930.62 1C945.733 1 956.967 1.00212 965.599 2.16266C974.202 3.31932 980.07 5.61017 984.54 10.0797L985.954 8.66548C981.051 3.76242 974.69 1.36697 965.865 0.18049C957.069 -1.00212 945.676 -1 930.62 -1V1ZM995.62 64C995.62 48.9433 995.622 37.5502 994.439 28.7541C993.253 19.9291 990.857 13.5685 985.954 8.66548L984.54 10.0797C989.009 14.5492 991.3 20.4174 992.457 29.0205C993.617 37.6525 993.62 48.8868 993.62 64H995.62ZM878.62 -1C863.563 -1 852.17 -1.00212 843.374 0.18049C834.549 1.36697 828.188 3.76242 823.285 8.66548L824.699 10.0797C829.169 5.61017 835.037 3.31932 843.64 2.16266C852.272 1.00212 863.506 1 878.62 1V-1ZM815.62 64C815.62 48.8868 815.622 37.6525 816.782 29.0205C817.939 20.4174 820.23 14.5492 824.699 10.0797L823.285 8.66548C818.382 13.5685 815.986 19.9291 814.8 28.7541C813.617 37.5502 813.62 48.9433 813.62 64H815.62Z" fill="#D9D9D9"/>
</g>
<path d="M949.087 40L941.054 129.99L904.946 140L868.937 130.004L860.913 40H949.087Z" fill="#264DE4"/>
<path d="M934.177 124.259L941.042 47.3591H905V132.348L934.177 124.259Z" fill="#2965F1"/>
<path d="M879.308 80.7402L880.298 91.7787H905V80.7402H879.308Z" fill="#EBEBEB"/>
<path d="M905 58.3977H904.962H877.32L878.324 69.4364H905V58.3977Z" fill="#EBEBEB"/>
<path d="M905 120.893V109.408L904.952 109.421L892.658 106.102L891.872 97.2979H885.898H880.791L882.338 114.63L904.949 120.907L905 120.893Z" fill="#EBEBEB"/>
<path d="M918.555 91.7785L917.273 106.095L904.962 109.418V120.902L927.592 114.63L927.758 112.765L930.352 83.7042L930.621 80.7401L932.614 58.3977H904.962V69.4364H920.516L919.512 80.7401H904.962V91.7785H918.555Z" fill="white"/>
<g filter="url(#filter7_d_103_3)">
<path d="M815.172 679C815.172 648.83 815.172 633.745 824.544 624.373C833.917 615 849.002 615 879.172 615H931.172C961.342 615 976.427 615 985.799 624.373C995.172 633.745 995.172 648.83 995.172 679V731C995.172 761.17 995.172 776.255 985.799 785.627C976.427 795 961.342 795 931.172 795H879.172C849.002 795 833.917 795 824.544 785.627C815.172 776.255 815.172 761.17 815.172 731V679Z" fill="white"/>
<path d="M824.544 785.627L823.837 786.335L824.544 785.627ZM985.799 785.627L985.092 784.92L985.799 785.627ZM985.799 624.373L986.506 623.665L985.799 624.373ZM879.172 616H931.172V614H879.172V616ZM994.172 679V731H996.172V679H994.172ZM931.172 794H879.172V796H931.172V794ZM816.172 731V679H814.172V731H816.172ZM879.172 794C864.059 794 852.824 793.998 844.192 792.837C835.589 791.681 829.721 789.39 825.251 784.92L823.837 786.335C828.74 791.238 835.101 793.633 843.926 794.82C852.722 796.002 864.115 796 879.172 796V794ZM814.172 731C814.172 746.057 814.17 757.45 815.352 766.246C816.539 775.071 818.934 781.431 823.837 786.335L825.251 784.92C820.782 780.451 818.491 774.583 817.334 765.979C816.174 757.348 816.172 746.113 816.172 731H814.172ZM994.172 731C994.172 746.113 994.17 757.348 993.009 765.979C991.852 774.583 989.562 780.451 985.092 784.92L986.506 786.335C991.409 781.431 993.805 775.071 994.991 766.246C996.174 757.45 996.172 746.057 996.172 731H994.172ZM931.172 796C946.228 796 957.622 796.002 966.418 794.82C975.243 793.633 981.603 791.238 986.506 786.335L985.092 784.92C980.623 789.39 974.754 791.681 966.151 792.837C957.519 793.998 946.285 794 931.172 794V796ZM931.172 616C946.285 616 957.519 616.002 966.151 617.163C974.754 618.319 980.623 620.61 985.092 625.08L986.506 623.665C981.603 618.762 975.243 616.367 966.418 615.18C957.622 613.998 946.228 614 931.172 614V616ZM996.172 679C996.172 663.943 996.174 652.55 994.991 643.754C993.805 634.929 991.409 628.569 986.506 623.665L985.092 625.08C989.562 629.549 991.852 635.417 993.009 644.021C994.17 652.652 994.172 663.887 994.172 679H996.172ZM879.172 614C864.115 614 852.722 613.998 843.926 615.18C835.101 616.367 828.74 618.762 823.837 623.665L825.251 625.08C829.721 620.61 835.589 618.319 844.192 617.163C852.824 616.002 864.059 616 879.172 616V614ZM816.172 679C816.172 663.887 816.174 652.652 817.334 644.021C818.491 635.417 820.782 629.549 825.251 625.08L823.837 623.665C818.934 628.569 816.539 634.929 815.352 643.754C814.17 652.55 814.172 663.943 814.172 679H816.172Z" fill="#D9D9D9"/>
</g>
<path d="M914.802 719.717L890.277 714.592C890.174 714.791 890.06 714.983 889.935 715.169L912.262 747.738L913.608 746.392L917.407 722.772C916.765 722.5 916.195 722.083 915.743 721.553C915.291 721.022 914.969 720.394 914.802 719.717V719.717ZM905.855 687.658C904.937 689.067 903.351 690 901.545 690C901.266 690 900.996 689.972 900.731 689.929L889.546 707.43L919.428 694.57C919.418 694.45 919.392 694.338 919.392 694.214C919.392 693.963 919.426 693.719 919.467 693.478L905.855 687.658V687.658ZM906.668 684.469L921.146 690.659C921.608 690.299 922.135 690.032 922.699 689.875L925.079 675.078L916.013 666.012L905.809 681.98C906.309 682.72 906.605 683.578 906.668 684.469V684.469ZM937.005 687.005L927.92 677.917L925.945 690.186C926.445 690.437 926.895 690.78 927.271 691.195L937.005 687.005ZM915.237 716.486C915.592 715.84 916.103 715.293 916.723 714.895C917.343 714.496 918.052 714.259 918.787 714.203L921.396 697.973C921.192 697.838 921.009 697.675 920.829 697.508L890.776 710.442C890.852 710.756 890.905 711.076 890.93 711.409L915.237 716.486ZM939.48 689.481L928.968 694.004L954.905 705.094L954.999 705L939.48 689.481ZM920.695 722.82L917.535 742.462L935.88 724.117L922.667 721.358C922.16 722.021 921.476 722.528 920.695 722.82ZM885.037 717.77C884.373 717.77 883.737 717.656 883.141 717.454L877.048 726.991L874.693 724.638L880.465 715.606C880.322 715.429 880.189 715.244 880.066 715.053L869.61 719.555L867.132 717.076L878.577 712.15L857.886 707.831L855.055 705L855.951 704.105L879.812 709.086C880.086 708.565 880.437 708.089 880.854 707.673L869.273 690.781L871.612 688.442L883.711 706.092C884.146 705.991 884.59 705.939 885.036 705.937C885.547 705.937 886.042 706.009 886.516 706.131L897.838 688.415C896.916 687.459 896.401 686.183 896.402 684.855C896.402 684.448 896.454 684.055 896.543 683.676L882.418 677.637L884.896 675.159L898.278 680.883C898.957 680.323 899.768 679.948 900.634 679.793C901.499 679.638 902.39 679.708 903.221 679.997L913.66 663.659L905.001 655L855.001 705L905.001 755L909.921 750.08L887.427 717.264C886.674 717.598 885.86 717.77 885.037 717.77ZM924.579 698.673L921.924 715.172C922.388 715.544 922.772 716.007 923.054 716.531C923.336 717.055 923.509 717.631 923.563 718.224L938.63 721.369L952.427 707.572L927.524 696.925C926.812 697.874 925.753 698.502 924.579 698.673V698.673Z" fill="#25C7B7"/>
<g filter="url(#filter8_d_103_3)">
<path d="M0.447876 525.406C0.447876 495.236 0.447876 480.151 9.82046 470.778C19.193 461.406 34.278 461.406 64.4479 461.406H116.448C146.618 461.406 161.703 461.406 171.075 470.778C180.448 480.151 180.448 495.236 180.448 525.406V577.406C180.448 607.576 180.448 622.661 171.075 632.033C161.703 641.406 146.618 641.406 116.448 641.406H64.4479C34.278 641.406 19.193 641.406 9.82046 632.033C0.447876 622.661 0.447876 607.576 0.447876 577.406V525.406Z" fill="white"/>
<path d="M9.82046 632.033L9.11335 632.74L9.82046 632.033ZM171.075 632.033L170.368 631.326L171.075 632.033ZM171.075 470.778L171.782 470.071L171.075 470.778ZM64.4479 462.406H116.448V460.406H64.4479V462.406ZM179.448 525.406V577.406H181.448V525.406H179.448ZM116.448 640.406H64.4479V642.406H116.448V640.406ZM1.44788 577.406V525.406H-0.552124V577.406H1.44788ZM64.4479 640.406C49.3347 640.406 38.1003 640.404 29.4684 639.243C20.8653 638.086 14.9971 635.796 10.5276 631.326L9.11335 632.74C14.0164 637.643 20.377 640.039 29.2019 641.225C37.9981 642.408 49.3912 642.406 64.4479 642.406V640.406ZM-0.552124 577.406C-0.552124 592.462 -0.554248 603.856 0.628366 612.652C1.81485 621.477 4.21029 627.837 9.11335 632.74L10.5276 631.326C6.05804 626.857 3.7672 620.988 2.61053 612.385C1.45 603.753 1.44788 592.519 1.44788 577.406H-0.552124ZM179.448 577.406C179.448 592.519 179.446 603.753 178.285 612.385C177.129 620.988 174.838 626.857 170.368 631.326L171.782 632.74C176.685 627.837 179.081 621.477 180.267 612.652C181.45 603.856 181.448 592.462 181.448 577.406H179.448ZM116.448 642.406C131.505 642.406 142.898 642.408 151.694 641.225C160.519 640.039 166.879 637.643 171.782 632.74L170.368 631.326C165.899 635.796 160.03 638.086 151.427 639.243C142.795 640.404 131.561 640.406 116.448 640.406V642.406ZM116.448 462.406C131.561 462.406 142.795 462.408 151.427 463.568C160.03 464.725 165.899 467.016 170.368 471.485L171.782 470.071C166.879 465.168 160.519 462.773 151.694 461.586C142.898 460.404 131.505 460.406 116.448 460.406V462.406ZM181.448 525.406C181.448 510.349 181.45 498.956 180.267 490.16C179.081 481.335 176.685 474.974 171.782 470.071L170.368 471.485C174.838 475.955 177.129 481.823 178.285 490.426C179.446 499.058 179.448 510.293 179.448 525.406H181.448ZM64.4479 460.406C49.3912 460.406 37.9981 460.404 29.2019 461.586C20.377 462.773 14.0164 465.168 9.11335 470.071L10.5276 471.485C14.9971 467.016 20.8653 464.725 29.4684 463.568C38.1003 462.408 49.3347 462.406 64.4479 462.406V460.406ZM1.44788 525.406C1.44788 510.293 1.45 499.058 2.61053 490.426C3.7672 481.823 6.05804 475.955 10.5276 471.485L9.11335 470.071C4.21029 474.974 1.81485 481.335 0.628366 490.16C-0.554248 498.956 -0.552124 510.349 -0.552124 525.406H1.44788Z" fill="#D9D9D9"/>
</g>
<path d="M70.455 538.55L89.4277 527.596C89.661 527.462 89.9258 527.391 90.1952 527.391C90.4647 527.391 90.7295 527.462 90.9628 527.596L109.936 538.55C110.169 538.685 110.363 538.879 110.497 539.112C110.632 539.346 110.703 539.61 110.703 539.88V561.787C110.703 562.336 110.41 562.842 109.936 563.117L90.9628 574.071C90.7295 574.205 90.4647 574.276 90.1952 574.276C89.9258 574.276 89.661 574.205 89.4277 574.071L70.455 563.117C70.2217 562.982 70.0279 562.788 69.8932 562.555C69.7584 562.322 69.6875 562.057 69.6874 561.787V539.879C69.6878 539.331 69.9804 538.825 70.455 538.55" fill="#8080F2"/>
<path d="M139.382 549.038L116.689 509.559C115.864 508.132 114.342 507.078 112.693 507.078H67.3069C65.6584 507.078 64.135 508.132 63.3108 509.559L40.6182 548.951C39.7939 550.379 39.7939 552.181 40.6182 553.609L63.3108 592.765C64.135 594.192 65.6584 594.922 67.3069 594.922H112.693C114.341 594.922 115.864 594.214 116.688 592.786L139.381 553.566C140.206 552.139 140.206 550.466 139.381 549.038H139.382ZM120.591 568.023C120.591 568.603 120.241 569.14 119.738 569.431L90.8323 586.107C90.5834 586.25 90.3016 586.325 90.0147 586.325C89.7279 586.325 89.446 586.25 89.1972 586.107L60.269 569.431C59.7663 569.14 59.4143 568.603 59.4143 568.022V534.668C59.4143 534.087 59.7612 533.55 60.2643 533.26L89.1687 516.582C89.4174 516.44 89.6992 516.364 89.986 516.364C90.2729 516.364 90.5547 516.44 90.8034 516.582L119.733 533.26C120.237 533.55 120.591 534.087 120.591 534.668V568.022V568.023Z" fill="#4B32C3"/>
<g filter="url(#filter9_d_103_3)">
<path d="M711.172 372.406C711.172 342.236 711.172 327.151 720.544 317.778C729.917 308.406 745.002 308.406 775.172 308.406H827.172C857.342 308.406 872.427 308.406 881.799 317.778C891.172 327.151 891.172 342.236 891.172 372.406V424.406C891.172 454.576 891.172 469.661 881.799 479.033C872.427 488.406 857.342 488.406 827.172 488.406H775.172C745.002 488.406 729.917 488.406 720.544 479.033C711.172 469.661 711.172 454.576 711.172 424.406V372.406Z" fill="white"/>
<path d="M720.544 479.033L719.837 479.74L720.544 479.033ZM881.799 479.033L881.092 478.326L881.799 479.033ZM881.799 317.778L882.506 317.071L881.799 317.778ZM775.172 309.406H827.172V307.406H775.172V309.406ZM890.172 372.406V424.406H892.172V372.406H890.172ZM827.172 487.406H775.172V489.406H827.172V487.406ZM712.172 424.406V372.406H710.172V424.406H712.172ZM775.172 487.406C760.059 487.406 748.824 487.404 740.192 486.243C731.589 485.086 725.721 482.796 721.251 478.326L719.837 479.74C724.74 484.643 731.101 487.039 739.926 488.225C748.722 489.408 760.115 489.406 775.172 489.406V487.406ZM710.172 424.406C710.172 439.462 710.17 450.856 711.352 459.652C712.539 468.477 714.934 474.837 719.837 479.74L721.251 478.326C716.782 473.857 714.491 467.988 713.334 459.385C712.174 450.753 712.172 439.519 712.172 424.406H710.172ZM890.172 424.406C890.172 439.519 890.17 450.753 889.009 459.385C887.852 467.988 885.562 473.857 881.092 478.326L882.506 479.74C887.409 474.837 889.805 468.477 890.991 459.652C892.174 450.856 892.172 439.462 892.172 424.406H890.172ZM827.172 489.406C842.228 489.406 853.622 489.408 862.418 488.225C871.243 487.039 877.603 484.643 882.506 479.74L881.092 478.326C876.623 482.796 870.754 485.086 862.151 486.243C853.519 487.404 842.285 487.406 827.172 487.406V489.406ZM827.172 309.406C842.285 309.406 853.519 309.408 862.151 310.568C870.754 311.725 876.623 314.016 881.092 318.485L882.506 317.071C877.603 312.168 871.243 309.773 862.418 308.586C853.622 307.404 842.228 307.406 827.172 307.406V309.406ZM892.172 372.406C892.172 357.349 892.174 345.956 890.991 337.16C889.805 328.335 887.409 321.974 882.506 317.071L881.092 318.485C885.562 322.955 887.852 328.823 889.009 337.426C890.17 346.058 890.172 357.293 890.172 372.406H892.172ZM775.172 307.406C760.115 307.406 748.722 307.404 739.926 308.586C731.101 309.773 724.74 312.168 719.837 317.071L721.251 318.485C725.721 314.016 731.589 311.725 740.192 310.568C748.824 309.408 760.059 309.406 775.172 309.406V307.406ZM712.172 372.406C712.172 357.293 712.174 346.058 713.334 337.426C714.491 328.823 716.782 322.955 721.251 318.485L719.837 317.071C714.934 321.974 712.539 328.335 711.352 337.16C710.17 345.956 710.172 357.349 710.172 372.406H712.172Z" fill="#D9D9D9"/>
</g>
<path d="M824.81 367.048H829.571C830.905 367.048 831.952 368.095 831.952 369.429C831.952 370.762 830.905 371.809 829.571 371.809H824.81C823.476 371.809 822.429 370.762 822.429 369.429C822.429 368.095 823.476 367.048 824.81 367.048Z" fill="#56B3B4"/>
<path d="M753.381 443.238H777.19C778.524 443.238 779.571 444.286 779.571 445.619C779.571 446.952 778.524 448 777.19 448H753.381C752.048 448 751 446.952 751 445.619C751 444.286 752.048 443.238 753.381 443.238Z" fill="#EA5E5E"/>
<path d="M810.524 405.143H824.809C826.143 405.143 827.19 406.191 827.19 407.524C827.19 408.857 826.143 409.905 824.809 409.905H810.524C809.191 409.905 808.143 408.857 808.143 407.524C808.143 406.191 809.191 405.143 810.524 405.143Z" fill="#BF85BF"/>
<path d="M781.952 405.143H801C802.333 405.143 803.381 406.191 803.381 407.524C803.381 408.857 802.333 409.905 801 409.905H781.952C780.619 409.905 779.571 408.857 779.571 407.524C779.571 406.191 780.619 405.143 781.952 405.143Z" fill="#EA5E5E"/>
<path d="M753.381 405.143H772.429C773.762 405.143 774.81 406.191 774.81 407.524C774.81 408.857 773.762 409.905 772.429 409.905H753.381C752.048 409.905 751 408.857 751 407.524C751 406.191 752.048 405.143 753.381 405.143Z" fill="#56B3B4"/>
<path d="M753.381 424.19H777.19C778.524 424.19 779.571 425.238 779.571 426.571C779.571 427.905 778.524 428.952 777.19 428.952H753.381C752.048 428.952 751 427.905 751 426.571C751 425.238 752.048 424.19 753.381 424.19Z" fill="#BF85BF"/>
<path d="M753.381 386.095H777.19C778.524 386.095 779.571 387.143 779.571 388.476C779.571 389.81 778.524 390.857 777.19 390.857H753.381C752.048 390.857 751 389.81 751 388.476C751 387.143 752.048 386.095 753.381 386.095Z" fill="#BF85BF"/>
<path d="M777.19 357.524H824.809C826.143 357.524 827.19 358.571 827.19 359.905C827.19 361.238 826.143 362.286 824.809 362.286H777.19C775.857 362.286 774.81 361.238 774.81 359.905C774.81 358.571 775.857 357.524 777.19 357.524Z" fill="#F7BA3E"/>
<path d="M753.381 357.524H767.667C769 357.524 770.048 358.571 770.048 359.905C770.048 361.238 769 362.286 767.667 362.286H753.381C752.048 362.286 751 361.238 751 359.905C751 358.571 752.048 357.524 753.381 357.524Z" fill="#EA5E5E"/>
<path d="M772.429 433.714H777.191C778.524 433.714 779.571 434.762 779.571 436.095C779.571 437.429 778.524 438.476 777.191 438.476H772.429C771.095 438.476 770.048 437.429 770.048 436.095C770.048 434.762 771.095 433.714 772.429 433.714Z" fill="#F7BA3E"/>
<path d="M772.429 376.572H777.191C778.524 376.572 779.571 377.619 779.571 378.952C779.571 380.286 778.524 381.333 777.191 381.333H772.429C771.095 381.333 770.048 380.286 770.048 378.952C770.048 377.619 771.095 376.572 772.429 376.572Z" fill="#56B3B4"/>
<path d="M753.381 433.714H762.905C764.238 433.714 765.286 434.762 765.286 436.095C765.286 437.429 764.238 438.476 762.905 438.476H753.381C752.048 438.476 751 437.429 751 436.095C751 434.762 752.048 433.714 753.381 433.714Z" fill="#56B3B4"/>
<path d="M753.381 376.572H762.905C764.238 376.572 765.286 377.619 765.286 378.952C765.286 380.286 764.238 381.333 762.905 381.333H753.381C752.048 381.333 751 380.286 751 378.952C751 377.619 752.048 376.572 753.381 376.572Z" fill="#F7BA3E"/>
<path opacity="0.5" d="M815.286 433.714H820.048C821.381 433.714 822.429 434.762 822.429 436.095C822.429 437.429 821.381 438.476 820.048 438.476H815.286C813.953 438.476 812.905 437.429 812.905 436.095C812.905 434.762 813.953 433.714 815.286 433.714Z" fill="#D0D4D8"/>
<path opacity="0.5" d="M786.714 433.714H805.762C807.095 433.714 808.143 434.762 808.143 436.095C808.143 437.429 807.095 438.476 805.762 438.476H786.714C785.381 438.476 784.333 437.429 784.333 436.095C784.333 434.762 785.381 433.714 786.714 433.714Z" fill="#D0D4D8"/>
<path opacity="0.5" d="M829.571 433.714H848.619C849.952 433.714 851 434.762 851 436.095C851 437.429 849.952 438.476 848.619 438.476H829.571C828.238 438.476 827.19 437.429 827.19 436.095C827.19 434.762 828.238 433.714 829.571 433.714Z" fill="#D0D4D8"/>
<path d="M791.476 395.619H829.571C830.905 395.619 831.952 396.667 831.952 398C831.952 399.333 830.905 400.381 829.571 400.381H791.476C790.143 400.381 789.095 399.333 789.095 398C789.095 396.667 790.143 395.619 791.476 395.619Z" fill="#56B3B4"/>
<path d="M767.667 395.619H781.952C783.286 395.619 784.333 396.667 784.333 398C784.333 399.333 783.286 400.381 781.952 400.381H767.667C766.333 400.381 765.286 399.333 765.286 398C765.286 396.667 766.333 395.619 767.667 395.619Z" fill="#F7BA3E"/>
<path d="M753.381 395.619H758.143C759.476 395.619 760.524 396.667 760.524 398C760.524 399.333 759.476 400.381 758.143 400.381H753.381C752.048 400.381 751 399.333 751 398C751 396.667 752.048 395.619 753.381 395.619Z" fill="#EA5E5E"/>
<path d="M796.238 367.048H815.286C816.619 367.048 817.667 368.095 817.667 369.429C817.667 370.762 816.619 371.809 815.286 371.809H796.238C794.905 371.809 793.857 370.762 793.857 369.429C793.857 368.095 794.905 367.048 796.238 367.048Z" fill="#BF85BF"/>
<path d="M753.381 367.048H786.714C788.048 367.048 789.095 368.095 789.095 369.429C789.095 370.762 788.048 371.809 786.714 371.809H753.381C752.048 371.809 751 370.762 751 369.429C751 368.095 752.048 367.048 753.381 367.048Z" fill="#56B3B4"/>
<path d="M767.667 414.667H810.524C811.857 414.667 812.905 415.714 812.905 417.048C812.905 418.381 811.857 419.429 810.524 419.429H767.667C766.333 419.429 765.286 418.381 765.286 417.048C765.286 415.714 766.333 414.667 767.667 414.667Z" fill="#F7BA3E"/>
<path d="M753.381 414.667H758.143C759.476 414.667 760.524 415.714 760.524 417.048C760.524 418.381 759.476 419.429 758.143 419.429H753.381C752.048 419.429 751 418.381 751 417.048C751 415.714 752.048 414.667 753.381 414.667Z" fill="#BF85BF"/>
<path d="M810.524 376.572H834.333C835.667 376.572 836.714 377.619 836.714 378.952C836.714 380.286 835.667 381.333 834.333 381.333H810.524C809.191 381.333 808.143 380.286 808.143 378.952C808.143 377.619 809.191 376.572 810.524 376.572Z" fill="#EA5E5E"/>
<path d="M810.524 386.095H834.333C835.667 386.095 836.714 387.143 836.714 388.476C836.714 389.81 835.667 390.857 834.333 390.857H810.524C809.191 390.857 808.143 389.81 808.143 388.476C808.143 387.143 809.191 386.095 810.524 386.095Z" fill="#F7BA3E"/>
<path d="M753.381 348H810.524C811.857 348 812.905 349.048 812.905 350.381C812.905 351.714 811.857 352.762 810.524 352.762H753.381C752.048 352.762 751 351.714 751 350.381C751 349.048 752.048 348 753.381 348Z" fill="#56B3B4"/>
<path opacity="0.5" d="M820.048 348H848.619C849.952 348 851 349.048 851 350.381C851 351.714 849.952 352.762 848.619 352.762H820.048C818.714 352.762 817.667 351.714 817.667 350.381C817.667 349.048 818.714 348 820.048 348Z" fill="#D0D4D8"/>
<path opacity="0.5" d="M820.048 414.667H829.571C830.905 414.667 831.952 415.714 831.952 417.048C831.952 418.381 830.905 419.429 829.571 419.429H820.048C818.714 419.429 817.667 418.381 817.667 417.048C817.667 415.714 818.714 414.667 820.048 414.667Z" fill="#D0D4D8"/>
<path opacity="0.5" d="M839.095 414.667H848.619C849.952 414.667 851 415.714 851 417.048C851 418.381 849.952 419.429 848.619 419.429H839.095C837.762 419.429 836.714 418.381 836.714 417.048C836.714 415.714 837.762 414.667 839.095 414.667Z" fill="#D0D4D8"/>
<path opacity="0.5" d="M834.333 405.143H848.619C849.952 405.143 851 406.191 851 407.524C851 408.857 849.952 409.905 848.619 409.905H834.333C833 409.905 831.952 408.857 831.952 407.524C831.952 406.191 833 405.143 834.333 405.143Z" fill="#D0D4D8"/>
<path opacity="0.5" d="M834.333 357.524H848.619C849.952 357.524 851 358.571 851 359.905C851 361.238 849.952 362.286 848.619 362.286H834.333C833 362.286 831.952 361.238 831.952 359.905C831.952 358.571 833 357.524 834.333 357.524Z" fill="#D0D4D8"/>
<path opacity="0.5" d="M839.095 395.619H848.619C849.952 395.619 851 396.667 851 398C851 399.333 849.952 400.381 848.619 400.381H839.095C837.762 400.381 836.714 399.333 836.714 398C836.714 396.667 837.762 395.619 839.095 395.619Z" fill="#D0D4D8"/>
<path opacity="0.5" d="M839.095 367.048H848.619C849.952 367.048 851 368.095 851 369.429C851 370.762 849.952 371.809 848.619 371.809H839.095C837.762 371.809 836.714 370.762 836.714 369.429C836.714 368.095 837.762 367.048 839.095 367.048Z" fill="#D0D4D8"/>
<path opacity="0.5" d="M843.857 376.572H848.619C849.952 376.572 851 377.619 851 378.952C851 380.286 849.952 381.333 848.619 381.333H843.857C842.524 381.333 841.476 380.286 841.476 378.952C841.476 377.619 842.524 376.572 843.857 376.572Z" fill="#D0D4D8"/>
<path opacity="0.5" d="M843.857 386.095H848.619C849.952 386.095 851 387.143 851 388.476C851 389.81 849.952 390.857 848.619 390.857H843.857C842.524 390.857 841.476 389.81 841.476 388.476C841.476 387.143 842.524 386.095 843.857 386.095Z" fill="#D0D4D8"/>
<path opacity="0.5" d="M805.762 424.19H848.619C849.952 424.19 851 425.238 851 426.571C851 427.905 849.952 428.952 848.619 428.952H805.762C804.429 428.952 803.381 427.905 803.381 426.571C803.381 425.238 804.429 424.19 805.762 424.19Z" fill="#D0D4D8"/>
<path opacity="0.5" d="M786.714 424.19H796.238C797.571 424.19 798.619 425.238 798.619 426.571C798.619 427.905 797.571 428.952 796.238 428.952H786.714C785.381 428.952 784.333 427.905 784.333 426.571C784.333 425.238 785.381 424.19 786.714 424.19Z" fill="#D0D4D8"/>
<path opacity="0.5" d="M824.81 443.238H848.619C849.953 443.238 851 444.286 851 445.619C851 446.952 849.953 448 848.619 448H824.81C823.476 448 822.429 446.952 822.429 445.619C822.429 444.286 823.476 443.238 824.81 443.238Z" fill="#D0D4D8"/>
<path opacity="0.5" d="M786.714 443.238H815.286C816.619 443.238 817.667 444.286 817.667 445.619C817.667 446.952 816.619 448 815.286 448H786.714C785.381 448 784.333 446.952 784.333 445.619C784.333 444.286 785.381 443.238 786.714 443.238Z" fill="#D0D4D8"/>
<path opacity="0.5" d="M786.714 376.572H801C802.333 376.572 803.381 377.619 803.381 378.952C803.381 380.286 802.333 381.333 801 381.333H786.714C785.381 381.333 784.333 380.286 784.333 378.952C784.333 377.619 785.381 376.572 786.714 376.572Z" fill="#D0D4D8"/>
<path opacity="0.5" d="M786.714 386.095H801C802.333 386.095 803.381 387.143 803.381 388.476C803.381 389.81 802.333 390.857 801 390.857H786.714C785.381 390.857 784.333 389.81 784.333 388.476C784.333 387.143 785.381 386.095 786.714 386.095Z" fill="#D0D4D8"/>
</g>
<defs>
<filter id="filter0_d_103_3" x="-60.1044" y="132" width="260" height="260" filterUnits="userSpaceOnUse" color-interpolation-filters="sRGB">
<feFlood flood-opacity="0" result="BackgroundImageFix"/>
<feColorMatrix in="SourceAlpha" type="matrix" values="0 0 0 0 0 0 0 0 0 0 0 0 0 0 0 0 0 0 127 0" result="hardAlpha"/>
<feOffset dy="4"/>
<feGaussianBlur stdDeviation="20"/>
<feComposite in2="hardAlpha" operator="out"/>
<feColorMatrix type="matrix" values="0 0 0 0 0.0367917 0 0 0 0 0.0348958 0 0 0 0 0.0484375 0 0 0 0.1 0"/>
<feBlend mode="normal" in2="BackgroundImageFix" result="effect1_dropShadow_103_3"/>
<feBlend mode="normal" in="SourceGraphic" in2="effect1_dropShadow_103_3" result="shape"/>
</filter>
<filter id="filter1_d_103_3" x="451.448" y="69.4058" width="260" height="260" filterUnits="userSpaceOnUse" color-interpolation-filters="sRGB">
<feFlood flood-opacity="0" result="BackgroundImageFix"/>
<feColorMatrix in="SourceAlpha" type="matrix" values="0 0 0 0 0 0 0 0 0 0 0 0 0 0 0 0 0 0 127 0" result="hardAlpha"/>
<feOffset dy="4"/>
<feGaussianBlur stdDeviation="20"/>
<feComposite in2="hardAlpha" operator="out"/>
<feColorMatrix type="matrix" values="0 0 0 0 0.0367917 0 0 0 0 0.0348958 0 0 0 0 0.0484375 0 0 0 0.1 0"/>
<feBlend mode="normal" in2="BackgroundImageFix" result="effect1_dropShadow_103_3"/>
<feBlend mode="normal" in="SourceGraphic" in2="effect1_dropShadow_103_3" result="shape"/>
</filter>
<filter id="filter2_d_103_3" x="211.724" y="268.703" width="260" height="260" filterUnits="userSpaceOnUse" color-interpolation-filters="sRGB">
<feFlood flood-opacity="0" result="BackgroundImageFix"/>
<feColorMatrix in="SourceAlpha" type="matrix" values="0 0 0 0 0 0 0 0 0 0 0 0 0 0 0 0 0 0 127 0" result="hardAlpha"/>
<feOffset dy="4"/>
<feGaussianBlur stdDeviation="20"/>
<feComposite in2="hardAlpha" operator="out"/>
<feColorMatrix type="matrix" values="0 0 0 0 0.0367917 0 0 0 0 0.0348958 0 0 0 0 0.0484375 0 0 0 0.1 0"/>
<feBlend mode="normal" in2="BackgroundImageFix" result="effect1_dropShadow_103_3"/>
<feBlend mode="normal" in="SourceGraphic" in2="effect1_dropShadow_103_3" result="shape"/>
</filter>
<filter id="filter3_d_103_3" x="191.62" y="600.703" width="260" height="260" filterUnits="userSpaceOnUse" color-interpolation-filters="sRGB">
<feFlood flood-opacity="0" result="BackgroundImageFix"/>
<feColorMatrix in="SourceAlpha" type="matrix" values="0 0 0 0 0 0 0 0 0 0 0 0 0 0 0 0 0 0 127 0" result="hardAlpha"/>
<feOffset dy="4"/>
<feGaussianBlur stdDeviation="20"/>
<feComposite in2="hardAlpha" operator="out"/>
<feColorMatrix type="matrix" values="0 0 0 0 0.0367917 0 0 0 0 0.0348958 0 0 0 0 0.0484375 0 0 0 0.1 0"/>
<feBlend mode="normal" in2="BackgroundImageFix" result="effect1_dropShadow_103_3"/>
<feBlend mode="normal" in="SourceGraphic" in2="effect1_dropShadow_103_3" result="shape"/>
</filter>
<filter id="filter4_d_103_3" x="448.067" y="488.703" width="260" height="260" filterUnits="userSpaceOnUse" color-interpolation-filters="sRGB">
<feFlood flood-opacity="0" result="BackgroundImageFix"/>
<feColorMatrix in="SourceAlpha" type="matrix" values="0 0 0 0 0 0 0 0 0 0 0 0 0 0 0 0 0 0 127 0" result="hardAlpha"/>
<feOffset dy="4"/>
<feGaussianBlur stdDeviation="20"/>
<feComposite in2="hardAlpha" operator="out"/>
<feColorMatrix type="matrix" values="0 0 0 0 0.0367917 0 0 0 0 0.0348958 0 0 0 0 0.0484375 0 0 0 0.1 0"/>
<feBlend mode="normal" in2="BackgroundImageFix" result="effect1_dropShadow_103_3"/>
<feBlend mode="normal" in="SourceGraphic" in2="effect1_dropShadow_103_3" result="shape"/>
</filter>
<filter id="filter5_d_103_3" x="192.343" y="-43" width="260" height="260" filterUnits="userSpaceOnUse" color-interpolation-filters="sRGB">
<feFlood flood-opacity="0" result="BackgroundImageFix"/>
<feColorMatrix in="SourceAlpha" type="matrix" values="0 0 0 0 0 0 0 0 0 0 0 0 0 0 0 0 0 0 127 0" result="hardAlpha"/>
<feOffset dy="4"/>
<feGaussianBlur stdDeviation="20"/>
<feComposite in2="hardAlpha" operator="out"/>
<feColorMatrix type="matrix" values="0 0 0 0 0.0367917 0 0 0 0 0.0348958 0 0 0 0 0.0484375 0 0 0 0.1 0"/>
<feBlend mode="normal" in2="BackgroundImageFix" result="effect1_dropShadow_103_3"/>
<feBlend mode="normal" in="SourceGraphic" in2="effect1_dropShadow_103_3" result="shape"/>
</filter>
<filter id="filter6_d_103_3" x="774.62" y="-36" width="260" height="260" filterUnits="userSpaceOnUse" color-interpolation-filters="sRGB">
<feFlood flood-opacity="0" result="BackgroundImageFix"/>
<feColorMatrix in="SourceAlpha" type="matrix" values="0 0 0 0 0 0 0 0 0 0 0 0 0 0 0 0 0 0 127 0" result="hardAlpha"/>
<feOffset dy="4"/>
<feGaussianBlur stdDeviation="20"/>
<feComposite in2="hardAlpha" operator="out"/>
<feColorMatrix type="matrix" values="0 0 0 0 0.0367917 0 0 0 0 0.0348958 0 0 0 0 0.0484375 0 0 0 0.1 0"/>
<feBlend mode="normal" in2="BackgroundImageFix" result="effect1_dropShadow_103_3"/>
<feBlend mode="normal" in="SourceGraphic" in2="effect1_dropShadow_103_3" result="shape"/>
</filter>
<filter id="filter7_d_103_3" x="775.172" y="579" width="260" height="260" filterUnits="userSpaceOnUse" color-interpolation-filters="sRGB">
<feFlood flood-opacity="0" result="BackgroundImageFix"/>
<feColorMatrix in="SourceAlpha" type="matrix" values="0 0 0 0 0 0 0 0 0 0 0 0 0 0 0 0 0 0 127 0" result="hardAlpha"/>
<feOffset dy="4"/>
<feGaussianBlur stdDeviation="20"/>
<feComposite in2="hardAlpha" operator="out"/>
<feColorMatrix type="matrix" values="0 0 0 0 0.0367917 0 0 0 0 0.0348958 0 0 0 0 0.0484375 0 0 0 0.1 0"/>
<feBlend mode="normal" in2="BackgroundImageFix" result="effect1_dropShadow_103_3"/>
<feBlend mode="normal" in="SourceGraphic" in2="effect1_dropShadow_103_3" result="shape"/>
</filter>
<filter id="filter8_d_103_3" x="-39.5521" y="425.406" width="260" height="260" filterUnits="userSpaceOnUse" color-interpolation-filters="sRGB">
<feFlood flood-opacity="0" result="BackgroundImageFix"/>
<feColorMatrix in="SourceAlpha" type="matrix" values="0 0 0 0 0 0 0 0 0 0 0 0 0 0 0 0 0 0 127 0" result="hardAlpha"/>
<feOffset dy="4"/>
<feGaussianBlur stdDeviation="20"/>
<feComposite in2="hardAlpha" operator="out"/>
<feColorMatrix type="matrix" values="0 0 0 0 0.0367917 0 0 0 0 0.0348958 0 0 0 0 0.0484375 0 0 0 0.1 0"/>
<feBlend mode="normal" in2="BackgroundImageFix" result="effect1_dropShadow_103_3"/>
<feBlend mode="normal" in="SourceGraphic" in2="effect1_dropShadow_103_3" result="shape"/>
</filter>
<filter id="filter9_d_103_3" x="671.172" y="272.406" width="260" height="260" filterUnits="userSpaceOnUse" color-interpolation-filters="sRGB">
<feFlood flood-opacity="0" result="BackgroundImageFix"/>
<feColorMatrix in="SourceAlpha" type="matrix" values="0 0 0 0 0 0 0 0 0 0 0 0 0 0 0 0 0 0 127 0" result="hardAlpha"/>
<feOffset dy="4"/>
<feGaussianBlur stdDeviation="20"/>
<feComposite in2="hardAlpha" operator="out"/>
<feColorMatrix type="matrix" values="0 0 0 0 0.0367917 0 0 0 0 0.0348958 0 0 0 0 0.0484375 0 0 0 0.1 0"/>
<feBlend mode="normal" in2="BackgroundImageFix" result="effect1_dropShadow_103_3"/>
<feBlend mode="normal" in="SourceGraphic" in2="effect1_dropShadow_103_3" result="shape"/>
</filter>
<clipPath id="clip0_103_3">
<rect width="999" height="800" fill="white"/>
</clipPath>
</defs>
</svg>
