<svg width="1000" height="800" viewBox="0 0 1000 800" fill="none" xmlns="http://www.w3.org/2000/svg">
<g clip-path="url(#clip0_103_2)">
<g filter="url(#filter0_d_103_2)">
<path d="M0.171753 70.4058C0.171753 40.2359 0.171753 25.1509 9.54434 15.7783C18.9169 6.40576 34.0019 6.40576 64.1718 6.40576H116.172C146.342 6.40576 161.427 6.40576 170.799 15.7783C180.172 25.1509 180.172 40.2359 180.172 70.4058V122.406C180.172 152.576 180.172 167.661 170.799 177.033C161.427 186.406 146.342 186.406 116.172 186.406H64.1717C34.0019 186.406 18.9169 186.406 9.54434 177.033C0.171753 167.661 0.171753 152.576 0.171753 122.406V70.4058Z" fill="white"/>
<path d="M9.54434 177.033L8.83723 177.74L9.54434 177.033ZM170.799 177.033L170.092 176.326L170.799 177.033ZM170.799 15.7783L171.506 15.0712L170.799 15.7783ZM64.1718 7.40576H116.172V5.40576H64.1718V7.40576ZM179.172 70.4058V122.406H181.172V70.4058H179.172ZM116.172 185.406H64.1717V187.406H116.172V185.406ZM1.17175 122.406V70.4058H-0.828247V122.406H1.17175ZM64.1717 185.406C49.0585 185.406 37.8242 185.404 29.1923 184.243C20.5891 183.086 14.721 180.796 10.2514 176.326L8.83723 177.74C13.7403 182.643 20.1009 185.039 28.9258 186.225C37.722 187.408 49.1151 187.406 64.1717 187.406V185.406ZM-0.828247 122.406C-0.828247 137.462 -0.830371 148.856 0.352243 157.652C1.53872 166.477 3.93417 172.837 8.83723 177.74L10.2514 176.326C5.78192 171.857 3.49107 165.988 2.33441 157.385C1.17388 148.753 1.17175 137.519 1.17175 122.406H-0.828247ZM179.172 122.406C179.172 137.519 179.17 148.753 178.009 157.385C176.852 165.988 174.562 171.857 170.092 176.326L171.506 177.74C176.409 172.837 178.805 166.477 179.991 157.652C181.174 148.856 181.172 137.462 181.172 122.406H179.172ZM116.172 187.406C131.228 187.406 142.622 187.408 151.418 186.225C160.243 185.039 166.603 182.643 171.506 177.74L170.092 176.326C165.623 180.796 159.754 183.086 151.151 184.243C142.519 185.404 131.285 185.406 116.172 185.406V187.406ZM116.172 7.40576C131.285 7.40576 142.519 7.40789 151.151 8.56842C159.754 9.72508 165.623 12.0159 170.092 16.4855L171.506 15.0712C166.603 10.1682 160.243 7.77273 151.418 6.58625C142.622 5.40364 131.228 5.40576 116.172 5.40576V7.40576ZM181.172 70.4058C181.172 55.3491 181.174 43.956 179.991 35.1598C178.805 26.3349 176.409 19.9743 171.506 15.0712L170.092 16.4855C174.562 20.955 176.852 26.8232 178.009 35.4263C179.17 44.0582 179.172 55.2925 179.172 70.4058H181.172ZM64.1718 5.40576C49.1151 5.40576 37.722 5.40364 28.9258 6.58625C20.1009 7.77273 13.7403 10.1682 8.83723 15.0712L10.2514 16.4855C14.721 12.0159 20.5891 9.72508 29.1923 8.56842C37.8242 7.40789 49.0585 7.40576 64.1718 7.40576V5.40576ZM1.17175 70.4058C1.17175 55.2925 1.17388 44.0582 2.33441 35.4263C3.49107 26.8232 5.78192 20.955 10.2514 16.4855L8.83723 15.0712C3.93417 19.9743 1.53872 26.3349 0.352243 35.1598C-0.830371 43.956 -0.828247 55.3491 -0.828247 70.4058H1.17175Z" fill="#D9D9D9"/>
</g>
<path d="M140 46H40V146H140V46Z" fill="#F7DF1E"/>
<path d="M107.175 124.125C109.189 127.414 111.809 129.832 116.444 129.832C120.338 129.832 122.825 127.886 122.825 125.197C122.825 121.975 120.27 120.833 115.984 118.959L113.635 117.951C106.854 115.062 102.349 111.443 102.349 103.792C102.349 96.7445 107.719 91.3794 116.111 91.3794C122.086 91.3794 126.381 93.4588 129.476 98.9032L122.159 103.602C120.548 100.713 118.809 99.5746 116.111 99.5746C113.359 99.5746 111.614 101.321 111.614 103.602C111.614 106.421 113.36 107.562 117.392 109.308L119.741 110.314C127.725 113.738 132.233 117.229 132.233 125.076C132.233 133.537 125.587 138.171 116.662 138.171C107.935 138.171 102.297 134.013 99.538 128.562L107.175 124.125ZM73.9793 124.94C75.4555 127.559 76.7983 129.773 80.0269 129.773C83.1142 129.773 85.0618 128.565 85.0618 123.868V91.9159H94.4586V123.995C94.4586 133.725 88.7539 138.154 80.4269 138.154C72.9031 138.154 68.546 134.26 66.3301 129.571L73.9793 124.94Z" fill="black"/>
<g filter="url(#filter1_d_103_2)">
<path d="M279.172 154.406C279.172 124.236 279.172 109.151 288.544 99.7783C297.917 90.4058 313.002 90.4058 343.172 90.4058H395.172C425.342 90.4058 440.427 90.4058 449.799 99.7783C459.172 109.151 459.172 124.236 459.172 154.406V206.406C459.172 236.576 459.172 251.661 449.799 261.033C440.427 270.406 425.342 270.406 395.172 270.406H343.172C313.002 270.406 297.917 270.406 288.544 261.033C279.172 251.661 279.172 236.576 279.172 206.406V154.406Z" fill="white"/>
<path d="M288.544 261.033L287.837 261.74L288.544 261.033ZM449.799 261.033L449.092 260.326L449.799 261.033ZM449.799 99.7783L450.506 99.0712L449.799 99.7783ZM343.172 91.4058H395.172V89.4058H343.172V91.4058ZM458.172 154.406V206.406H460.172V154.406H458.172ZM395.172 269.406H343.172V271.406H395.172V269.406ZM280.172 206.406V154.406H278.172V206.406H280.172ZM343.172 269.406C328.059 269.406 316.824 269.404 308.192 268.243C299.589 267.086 293.721 264.796 289.251 260.326L287.837 261.74C292.74 266.643 299.101 269.039 307.926 270.225C316.722 271.408 328.115 271.406 343.172 271.406V269.406ZM278.172 206.406C278.172 221.462 278.17 232.856 279.352 241.652C280.539 250.477 282.934 256.837 287.837 261.74L289.251 260.326C284.782 255.857 282.491 249.988 281.334 241.385C280.174 232.753 280.172 221.519 280.172 206.406H278.172ZM458.172 206.406C458.172 221.519 458.17 232.753 457.009 241.385C455.852 249.988 453.562 255.857 449.092 260.326L450.506 261.74C455.409 256.837 457.805 250.477 458.991 241.652C460.174 232.856 460.172 221.462 460.172 206.406H458.172ZM395.172 271.406C410.228 271.406 421.622 271.408 430.418 270.225C439.243 269.039 445.603 266.643 450.506 261.74L449.092 260.326C444.623 264.796 438.754 267.086 430.151 268.243C421.519 269.404 410.285 269.406 395.172 269.406V271.406ZM395.172 91.4058C410.285 91.4058 421.519 91.4079 430.151 92.5684C438.754 93.7251 444.623 96.0159 449.092 100.485L450.506 99.0712C445.603 94.1682 439.243 91.7727 430.418 90.5863C421.622 89.4036 410.228 89.4058 395.172 89.4058V91.4058ZM460.172 154.406C460.172 139.349 460.174 127.956 458.991 119.16C457.805 110.335 455.409 103.974 450.506 99.0712L449.092 100.485C453.562 104.955 455.852 110.823 457.009 119.426C458.17 128.058 458.172 139.293 458.172 154.406H460.172ZM343.172 89.4058C328.115 89.4058 316.722 89.4036 307.926 90.5863C299.101 91.7727 292.74 94.1682 287.837 99.0712L289.251 100.485C293.721 96.0159 299.589 93.7251 308.192 92.5684C316.824 91.4079 328.059 91.4058 343.172 91.4058V89.4058ZM280.172 154.406C280.172 139.293 280.174 128.058 281.334 119.426C282.491 110.823 284.782 104.955 289.251 100.485L287.837 99.0712C282.934 103.974 280.539 110.335 279.352 119.16C278.17 127.956 278.172 139.349 278.172 154.406H280.172Z" fill="#D9D9D9"/>
</g>
<path d="M418.014 171.209C417.743 170.994 415.211 169.082 409.871 169.082C408.461 169.088 407.055 169.209 405.664 169.444C404.631 162.361 398.775 158.907 398.512 158.752L397.079 157.926L396.136 159.286C394.955 161.114 394.093 163.129 393.586 165.246C392.63 169.289 393.212 173.087 395.266 176.333C392.786 177.715 388.807 178.056 388.002 178.086H322.13C320.41 178.088 319.014 179.479 319.004 181.199C318.927 186.97 319.905 192.706 321.889 198.125C324.158 204.076 327.534 208.46 331.926 211.142C336.848 214.156 344.844 215.879 353.908 215.879C358.002 215.891 362.089 215.521 366.115 214.772C371.711 213.744 377.096 211.789 382.047 208.985C386.126 206.622 389.798 203.617 392.919 200.084C398.138 194.177 401.247 187.597 403.559 181.75H404.48C410.194 181.75 413.708 179.464 415.646 177.548C416.933 176.325 417.939 174.837 418.591 173.186L419 171.989L418.014 171.209Z" fill="#2496ED"/>
<path d="M328.236 176.157H337.063C337.489 176.157 337.834 175.812 337.834 175.386V167.523C337.836 167.098 337.493 166.751 337.067 166.748C337.066 166.748 337.064 166.748 337.063 166.748H328.236C327.81 166.748 327.465 167.094 327.465 167.519V167.523V175.386C327.465 175.812 327.81 176.157 328.236 176.157Z" fill="#2496ED"/>
<path d="M340.4 176.157H349.227C349.653 176.157 349.998 175.812 349.998 175.386V167.523C350 167.098 349.657 166.751 349.231 166.748C349.23 166.748 349.229 166.748 349.227 166.748H340.4C339.972 166.748 339.625 167.095 339.625 167.523V175.386C339.628 175.812 339.974 176.157 340.4 176.157Z" fill="#2496ED"/>
<path d="M352.749 176.157H361.576C362.002 176.157 362.347 175.812 362.347 175.386V167.523C362.35 167.098 362.006 166.751 361.581 166.748C361.579 166.748 361.578 166.748 361.576 166.748H352.749C352.323 166.748 351.979 167.094 351.979 167.519V167.523V175.386C351.979 175.812 352.324 176.157 352.749 176.157Z" fill="#2496ED"/>
<path d="M364.952 176.157H373.779C374.206 176.157 374.552 175.813 374.554 175.386V167.523C374.554 167.095 374.208 166.748 373.779 166.748H364.952C364.527 166.748 364.182 167.094 364.182 167.519V167.523V175.386C364.182 175.812 364.527 176.157 364.952 176.157Z" fill="#2496ED"/>
<path d="M340.4 164.845H349.227C349.654 164.843 349.998 164.497 349.998 164.07V156.208C349.998 155.782 349.653 155.437 349.227 155.437H340.4C339.974 155.437 339.628 155.781 339.625 156.208V164.07C339.628 164.497 339.973 164.843 340.4 164.845Z" fill="#2496ED"/>
<path d="M352.749 164.845H361.576C362.003 164.843 362.347 164.497 362.347 164.07V156.208C362.347 155.782 362.002 155.437 361.576 155.437H352.749C352.324 155.437 351.979 155.782 351.979 156.208V164.07C351.979 164.497 352.323 164.843 352.749 164.845Z" fill="#2496ED"/>
<path d="M364.952 164.845H373.779C374.207 164.843 374.552 164.497 374.554 164.07V156.208C374.552 155.781 374.206 155.437 373.779 155.437H364.952C364.527 155.437 364.182 155.782 364.182 156.208V164.07C364.182 164.497 364.526 164.843 364.952 164.845Z" fill="#2496ED"/>
<path d="M364.952 153.53H373.779C374.206 153.53 374.552 153.185 374.554 152.759V144.892C374.552 144.465 374.206 144.121 373.779 144.121H364.952C364.527 144.121 364.182 144.466 364.182 144.892V152.759C364.182 153.184 364.527 153.53 364.952 153.53Z" fill="#2496ED"/>
<path d="M377.263 176.157H386.09C386.516 176.157 386.863 175.813 386.865 175.386V167.523C386.865 167.095 386.518 166.748 386.09 166.748H377.263C376.837 166.748 376.492 167.094 376.492 167.519V167.523V175.386C376.492 175.812 376.837 176.157 377.263 176.157Z" fill="#2496ED"/>
<g filter="url(#filter2_d_103_2)">
<path d="M274.172 544.406C274.172 514.236 274.172 499.151 283.544 489.778C292.917 480.406 308.002 480.406 338.172 480.406H390.172C420.342 480.406 435.427 480.406 444.799 489.778C454.172 499.151 454.172 514.236 454.172 544.406V596.406C454.172 626.576 454.172 641.661 444.799 651.033C435.427 660.406 420.342 660.406 390.172 660.406H338.172C308.002 660.406 292.917 660.406 283.544 651.033C274.172 641.661 274.172 626.576 274.172 596.406V544.406Z" fill="white"/>
<path d="M283.544 651.033L282.837 651.74L283.544 651.033ZM444.799 651.033L444.092 650.326L444.799 651.033ZM444.799 489.778L445.506 489.071L444.799 489.778ZM338.172 481.406H390.172V479.406H338.172V481.406ZM453.172 544.406V596.406H455.172V544.406H453.172ZM390.172 659.406H338.172V661.406H390.172V659.406ZM275.172 596.406V544.406H273.172V596.406H275.172ZM338.172 659.406C323.059 659.406 311.824 659.404 303.192 658.243C294.589 657.086 288.721 654.796 284.251 650.326L282.837 651.74C287.74 656.643 294.101 659.039 302.926 660.225C311.722 661.408 323.115 661.406 338.172 661.406V659.406ZM273.172 596.406C273.172 611.462 273.17 622.856 274.352 631.652C275.539 640.477 277.934 646.837 282.837 651.74L284.251 650.326C279.782 645.857 277.491 639.988 276.334 631.385C275.174 622.753 275.172 611.519 275.172 596.406H273.172ZM453.172 596.406C453.172 611.519 453.17 622.753 452.009 631.385C450.852 639.988 448.562 645.857 444.092 650.326L445.506 651.74C450.409 646.837 452.805 640.477 453.991 631.652C455.174 622.856 455.172 611.462 455.172 596.406H453.172ZM390.172 661.406C405.228 661.406 416.622 661.408 425.418 660.225C434.243 659.039 440.603 656.643 445.506 651.74L444.092 650.326C439.623 654.796 433.754 657.086 425.151 658.243C416.519 659.404 405.285 659.406 390.172 659.406V661.406ZM390.172 481.406C405.285 481.406 416.519 481.408 425.151 482.568C433.754 483.725 439.623 486.016 444.092 490.485L445.506 489.071C440.603 484.168 434.243 481.773 425.418 480.586C416.622 479.404 405.228 479.406 390.172 479.406V481.406ZM455.172 544.406C455.172 529.349 455.174 517.956 453.991 509.16C452.805 500.335 450.409 493.974 445.506 489.071L444.092 490.485C448.562 494.955 450.852 500.823 452.009 509.426C453.17 518.058 453.172 529.293 453.172 544.406H455.172ZM338.172 479.406C323.115 479.406 311.722 479.404 302.926 480.586C294.101 481.773 287.74 484.168 282.837 489.071L284.251 490.485C288.721 486.016 294.589 483.725 303.192 482.568C311.824 481.408 323.059 481.406 338.172 481.406V479.406ZM275.172 544.406C275.172 529.293 275.174 518.058 276.334 509.426C277.491 500.823 279.782 494.955 284.251 490.485L282.837 489.071C277.934 493.974 275.539 500.335 274.352 509.16C273.17 517.956 273.172 529.349 273.172 544.406H275.172Z" fill="#D9D9D9"/>
</g>
<path d="M412.114 565.545L368.453 521.886C365.94 519.371 361.862 519.371 359.346 521.886L350.28 530.952L361.781 542.454C364.454 541.55 367.518 542.156 369.649 544.287C371.789 546.431 372.391 549.522 371.466 552.203L382.55 563.287C385.232 562.364 388.326 562.961 390.468 565.107C393.461 568.099 393.461 572.948 390.468 575.943C387.473 578.937 382.624 578.937 379.628 575.943C377.377 573.689 376.82 570.382 377.96 567.608L367.623 557.271L367.622 584.473C368.372 584.844 369.056 585.333 369.649 585.923C372.642 588.915 372.642 593.765 369.649 596.761C366.655 599.754 361.803 599.754 358.813 596.761C355.82 593.765 355.82 588.915 358.813 585.923C359.53 585.205 360.383 584.637 361.321 584.251V556.795C360.381 556.412 359.528 555.843 358.813 555.123C356.545 552.858 356 549.53 357.162 546.746L345.824 535.407L315.887 565.343C313.371 567.859 313.371 571.938 315.887 574.453L359.548 618.112C362.062 620.627 366.139 620.627 368.656 618.112L412.114 574.655C414.629 572.14 414.629 568.059 412.114 565.545" fill="#DE4C36"/>
<g filter="url(#filter3_d_103_2)">
<path d="M71.3434 357.406C71.3434 327.236 71.3434 312.151 80.716 302.778C90.0886 293.406 105.173 293.406 135.343 293.406H187.343C217.513 293.406 232.598 293.406 241.971 302.778C251.343 312.151 251.343 327.236 251.343 357.406V409.406C251.343 439.576 251.343 454.661 241.971 464.033C232.598 473.406 217.513 473.406 187.343 473.406H135.343C105.173 473.406 90.0886 473.406 80.716 464.033C71.3434 454.661 71.3434 439.576 71.3434 409.406V357.406Z" fill="white"/>
<path d="M80.716 464.033L80.0089 464.74L80.716 464.033ZM241.971 464.033L241.264 463.326L241.971 464.033ZM241.971 302.778L242.678 302.071L241.971 302.778ZM135.343 294.406H187.343V292.406H135.343V294.406ZM250.343 357.406V409.406H252.343V357.406H250.343ZM187.343 472.406H135.343V474.406H187.343V472.406ZM72.3434 409.406V357.406H70.3434V409.406H72.3434ZM135.343 472.406C120.23 472.406 108.996 472.404 100.364 471.243C91.7608 470.086 85.8926 467.796 81.4231 463.326L80.0089 464.74C84.9119 469.643 91.2725 472.039 100.097 473.225C108.894 474.408 120.287 474.406 135.343 474.406V472.406ZM70.3434 409.406C70.3434 424.462 70.3413 435.856 71.5239 444.652C72.7104 453.477 75.1058 459.837 80.0089 464.74L81.4231 463.326C76.9536 458.857 74.6627 452.988 73.506 444.385C72.3455 435.753 72.3434 424.519 72.3434 409.406H70.3434ZM250.343 409.406C250.343 424.519 250.341 435.753 249.181 444.385C248.024 452.988 245.733 458.857 241.264 463.326L242.678 464.74C247.581 459.837 249.976 453.477 251.163 444.652C252.346 435.856 252.343 424.462 252.343 409.406H250.343ZM187.343 474.406C202.4 474.406 213.793 474.408 222.589 473.225C231.414 472.039 237.775 469.643 242.678 464.74L241.264 463.326C236.794 467.796 230.926 470.086 222.323 471.243C213.691 472.404 202.457 472.406 187.343 472.406V474.406ZM187.343 294.406C202.457 294.406 213.691 294.408 222.323 295.568C230.926 296.725 236.794 299.016 241.264 303.485L242.678 302.071C237.775 297.168 231.414 294.773 222.589 293.586C213.793 292.404 202.4 292.406 187.343 292.406V294.406ZM252.343 357.406C252.343 342.349 252.346 330.956 251.163 322.16C249.976 313.335 247.581 306.974 242.678 302.071L241.264 303.485C245.733 307.955 248.024 313.823 249.181 322.426C250.341 331.058 250.343 342.293 250.343 357.406H252.343ZM135.343 292.406C120.287 292.406 108.894 292.404 100.097 293.586C91.2725 294.773 84.9119 297.168 80.0089 302.071L81.4231 303.485C85.8926 299.016 91.7608 296.725 100.364 295.568C108.996 294.408 120.23 294.406 135.343 294.406V292.406ZM72.3434 357.406C72.3434 342.293 72.3455 331.058 73.506 322.426C74.6627 313.823 76.9536 307.955 81.4231 303.485L80.0089 302.071C75.1058 306.974 72.7104 313.335 71.5239 322.16C70.3413 330.956 70.3434 342.349 70.3434 357.406H72.3434Z" fill="#D9D9D9"/>
</g>
<path d="M111 333H211V433H111V333Z" fill="#017ACB"/>
<path d="M159.016 370.031H163.813V378.312H150.844V415.156L150.5 415.25C150.031 415.375 143.859 415.375 142.531 415.234L141.469 415.141V378.312H128.5V370.031L132.609 369.984C134.859 369.953 140.641 369.953 145.453 369.984C150.266 370.016 156.359 370.031 159.016 370.031ZM195.625 411.25C193.719 413.266 191.672 414.391 188.266 415.312C186.781 415.719 186.531 415.734 183.188 415.719C179.844 415.703 179.578 415.703 177.953 415.281C173.75 414.203 170.359 412.094 168.047 409.109C167.391 408.266 166.313 406.516 166.313 406.297C166.313 406.234 166.469 406.094 166.672 406C166.875 405.906 167.297 405.641 167.641 405.437C167.984 405.234 168.609 404.859 169.031 404.641C169.453 404.422 170.672 403.703 171.734 403.062C172.797 402.422 173.766 401.906 173.875 401.906C173.984 401.906 174.188 402.125 174.344 402.391C175.281 403.969 177.469 405.984 179.016 406.672C179.969 407.078 182.078 407.531 183.094 407.531C184.031 407.531 185.75 407.125 186.672 406.703C187.656 406.25 188.156 405.797 188.75 404.891C189.156 404.25 189.203 404.078 189.188 402.859C189.188 401.734 189.125 401.422 188.813 400.906C187.938 399.469 186.75 398.719 181.938 396.594C176.969 394.391 174.734 393.078 172.922 391.312C171.578 390 171.313 389.641 170.469 388C169.375 385.891 169.234 385.203 169.219 382.062C169.203 379.859 169.25 379.141 169.484 378.391C169.813 377.266 170.875 375.094 171.359 374.547C172.359 373.375 172.719 373.016 173.422 372.437C175.547 370.687 178.859 369.531 182.031 369.422C182.391 369.422 183.578 369.484 184.688 369.562C187.875 369.828 190.047 370.609 192.141 372.281C193.719 373.531 196.109 376.469 195.875 376.859C195.719 377.094 189.484 381.25 189.078 381.375C188.828 381.453 188.656 381.359 188.313 380.953C186.188 378.406 185.328 377.859 183.266 377.734C181.797 377.641 181.016 377.812 180.031 378.469C179 379.156 178.5 380.203 178.5 381.656C178.516 383.781 179.328 384.781 182.328 386.266C184.266 387.219 185.922 388 186.047 388C186.234 388 190.25 390 191.297 390.625C196.172 393.484 198.156 396.422 198.672 401.484C199.047 405.297 197.969 408.781 195.625 411.25Z" fill="white"/>
<g filter="url(#filter4_d_103_2)">
<path d="M842.067 603.406C842.067 573.236 842.067 558.151 851.44 548.778C860.812 539.406 875.897 539.406 906.067 539.406H958.067C988.237 539.406 1003.32 539.406 1012.69 548.778C1022.07 558.151 1022.07 573.236 1022.07 603.406V655.406C1022.07 685.576 1022.07 700.661 1012.69 710.033C1003.32 719.406 988.237 719.406 958.067 719.406H906.067C875.897 719.406 860.812 719.406 851.44 710.033C842.067 700.661 842.067 685.576 842.067 655.406V603.406Z" fill="white"/>
<path d="M851.44 710.033L850.733 710.74L851.44 710.033ZM1012.69 710.033L1011.99 709.326L1012.69 710.033ZM1012.69 548.778L1013.4 548.071L1012.69 548.778ZM906.067 540.406H958.067V538.406H906.067V540.406ZM1021.07 603.406V655.406H1023.07V603.406H1021.07ZM958.067 718.406H906.067V720.406H958.067V718.406ZM843.067 655.406V603.406H841.067V655.406H843.067ZM906.067 718.406C890.954 718.406 879.72 718.404 871.088 717.243C862.485 716.086 856.616 713.796 852.147 709.326L850.733 710.74C855.636 715.643 861.996 718.039 870.821 719.225C879.617 720.408 891.011 720.406 906.067 720.406V718.406ZM841.067 655.406C841.067 670.462 841.065 681.856 842.248 690.652C843.434 699.477 845.83 705.837 850.733 710.74L852.147 709.326C847.677 704.857 845.387 698.988 844.23 690.385C843.069 681.753 843.067 670.519 843.067 655.406H841.067ZM1021.07 655.406C1021.07 670.519 1021.07 681.753 1019.9 690.385C1018.75 698.988 1016.46 704.857 1011.99 709.326L1013.4 710.74C1018.3 705.837 1020.7 699.477 1021.89 690.652C1023.07 681.856 1023.07 670.462 1023.07 655.406H1021.07ZM958.067 720.406C973.124 720.406 984.517 720.408 993.313 719.225C1002.14 718.039 1008.5 715.643 1013.4 710.74L1011.99 709.326C1007.52 713.796 1001.65 716.086 993.047 717.243C984.415 718.404 973.18 718.406 958.067 718.406V720.406ZM958.067 540.406C973.18 540.406 984.415 540.408 993.047 541.568C1001.65 542.725 1007.52 545.016 1011.99 549.485L1013.4 548.071C1008.5 543.168 1002.14 540.773 993.313 539.586C984.517 538.404 973.124 538.406 958.067 538.406V540.406ZM1023.07 603.406C1023.07 588.349 1023.07 576.956 1021.89 568.16C1020.7 559.335 1018.3 552.974 1013.4 548.071L1011.99 549.485C1016.46 553.955 1018.75 559.823 1019.9 568.426C1021.07 577.058 1021.07 588.293 1021.07 603.406H1023.07ZM906.067 538.406C891.011 538.406 879.617 538.404 870.821 539.586C861.996 540.773 855.636 543.168 850.733 548.071L852.147 549.485C856.616 545.016 862.485 542.725 871.088 541.568C879.72 540.408 890.954 540.406 906.067 540.406V538.406ZM843.067 603.406C843.067 588.293 843.069 577.058 844.23 568.426C845.387 559.823 847.677 553.955 852.147 549.485L850.733 548.071C845.83 552.974 843.434 559.335 842.248 568.16C841.065 576.956 841.067 588.349 841.067 603.406H843.067Z" fill="#D9D9D9"/>
</g>
<path fill-rule="evenodd" clip-rule="evenodd" d="M902.77 589.17C897.064 589.17 892.842 594.164 893.031 599.58C893.213 604.783 892.977 611.522 891.281 617.018C889.578 622.529 886.701 626.021 882 626.47V631.53C886.701 631.98 889.578 635.47 891.28 640.982C892.977 646.478 893.213 653.217 893.031 658.42C892.842 663.836 897.064 668.83 902.771 668.83H961.237C966.943 668.83 971.164 663.836 970.975 658.42C970.794 653.217 971.03 646.478 972.726 640.982C974.429 635.47 977.299 631.978 982 631.53V626.47C977.299 626.02 974.429 622.53 972.726 617.018C971.029 611.523 970.794 604.783 970.975 599.58C971.164 594.164 966.943 589.17 961.237 589.17H902.77H902.77ZM949.797 638.206C949.797 645.664 944.234 650.187 935.003 650.187H919.288C918.839 650.187 918.407 650.008 918.09 649.69C917.772 649.372 917.593 648.941 917.593 648.492V609.509C917.593 609.059 917.772 608.628 918.09 608.31C918.407 607.992 918.839 607.814 919.288 607.814H934.913C942.611 607.814 947.662 611.983 947.662 618.385C947.662 622.878 944.264 626.9 939.934 627.605V627.839C945.828 628.486 949.797 632.568 949.797 638.206ZM933.289 613.187H924.329V625.843H931.876C937.71 625.843 940.926 623.494 940.926 619.295C940.926 615.359 938.16 613.187 933.289 613.187ZM924.329 630.864V644.812H933.619C939.693 644.812 942.91 642.375 942.91 637.794C942.91 633.214 939.603 630.864 933.228 630.864H924.329V630.864Z" fill="#7952B3"/>
<g filter="url(#filter5_d_103_2)">
<path d="M549.343 397.406C549.343 367.236 549.343 352.151 558.716 342.778C568.089 333.406 583.173 333.406 613.343 333.406H665.343C695.513 333.406 710.598 333.406 719.971 342.778C729.343 352.151 729.343 367.236 729.343 397.406V449.406C729.343 479.576 729.343 494.661 719.971 504.033C710.598 513.406 695.513 513.406 665.343 513.406H613.343C583.173 513.406 568.089 513.406 558.716 504.033C549.343 494.661 549.343 479.576 549.343 449.406V397.406Z" fill="white"/>
<path d="M558.716 504.033L558.009 504.74L558.716 504.033ZM719.971 504.033L719.264 503.326L719.971 504.033ZM719.971 342.778L720.678 342.071L719.971 342.778ZM613.343 334.406H665.343V332.406H613.343V334.406ZM728.343 397.406V449.406H730.343V397.406H728.343ZM665.343 512.406H613.343V514.406H665.343V512.406ZM550.343 449.406V397.406H548.343V449.406H550.343ZM613.343 512.406C598.23 512.406 586.996 512.404 578.364 511.243C569.761 510.086 563.893 507.796 559.423 503.326L558.009 504.74C562.912 509.643 569.273 512.039 578.097 513.225C586.894 514.408 598.287 514.406 613.343 514.406V512.406ZM548.343 449.406C548.343 464.462 548.341 475.856 549.524 484.652C550.71 493.477 553.106 499.837 558.009 504.74L559.423 503.326C554.954 498.857 552.663 492.988 551.506 484.385C550.346 475.753 550.343 464.519 550.343 449.406H548.343ZM728.343 449.406C728.343 464.519 728.341 475.753 727.181 484.385C726.024 492.988 723.733 498.857 719.264 503.326L720.678 504.74C725.581 499.837 727.976 493.477 729.163 484.652C730.346 475.856 730.343 464.462 730.343 449.406H728.343ZM665.343 514.406C680.4 514.406 691.793 514.408 700.589 513.225C709.414 512.039 715.775 509.643 720.678 504.74L719.264 503.326C714.794 507.796 708.926 510.086 700.323 511.243C691.691 512.404 680.457 512.406 665.343 512.406V514.406ZM665.343 334.406C680.457 334.406 691.691 334.408 700.323 335.568C708.926 336.725 714.794 339.016 719.264 343.485L720.678 342.071C715.775 337.168 709.414 334.773 700.589 333.586C691.793 332.404 680.4 332.406 665.343 332.406V334.406ZM730.343 397.406C730.343 382.349 730.346 370.956 729.163 362.16C727.976 353.335 725.581 346.974 720.678 342.071L719.264 343.485C723.733 347.955 726.024 353.823 727.181 362.426C728.341 371.058 728.343 382.293 728.343 397.406H730.343ZM613.343 332.406C598.287 332.406 586.894 332.404 578.097 333.586C569.273 334.773 562.912 337.168 558.009 342.071L559.423 343.485C563.893 339.016 569.761 336.725 578.364 335.568C586.996 334.408 598.23 334.406 613.343 334.406V332.406ZM550.343 397.406C550.343 382.293 550.346 371.058 551.506 362.426C552.663 353.823 554.954 347.955 559.423 343.485L558.009 342.071C553.106 346.974 550.71 353.335 549.524 362.16C548.341 370.956 548.343 382.349 548.343 397.406H550.343Z" fill="#D9D9D9"/>
</g>
<path d="M638.87 373.009C638.87 373.009 668.239 371.687 683.805 401.203H636.373C636.373 401.203 627.415 400.908 619.779 411.776C617.577 416.329 615.228 421.028 617.87 430.278C614.053 423.818 597.605 395.183 597.605 395.183C597.605 395.183 609.208 374.183 638.87 373.009Z" fill="#C6352E"/>
<path d="M682.276 447.949C682.276 447.949 668.732 474.041 635.388 472.758C639.501 465.638 659.109 431.685 659.109 431.685C659.109 431.685 663.843 424.075 658.253 412.028C655.412 407.843 652.518 403.459 643.185 401.121C650.691 401.046 683.711 401.126 683.711 401.126C683.711 401.126 696.093 421.674 682.276 447.949Z" fill="#F4D911"/>
<path d="M595.674 448.147C595.674 448.147 579.85 423.369 597.635 395.135C601.745 402.257 621.342 436.217 621.342 436.217C621.342 436.217 625.564 444.122 638.793 445.305C643.836 444.937 649.082 444.624 655.773 437.711C652.084 444.247 635.503 472.804 635.503 472.804C635.503 472.804 611.517 473.252 595.674 448.147Z" fill="#81B354"/>
<path d="M635.388 473L642.059 445.159C642.059 445.159 649.395 444.587 655.542 437.84C651.726 444.553 635.388 473 635.388 473Z" fill="#7BAA50"/>
<path d="M616.525 423.312C616.525 411.038 626.473 401.089 638.748 401.089C651.021 401.089 660.97 411.038 660.97 423.312C660.97 435.585 651.021 445.535 638.748 445.535C626.473 445.535 616.525 435.586 616.525 423.312Z" fill="white"/>
<path d="M620.244 423.312C620.244 413.093 628.528 404.809 638.748 404.809C648.966 404.809 657.25 413.093 657.25 423.312C657.25 433.53 648.966 441.815 638.748 441.815C628.528 441.815 620.244 433.53 620.244 423.312Z" fill="url(#paint0_linear_103_2)"/>
<path d="M683.711 401.126L656.238 409.181C656.238 409.181 652.095 403.101 643.184 401.121C650.905 401.095 683.711 401.126 683.711 401.126Z" fill="#E7CE12"/>
<path d="M617.336 429.279C613.475 422.592 597.606 395.182 597.606 395.182L617.958 415.314C617.958 415.314 615.866 419.616 616.659 425.761L617.336 429.279Z" fill="#BC332C"/>
<g filter="url(#filter6_d_103_2)">
<path d="M548.896 64.4058C548.896 34.2359 548.896 19.1509 558.268 9.77835C567.641 0.405762 582.726 0.405762 612.896 0.405762H664.896C695.066 0.405762 710.15 0.405762 719.523 9.77835C728.896 19.1509 728.896 34.2359 728.896 64.4058V116.406C728.896 146.576 728.896 161.661 719.523 171.033C710.15 180.406 695.066 180.406 664.896 180.406H612.896C582.726 180.406 567.641 180.406 558.268 171.033C548.896 161.661 548.896 146.576 548.896 116.406V64.4058Z" fill="white"/>
<path d="M558.268 171.033L557.561 171.74L558.268 171.033ZM719.523 171.033L718.816 170.326L719.523 171.033ZM719.523 9.77835L720.23 9.07124L719.523 9.77835ZM612.896 1.40576H664.896V-0.594238H612.896V1.40576ZM727.896 64.4058V116.406H729.896V64.4058H727.896ZM664.896 179.406H612.896V181.406H664.896V179.406ZM549.896 116.406V64.4058H547.896V116.406H549.896ZM612.896 179.406C597.782 179.406 586.548 179.404 577.916 178.243C569.313 177.086 563.445 174.796 558.975 170.326L557.561 171.74C562.464 176.643 568.825 179.039 577.65 180.225C586.446 181.408 597.839 181.406 612.896 181.406V179.406ZM547.896 116.406C547.896 131.462 547.894 142.856 549.076 151.652C550.263 160.477 552.658 166.837 557.561 171.74L558.975 170.326C554.506 165.857 552.215 159.988 551.058 151.385C549.898 142.753 549.896 131.519 549.896 116.406H547.896ZM727.896 116.406C727.896 131.519 727.894 142.753 726.733 151.385C725.576 159.988 723.285 165.857 718.816 170.326L720.23 171.74C725.133 166.837 727.529 160.477 728.715 151.652C729.898 142.856 729.896 131.462 729.896 116.406H727.896ZM664.896 181.406C679.952 181.406 691.345 181.408 700.142 180.225C708.967 179.039 715.327 176.643 720.23 171.74L718.816 170.326C714.346 174.796 708.478 177.086 699.875 178.243C691.243 179.404 680.009 179.406 664.896 179.406V181.406ZM664.896 1.40576C680.009 1.40576 691.243 1.40789 699.875 2.56842C708.478 3.72508 714.346 6.01593 718.816 10.4855L720.23 9.07124C715.327 4.16818 708.967 1.77273 700.142 0.586252C691.345 -0.596362 679.952 -0.594238 664.896 -0.594238V1.40576ZM729.896 64.4058C729.896 49.3491 729.898 37.956 728.715 29.1598C727.529 20.3349 725.133 13.9743 720.23 9.07124L718.816 10.4855C723.285 14.955 725.576 20.8232 726.733 29.4263C727.894 38.0582 727.896 49.2925 727.896 64.4058H729.896ZM612.896 -0.594238C597.839 -0.594238 586.446 -0.596362 577.65 0.586252C568.825 1.77273 562.464 4.16818 557.561 9.07124L558.975 10.4855C563.445 6.01593 569.313 3.72508 577.916 2.56842C586.548 1.40789 597.782 1.40576 612.896 1.40576V-0.594238ZM549.896 64.4058C549.896 49.2925 549.898 38.0582 551.058 29.4263C552.215 20.8232 554.506 14.955 558.975 10.4855L557.561 9.07124C552.658 13.9743 550.263 20.3349 549.076 29.1598C547.894 37.956 547.896 49.3491 547.896 64.4058H549.896Z" fill="#D9D9D9"/>
</g>
<path d="M658.289 108.834C661.98 108.452 664.779 105.271 664.652 101.453C664.525 97.6355 661.343 94.5812 657.526 94.5812H657.271C653.326 94.7086 650.272 98.0172 650.4 101.962C650.527 103.871 651.29 105.525 652.436 106.671C648.109 115.197 641.492 121.433 631.566 126.65C624.821 130.214 617.823 131.486 610.824 130.596C605.097 129.832 600.643 127.287 597.843 123.087C593.771 116.852 593.39 110.107 596.826 103.362C599.244 98.5262 603.061 94.9629 605.479 93.1812C604.97 91.5269 604.206 88.7273 603.825 86.6914C585.373 100.053 587.282 118.124 592.881 126.65C597.08 133.014 605.606 136.959 615.023 136.959C617.568 136.959 620.113 136.704 622.658 136.068C638.947 132.886 651.291 123.214 658.289 108.834ZM680.686 93.0543C671.015 81.7281 656.763 75.4926 640.474 75.4926H638.438C637.293 73.2019 634.875 71.6746 632.202 71.6746H631.948C628.003 71.8019 624.949 75.1105 625.076 79.0558C625.203 82.8734 628.385 85.9277 632.202 85.9277H632.457C635.256 85.8004 637.674 84.0187 638.692 81.6008H640.983C650.654 81.6008 659.816 84.4004 668.088 89.8726C674.451 94.0723 679.032 99.5445 681.577 106.162C683.74 111.507 683.613 116.724 681.322 121.178C677.759 127.923 671.779 131.614 663.889 131.614C658.798 131.614 653.963 130.086 651.418 128.941C650.018 130.214 647.473 132.25 645.691 133.523C651.163 136.068 656.763 137.468 662.107 137.468C674.323 137.468 683.359 130.723 686.795 123.978C690.485 116.597 690.23 103.871 680.686 93.0543ZM616.041 110.997C616.168 114.815 619.35 117.869 623.167 117.869H623.422C627.367 117.742 630.421 114.433 630.293 110.488C630.166 106.67 626.985 103.616 623.167 103.616H622.913C622.658 103.616 622.276 103.616 622.022 103.743C616.805 95.0898 614.641 85.673 615.405 75.4922C615.914 67.8566 618.459 61.239 622.913 55.7668C626.603 51.0582 633.729 48.7676 638.565 48.6406C652.054 48.3859 657.78 65.184 658.162 71.9289C659.816 72.3105 662.616 73.2015 664.525 73.8379C662.998 53.2223 650.272 42.5324 638.056 42.5324C626.603 42.5324 616.041 50.8043 611.841 63.0211C605.988 79.3101 609.805 94.9629 616.932 107.307C616.296 108.198 615.914 109.598 616.041 110.998V110.997Z" fill="#764ABC"/>
<g filter="url(#filter7_d_103_2)">
<path d="M-0.276123 691.218C-0.276123 661.048 -0.276123 645.963 9.09646 636.59C18.469 627.218 33.554 627.218 63.7239 627.218H115.724C145.894 627.218 160.979 627.218 170.351 636.59C179.724 645.963 179.724 661.048 179.724 691.218V743.218C179.724 773.388 179.724 788.473 170.351 797.845C160.979 807.218 145.894 807.218 115.724 807.218H63.7239C33.554 807.218 18.469 807.218 9.09646 797.845C-0.276123 788.473 -0.276123 773.388 -0.276123 743.218V691.218Z" fill="white"/>
<path d="M9.09646 797.845L8.38935 798.552L9.09646 797.845ZM170.351 797.845L169.644 797.138L170.351 797.845ZM170.351 636.59L171.058 635.883L170.351 636.59ZM63.7239 628.218H115.724V626.218H63.7239V628.218ZM178.724 691.218V743.218H180.724V691.218H178.724ZM115.724 806.218H63.7239V808.218H115.724V806.218ZM0.723877 743.218V691.218H-1.27612V743.218H0.723877ZM63.7239 806.218C48.6107 806.218 37.3763 806.216 28.7444 805.055C20.1413 803.898 14.2731 801.608 9.80357 797.138L8.38935 798.552C13.2924 803.455 19.653 805.851 28.4779 807.037C37.2741 808.22 48.6672 808.218 63.7239 808.218V806.218ZM-1.27612 743.218C-1.27612 758.274 -1.27825 769.668 -0.095633 778.464C1.09085 787.289 3.48629 793.649 8.38935 798.552L9.80357 797.138C5.33404 792.669 3.0432 786.8 1.88653 778.197C0.726001 769.565 0.723877 758.331 0.723877 743.218H-1.27612ZM178.724 743.218C178.724 758.331 178.722 769.565 177.561 778.197C176.405 786.8 174.114 792.669 169.644 797.138L171.058 798.552C175.961 793.649 178.357 787.289 179.543 778.464C180.726 769.668 180.724 758.274 180.724 743.218H178.724ZM115.724 808.218C130.781 808.218 142.174 808.22 150.97 807.037C159.795 805.851 166.155 803.455 171.058 798.552L169.644 797.138C165.175 801.608 159.306 803.898 150.703 805.055C142.071 806.216 130.837 806.218 115.724 806.218V808.218ZM115.724 628.218C130.837 628.218 142.071 628.22 150.703 629.38C159.306 630.537 165.175 632.828 169.644 637.297L171.058 635.883C166.155 630.98 159.795 628.585 150.97 627.398C142.174 626.216 130.781 626.218 115.724 626.218V628.218ZM180.724 691.218C180.724 676.161 180.726 664.768 179.543 655.972C178.357 647.147 175.961 640.786 171.058 635.883L169.644 637.297C174.114 641.767 176.405 647.635 177.561 656.238C178.722 664.87 178.724 676.105 178.724 691.218H180.724ZM63.7239 626.218C48.6672 626.218 37.2741 626.216 28.4779 627.398C19.653 628.585 13.2924 630.98 8.38935 635.883L9.80357 637.297C14.2731 632.828 20.1413 630.537 28.7444 629.38C37.3764 628.22 48.6107 628.218 63.7239 628.218V626.218ZM0.723877 691.218C0.723877 676.105 0.726001 664.87 1.88653 656.238C3.0432 647.635 5.33404 641.767 9.80357 637.297L8.38935 635.883C3.48629 640.786 1.09085 647.147 -0.095633 655.972C-1.27825 664.768 -1.27612 676.161 -1.27612 691.218H0.723877Z" fill="#D9D9D9"/>
</g>
<g clip-path="url(#clip1_103_2)">
<path d="M39.7239 667.218H139.724V767.218H39.7239V667.218Z" fill="#6762A5"/>
<path d="M96.4239 746.014V714.518C96.4239 714.518 98.4718 706.982 71.1879 717.602C71.1399 717.738 71.1399 688.474 71.1399 688.474L80.0559 688.418V707.166C80.0559 707.166 105.016 697.334 105.016 714.622V746.014H96.4239ZM101.504 699.766H92.0479C95.4519 695.606 98.5318 688.474 98.5318 688.474H108.308C108.312 688.474 106.636 693.122 101.504 699.766ZM71.2999 745.962V728.026L80.2679 736.994L71.2999 745.962Z" fill="white"/>
</g>
<g filter="url(#filter8_d_103_2)">
<path d="M539.724 684.406C539.724 654.236 539.724 639.151 549.097 629.778C558.469 620.406 573.554 620.406 603.724 620.406H655.724C685.894 620.406 700.979 620.406 710.351 629.778C719.724 639.151 719.724 654.236 719.724 684.406V736.406C719.724 766.576 719.724 781.661 710.351 791.033C700.979 800.406 685.894 800.406 655.724 800.406H603.724C573.554 800.406 558.469 800.406 549.097 791.033C539.724 781.661 539.724 766.576 539.724 736.406V684.406Z" fill="white"/>
<path d="M549.097 791.033L548.389 791.74L549.097 791.033ZM710.351 791.033L709.644 790.326L710.351 791.033ZM710.351 629.778L711.059 629.071L710.351 629.778ZM603.724 621.406H655.724V619.406H603.724V621.406ZM718.724 684.406V736.406H720.724V684.406H718.724ZM655.724 799.406H603.724V801.406H655.724V799.406ZM540.724 736.406V684.406H538.724V736.406H540.724ZM603.724 799.406C588.611 799.406 577.376 799.404 568.745 798.243C560.141 797.086 554.273 794.796 549.804 790.326L548.389 791.74C553.293 796.643 559.653 799.039 568.478 800.225C577.274 801.408 588.667 801.406 603.724 801.406V799.406ZM538.724 736.406C538.724 751.462 538.722 762.856 539.904 771.652C541.091 780.477 543.486 786.837 548.389 791.74L549.804 790.326C545.334 785.857 543.043 779.988 541.887 771.385C540.726 762.753 540.724 751.519 540.724 736.406H538.724ZM718.724 736.406C718.724 751.519 718.722 762.753 717.561 771.385C716.405 779.988 714.114 785.857 709.644 790.326L711.059 791.74C715.962 786.837 718.357 780.477 719.544 771.652C720.726 762.856 720.724 751.462 720.724 736.406H718.724ZM655.724 801.406C670.781 801.406 682.174 801.408 690.97 800.225C699.795 799.039 706.155 796.643 711.059 791.74L709.644 790.326C705.175 794.796 699.307 797.086 690.703 798.243C682.072 799.404 670.837 799.406 655.724 799.406V801.406ZM655.724 621.406C670.837 621.406 682.072 621.408 690.703 622.568C699.307 623.725 705.175 626.016 709.644 630.485L711.059 629.071C706.155 624.168 699.795 621.773 690.97 620.586C682.174 619.404 670.781 619.406 655.724 619.406V621.406ZM720.724 684.406C720.724 669.349 720.726 657.956 719.544 649.16C718.357 640.335 715.962 633.974 711.059 629.071L709.644 630.485C714.114 634.955 716.405 640.823 717.561 649.426C718.722 658.058 718.724 669.293 718.724 684.406H720.724ZM603.724 619.406C588.667 619.406 577.274 619.404 568.478 620.586C559.653 621.773 553.293 624.168 548.389 629.071L549.804 630.485C554.273 626.016 560.141 623.725 568.745 622.568C577.376 621.408 588.611 621.406 603.724 621.406V619.406ZM540.724 684.406C540.724 669.293 540.726 658.058 541.887 649.426C543.043 640.823 545.334 634.955 549.804 630.485L548.389 629.071C543.486 633.974 541.091 640.335 539.904 649.16C538.722 657.956 538.724 669.349 538.724 684.406H540.724Z" fill="#D9D9D9"/>
</g>
<path d="M629.915 734.438C652.039 764.597 673.69 726.02 673.658 702.82C673.621 675.392 645.82 660.063 629.897 660.063C604.339 660.062 580 681.184 580 710.084C580 742.207 607.9 760 629.897 760C624.92 759.283 608.331 755.729 608.108 717.521C607.958 691.679 616.538 681.355 629.861 685.896C630.16 686.007 644.557 691.687 644.557 710.24C644.557 728.715 629.915 734.437 629.915 734.437V734.438Z" fill="url(#paint1_linear_103_2)"/>
<path d="M629.89 685.875C615.271 680.837 597.363 692.885 597.363 717.018C597.363 756.423 626.563 760 630.103 760C655.661 760 680 738.877 680 709.978C680 677.855 652.1 660.062 630.103 660.062C636.195 659.218 662.941 666.656 662.941 703.21C662.941 727.048 642.97 740.025 629.981 734.481C629.683 734.37 615.285 728.691 615.285 710.137C615.285 691.662 629.89 685.875 629.89 685.875Z" fill="url(#paint2_linear_103_2)"/>
<g filter="url(#filter9_d_103_2)">
<path d="M819 214C819 183.83 819 168.745 828.373 159.373C837.745 150 852.83 150 883 150H935C965.17 150 980.255 150 989.627 159.373C999 168.745 999 183.83 999 214V266C999 296.17 999 311.255 989.627 320.627C980.255 330 965.17 330 935 330H883C852.83 330 837.745 330 828.373 320.627C819 311.255 819 296.17 819 266V214Z" fill="white"/>
<path d="M828.373 320.627L827.665 321.335L828.373 320.627ZM989.627 320.627L988.92 319.92L989.627 320.627ZM989.627 159.373L990.335 158.665L989.627 159.373ZM883 151H935V149H883V151ZM998 214V266H1000V214H998ZM935 329H883V331H935V329ZM820 266V214H818V266H820ZM883 329C867.887 329 856.652 328.998 848.021 327.837C839.417 326.681 833.549 324.39 829.08 319.92L827.665 321.335C832.569 326.238 838.929 328.633 847.754 329.82C856.55 331.002 867.943 331 883 331V329ZM818 266C818 281.057 817.998 292.45 819.18 301.246C820.367 310.071 822.762 316.431 827.665 321.335L829.08 319.92C824.61 315.451 822.319 309.583 821.163 300.979C820.002 292.348 820 281.113 820 266H818ZM998 266C998 281.113 997.998 292.348 996.837 300.979C995.681 309.583 993.39 315.451 988.92 319.92L990.335 321.335C995.238 316.431 997.633 310.071 998.82 301.246C1000 292.45 1000 281.057 1000 266H998ZM935 331C950.057 331 961.45 331.002 970.246 329.82C979.071 328.633 985.431 326.238 990.335 321.335L988.92 319.92C984.451 324.39 978.583 326.681 969.979 327.837C961.348 328.998 950.113 329 935 329V331ZM935 151C950.113 151 961.348 151.002 969.979 152.163C978.583 153.319 984.451 155.61 988.92 160.08L990.335 158.665C985.431 153.762 979.071 151.367 970.246 150.18C961.45 148.998 950.057 149 935 149V151ZM1000 214C1000 198.943 1000 187.55 998.82 178.754C997.633 169.929 995.238 163.569 990.335 158.665L988.92 160.08C993.39 164.549 995.681 170.417 996.837 179.021C997.998 187.652 998 198.887 998 214H1000ZM883 149C867.943 149 856.55 148.998 847.754 150.18C838.929 151.367 832.569 153.762 827.665 158.665L829.08 160.08C833.549 155.61 839.417 153.319 848.021 152.163C856.652 151.002 867.887 151 883 151V149ZM820 214C820 198.887 820.002 187.652 821.163 179.021C822.319 170.417 824.61 164.549 829.08 160.08L827.665 158.665C822.762 163.569 820.367 169.929 819.18 178.754C817.998 187.55 818 198.943 818 214H820Z" fill="#D9D9D9"/>
</g>
<path d="M872.928 280.034L864.907 190H953.093L945.072 279.985L908.927 290" fill="#E44D26"/>
<path d="M909 282.344V197.39H945.047L938.168 274.201" fill="#F16529"/>
<path d="M881.29 208.401H909V219.436H893.395L894.416 230.739H909V241.75H884.304L881.29 208.401ZM884.79 247.292H895.874L896.652 256.116L909 259.422V270.943L886.346 264.624" fill="#EBEBEB"/>
<path d="M936.613 208.401H908.951V219.436H935.592L936.613 208.401ZM934.595 230.739H908.951V241.775H922.563L921.275 256.116L908.951 259.422V270.895L931.557 264.624" fill="white"/>
</g>
<defs>
<filter id="filter0_d_103_2" x="-39.8282" y="-29.5942" width="260" height="260" filterUnits="userSpaceOnUse" color-interpolation-filters="sRGB">
<feFlood flood-opacity="0" result="BackgroundImageFix"/>
<feColorMatrix in="SourceAlpha" type="matrix" values="0 0 0 0 0 0 0 0 0 0 0 0 0 0 0 0 0 0 127 0" result="hardAlpha"/>
<feOffset dy="4"/>
<feGaussianBlur stdDeviation="20"/>
<feComposite in2="hardAlpha" operator="out"/>
<feColorMatrix type="matrix" values="0 0 0 0 0.0367917 0 0 0 0 0.0348958 0 0 0 0 0.0484375 0 0 0 0.1 0"/>
<feBlend mode="normal" in2="BackgroundImageFix" result="effect1_dropShadow_103_2"/>
<feBlend mode="normal" in="SourceGraphic" in2="effect1_dropShadow_103_2" result="shape"/>
</filter>
<filter id="filter1_d_103_2" x="239.172" y="54.4058" width="260" height="260" filterUnits="userSpaceOnUse" color-interpolation-filters="sRGB">
<feFlood flood-opacity="0" result="BackgroundImageFix"/>
<feColorMatrix in="SourceAlpha" type="matrix" values="0 0 0 0 0 0 0 0 0 0 0 0 0 0 0 0 0 0 127 0" result="hardAlpha"/>
<feOffset dy="4"/>
<feGaussianBlur stdDeviation="20"/>
<feComposite in2="hardAlpha" operator="out"/>
<feColorMatrix type="matrix" values="0 0 0 0 0.0367917 0 0 0 0 0.0348958 0 0 0 0 0.0484375 0 0 0 0.1 0"/>
<feBlend mode="normal" in2="BackgroundImageFix" result="effect1_dropShadow_103_2"/>
<feBlend mode="normal" in="SourceGraphic" in2="effect1_dropShadow_103_2" result="shape"/>
</filter>
<filter id="filter2_d_103_2" x="234.172" y="444.406" width="260" height="260" filterUnits="userSpaceOnUse" color-interpolation-filters="sRGB">
<feFlood flood-opacity="0" result="BackgroundImageFix"/>
<feColorMatrix in="SourceAlpha" type="matrix" values="0 0 0 0 0 0 0 0 0 0 0 0 0 0 0 0 0 0 127 0" result="hardAlpha"/>
<feOffset dy="4"/>
<feGaussianBlur stdDeviation="20"/>
<feComposite in2="hardAlpha" operator="out"/>
<feColorMatrix type="matrix" values="0 0 0 0 0.0367917 0 0 0 0 0.0348958 0 0 0 0 0.0484375 0 0 0 0.1 0"/>
<feBlend mode="normal" in2="BackgroundImageFix" result="effect1_dropShadow_103_2"/>
<feBlend mode="normal" in="SourceGraphic" in2="effect1_dropShadow_103_2" result="shape"/>
</filter>
<filter id="filter3_d_103_2" x="31.3434" y="257.406" width="260" height="260" filterUnits="userSpaceOnUse" color-interpolation-filters="sRGB">
<feFlood flood-opacity="0" result="BackgroundImageFix"/>
<feColorMatrix in="SourceAlpha" type="matrix" values="0 0 0 0 0 0 0 0 0 0 0 0 0 0 0 0 0 0 127 0" result="hardAlpha"/>
<feOffset dy="4"/>
<feGaussianBlur stdDeviation="20"/>
<feComposite in2="hardAlpha" operator="out"/>
<feColorMatrix type="matrix" values="0 0 0 0 0.0367917 0 0 0 0 0.0348958 0 0 0 0 0.0484375 0 0 0 0.1 0"/>
<feBlend mode="normal" in2="BackgroundImageFix" result="effect1_dropShadow_103_2"/>
<feBlend mode="normal" in="SourceGraphic" in2="effect1_dropShadow_103_2" result="shape"/>
</filter>
<filter id="filter4_d_103_2" x="802.067" y="503.406" width="260" height="260" filterUnits="userSpaceOnUse" color-interpolation-filters="sRGB">
<feFlood flood-opacity="0" result="BackgroundImageFix"/>
<feColorMatrix in="SourceAlpha" type="matrix" values="0 0 0 0 0 0 0 0 0 0 0 0 0 0 0 0 0 0 127 0" result="hardAlpha"/>
<feOffset dy="4"/>
<feGaussianBlur stdDeviation="20"/>
<feComposite in2="hardAlpha" operator="out"/>
<feColorMatrix type="matrix" values="0 0 0 0 0.0367917 0 0 0 0 0.0348958 0 0 0 0 0.0484375 0 0 0 0.1 0"/>
<feBlend mode="normal" in2="BackgroundImageFix" result="effect1_dropShadow_103_2"/>
<feBlend mode="normal" in="SourceGraphic" in2="effect1_dropShadow_103_2" result="shape"/>
</filter>
<filter id="filter5_d_103_2" x="509.343" y="297.406" width="260" height="260" filterUnits="userSpaceOnUse" color-interpolation-filters="sRGB">
<feFlood flood-opacity="0" result="BackgroundImageFix"/>
<feColorMatrix in="SourceAlpha" type="matrix" values="0 0 0 0 0 0 0 0 0 0 0 0 0 0 0 0 0 0 127 0" result="hardAlpha"/>
<feOffset dy="4"/>
<feGaussianBlur stdDeviation="20"/>
<feComposite in2="hardAlpha" operator="out"/>
<feColorMatrix type="matrix" values="0 0 0 0 0.0367917 0 0 0 0 0.0348958 0 0 0 0 0.0484375 0 0 0 0.1 0"/>
<feBlend mode="normal" in2="BackgroundImageFix" result="effect1_dropShadow_103_2"/>
<feBlend mode="normal" in="SourceGraphic" in2="effect1_dropShadow_103_2" result="shape"/>
</filter>
<filter id="filter6_d_103_2" x="508.896" y="-35.5942" width="260" height="260" filterUnits="userSpaceOnUse" color-interpolation-filters="sRGB">
<feFlood flood-opacity="0" result="BackgroundImageFix"/>
<feColorMatrix in="SourceAlpha" type="matrix" values="0 0 0 0 0 0 0 0 0 0 0 0 0 0 0 0 0 0 127 0" result="hardAlpha"/>
<feOffset dy="4"/>
<feGaussianBlur stdDeviation="20"/>
<feComposite in2="hardAlpha" operator="out"/>
<feColorMatrix type="matrix" values="0 0 0 0 0.0367917 0 0 0 0 0.0348958 0 0 0 0 0.0484375 0 0 0 0.1 0"/>
<feBlend mode="normal" in2="BackgroundImageFix" result="effect1_dropShadow_103_2"/>
<feBlend mode="normal" in="SourceGraphic" in2="effect1_dropShadow_103_2" result="shape"/>
</filter>
<filter id="filter7_d_103_2" x="-40.2761" y="591.218" width="260" height="260" filterUnits="userSpaceOnUse" color-interpolation-filters="sRGB">
<feFlood flood-opacity="0" result="BackgroundImageFix"/>
<feColorMatrix in="SourceAlpha" type="matrix" values="0 0 0 0 0 0 0 0 0 0 0 0 0 0 0 0 0 0 127 0" result="hardAlpha"/>
<feOffset dy="4"/>
<feGaussianBlur stdDeviation="20"/>
<feComposite in2="hardAlpha" operator="out"/>
<feColorMatrix type="matrix" values="0 0 0 0 0.0367917 0 0 0 0 0.0348958 0 0 0 0 0.0484375 0 0 0 0.1 0"/>
<feBlend mode="normal" in2="BackgroundImageFix" result="effect1_dropShadow_103_2"/>
<feBlend mode="normal" in="SourceGraphic" in2="effect1_dropShadow_103_2" result="shape"/>
</filter>
<filter id="filter8_d_103_2" x="499.724" y="584.406" width="260" height="260" filterUnits="userSpaceOnUse" color-interpolation-filters="sRGB">
<feFlood flood-opacity="0" result="BackgroundImageFix"/>
<feColorMatrix in="SourceAlpha" type="matrix" values="0 0 0 0 0 0 0 0 0 0 0 0 0 0 0 0 0 0 127 0" result="hardAlpha"/>
<feOffset dy="4"/>
<feGaussianBlur stdDeviation="20"/>
<feComposite in2="hardAlpha" operator="out"/>
<feColorMatrix type="matrix" values="0 0 0 0 0.0367917 0 0 0 0 0.0348958 0 0 0 0 0.0484375 0 0 0 0.1 0"/>
<feBlend mode="normal" in2="BackgroundImageFix" result="effect1_dropShadow_103_2"/>
<feBlend mode="normal" in="SourceGraphic" in2="effect1_dropShadow_103_2" result="shape"/>
</filter>
<filter id="filter9_d_103_2" x="779" y="114" width="260" height="260" filterUnits="userSpaceOnUse" color-interpolation-filters="sRGB">
<feFlood flood-opacity="0" result="BackgroundImageFix"/>
<feColorMatrix in="SourceAlpha" type="matrix" values="0 0 0 0 0 0 0 0 0 0 0 0 0 0 0 0 0 0 127 0" result="hardAlpha"/>
<feOffset dy="4"/>
<feGaussianBlur stdDeviation="20"/>
<feComposite in2="hardAlpha" operator="out"/>
<feColorMatrix type="matrix" values="0 0 0 0 0.0367917 0 0 0 0 0.0348958 0 0 0 0 0.0484375 0 0 0 0.1 0"/>
<feBlend mode="normal" in2="BackgroundImageFix" result="effect1_dropShadow_103_2"/>
<feBlend mode="normal" in="SourceGraphic" in2="effect1_dropShadow_103_2" result="shape"/>
</filter>
<linearGradient id="paint0_linear_103_2" x1="638.747" y1="405.071" x2="638.747" y2="440.708" gradientUnits="userSpaceOnUse">
<stop stop-color="#A2C0E6"/>
<stop offset="1" stop-color="#406CB1"/>
</linearGradient>
<linearGradient id="paint1_linear_103_2" x1="594.79" y1="674.79" x2="669.489" y2="740.397" gradientUnits="userSpaceOnUse">
<stop/>
<stop offset="1" stop-color="white"/>
</linearGradient>
<linearGradient id="paint2_linear_103_2" x1="665.238" y1="745.237" x2="584.387" y2="690.024" gradientUnits="userSpaceOnUse">
<stop/>
<stop offset="1" stop-color="white"/>
</linearGradient>
<clipPath id="clip0_103_2">
<rect width="1000" height="800" fill="white"/>
</clipPath>
<clipPath id="clip1_103_2">
<rect width="100" height="100" fill="white" transform="translate(39.7239 667.218)"/>
</clipPath>
</defs>
</svg>
