<svg width="1199" height="800" viewBox="0 0 1199 800" fill="none" xmlns="http://www.w3.org/2000/svg">
<g clip-path="url(#clip0_103_2)">
<g filter="url(#filter0_d_103_2)">
<path d="M0.171753 70.4058C0.171753 40.2359 0.171753 25.1509 9.54434 15.7783C18.9169 6.40576 34.0019 6.40576 64.1718 6.40576H116.172C146.342 6.40576 161.427 6.40576 170.799 15.7783C180.172 25.1509 180.172 40.2359 180.172 70.4058V122.406C180.172 152.576 180.172 167.661 170.799 177.033C161.427 186.406 146.342 186.406 116.172 186.406H64.1717C34.0019 186.406 18.9169 186.406 9.54434 177.033C0.171753 167.661 0.171753 152.576 0.171753 122.406V70.4058Z" fill="white"/>
<path d="M9.54434 177.033L8.83723 177.74L9.54434 177.033ZM170.799 177.033L170.092 176.326L170.799 177.033ZM170.799 15.7783L171.506 15.0712L170.799 15.7783ZM64.1718 7.40576H116.172V5.40576H64.1718V7.40576ZM179.172 70.4058V122.406H181.172V70.4058H179.172ZM116.172 185.406H64.1717V187.406H116.172V185.406ZM1.17175 122.406V70.4058H-0.828247V122.406H1.17175ZM64.1717 185.406C49.0585 185.406 37.8242 185.404 29.1923 184.243C20.5891 183.086 14.721 180.796 10.2514 176.326L8.83723 177.74C13.7403 182.643 20.1009 185.039 28.9258 186.225C37.722 187.408 49.1151 187.406 64.1717 187.406V185.406ZM-0.828247 122.406C-0.828247 137.462 -0.830371 148.856 0.352243 157.652C1.53872 166.477 3.93417 172.837 8.83723 177.74L10.2514 176.326C5.78192 171.857 3.49107 165.988 2.33441 157.385C1.17388 148.753 1.17175 137.519 1.17175 122.406H-0.828247ZM179.172 122.406C179.172 137.519 179.17 148.753 178.009 157.385C176.852 165.988 174.562 171.857 170.092 176.326L171.506 177.74C176.409 172.837 178.805 166.477 179.991 157.652C181.174 148.856 181.172 137.462 181.172 122.406H179.172ZM116.172 187.406C131.228 187.406 142.622 187.408 151.418 186.225C160.243 185.039 166.603 182.643 171.506 177.74L170.092 176.326C165.623 180.796 159.754 183.086 151.151 184.243C142.519 185.404 131.285 185.406 116.172 185.406V187.406ZM116.172 7.40576C131.285 7.40576 142.519 7.40789 151.151 8.56842C159.754 9.72508 165.623 12.0159 170.092 16.4855L171.506 15.0712C166.603 10.1682 160.243 7.77273 151.418 6.58625C142.622 5.40364 131.228 5.40576 116.172 5.40576V7.40576ZM181.172 70.4058C181.172 55.3491 181.174 43.956 179.991 35.1598C178.805 26.3349 176.409 19.9743 171.506 15.0712L170.092 16.4855C174.562 20.955 176.852 26.8232 178.009 35.4263C179.17 44.0582 179.172 55.2925 179.172 70.4058H181.172ZM64.1718 5.40576C49.1151 5.40576 37.722 5.40364 28.9258 6.58625C20.1009 7.77273 13.7403 10.1682 8.83723 15.0712L10.2514 16.4855C14.721 12.0159 20.5891 9.72508 29.1923 8.56842C37.8242 7.40789 49.0585 7.40576 64.1718 7.40576V5.40576ZM1.17175 70.4058C1.17175 55.2925 1.17388 44.0582 2.33441 35.4263C3.49107 26.8232 5.78192 20.955 10.2514 16.4855L8.83723 15.0712C3.93417 19.9743 1.53872 26.3349 0.352243 35.1598C-0.830371 43.956 -0.828247 55.3491 -0.828247 70.4058H1.17175Z" fill="#D9D9D9"/>
</g>
<path d="M140 46H40V146H140V46Z" fill="#F7DF1E"/>
<path d="M107.175 124.125C109.189 127.414 111.809 129.832 116.444 129.832C120.338 129.832 122.825 127.886 122.825 125.197C122.825 121.975 120.27 120.833 115.984 118.959L113.635 117.951C106.854 115.062 102.349 111.443 102.349 103.792C102.349 96.7445 107.719 91.3794 116.111 91.3794C122.086 91.3794 126.381 93.4588 129.476 98.9032L122.159 103.602C120.548 100.713 118.809 99.5746 116.111 99.5746C113.359 99.5746 111.614 101.321 111.614 103.602C111.614 106.421 113.36 107.562 117.392 109.308L119.741 110.314C127.725 113.738 132.233 117.229 132.233 125.076C132.233 133.537 125.587 138.171 116.662 138.171C107.935 138.171 102.297 134.013 99.538 128.562L107.175 124.125ZM73.9793 124.94C75.4555 127.559 76.7983 129.773 80.0269 129.773C83.1142 129.773 85.0618 128.565 85.0618 123.868V91.9159H94.4586V123.995C94.4586 133.725 88.7539 138.154 80.4269 138.154C72.9031 138.154 68.546 134.26 66.3301 129.571L73.9793 124.94Z" fill="black"/>
<g filter="url(#filter1_d_103_2)">
<path d="M295.172 179.406C295.172 149.236 295.172 134.151 304.544 124.778C313.917 115.406 329.002 115.406 359.172 115.406H411.172C441.342 115.406 456.427 115.406 465.799 124.778C475.172 134.151 475.172 149.236 475.172 179.406V231.406C475.172 261.576 475.172 276.661 465.799 286.033C456.427 295.406 441.342 295.406 411.172 295.406H359.172C329.002 295.406 313.917 295.406 304.544 286.033C295.172 276.661 295.172 261.576 295.172 231.406V179.406Z" fill="white"/>
<path d="M304.544 286.033L303.837 286.74L304.544 286.033ZM465.799 286.033L465.092 285.326L465.799 286.033ZM465.799 124.778L466.506 124.071L465.799 124.778ZM359.172 116.406H411.172V114.406H359.172V116.406ZM474.172 179.406V231.406H476.172V179.406H474.172ZM411.172 294.406H359.172V296.406H411.172V294.406ZM296.172 231.406V179.406H294.172V231.406H296.172ZM359.172 294.406C344.059 294.406 332.824 294.404 324.192 293.243C315.589 292.086 309.721 289.796 305.251 285.326L303.837 286.74C308.74 291.643 315.101 294.039 323.926 295.225C332.722 296.408 344.115 296.406 359.172 296.406V294.406ZM294.172 231.406C294.172 246.462 294.17 257.856 295.352 266.652C296.539 275.477 298.934 281.837 303.837 286.74L305.251 285.326C300.782 280.857 298.491 274.988 297.334 266.385C296.174 257.753 296.172 246.519 296.172 231.406H294.172ZM474.172 231.406C474.172 246.519 474.17 257.753 473.009 266.385C471.852 274.988 469.562 280.857 465.092 285.326L466.506 286.74C471.409 281.837 473.805 275.477 474.991 266.652C476.174 257.856 476.172 246.462 476.172 231.406H474.172ZM411.172 296.406C426.228 296.406 437.622 296.408 446.418 295.225C455.243 294.039 461.603 291.643 466.506 286.74L465.092 285.326C460.623 289.796 454.754 292.086 446.151 293.243C437.519 294.404 426.285 294.406 411.172 294.406V296.406ZM411.172 116.406C426.285 116.406 437.519 116.408 446.151 117.568C454.754 118.725 460.623 121.016 465.092 125.485L466.506 124.071C461.603 119.168 455.243 116.773 446.418 115.586C437.622 114.404 426.228 114.406 411.172 114.406V116.406ZM476.172 179.406C476.172 164.349 476.174 152.956 474.991 144.16C473.805 135.335 471.409 128.974 466.506 124.071L465.092 125.485C469.562 129.955 471.852 135.823 473.009 144.426C474.17 153.058 474.172 164.293 474.172 179.406H476.172ZM359.172 114.406C344.115 114.406 332.722 114.404 323.926 115.586C315.101 116.773 308.74 119.168 303.837 124.071L305.251 125.485C309.721 121.016 315.589 118.725 324.192 117.568C332.824 116.408 344.059 116.406 359.172 116.406V114.406ZM296.172 179.406C296.172 164.293 296.174 153.058 297.334 144.426C298.491 135.823 300.782 129.955 305.251 125.485L303.837 124.071C298.934 128.974 296.539 135.335 295.352 144.16C294.17 152.956 294.172 164.349 294.172 179.406H296.172Z" fill="#D9D9D9"/>
</g>
<path d="M434.014 196.209C433.743 195.994 431.211 194.082 425.871 194.082C424.461 194.088 423.055 194.209 421.664 194.444C420.631 187.361 414.775 183.907 414.512 183.752L413.079 182.926L412.136 184.286C410.955 186.114 410.093 188.129 409.586 190.246C408.63 194.289 409.212 198.087 411.266 201.333C408.786 202.715 404.807 203.056 404.002 203.086H338.13C336.41 203.088 335.014 204.479 335.004 206.199C334.927 211.97 335.905 217.706 337.889 223.125C340.158 229.076 343.534 233.46 347.926 236.142C352.848 239.156 360.844 240.879 369.908 240.879C374.002 240.891 378.089 240.521 382.115 239.772C387.711 238.744 393.096 236.789 398.047 233.985C402.126 231.622 405.798 228.617 408.919 225.084C414.138 219.177 417.247 212.597 419.559 206.75H420.48C426.194 206.75 429.708 204.464 431.646 202.548C432.933 201.325 433.939 199.837 434.591 198.186L435 196.989L434.014 196.209Z" fill="#2496ED"/>
<path d="M344.236 201.157H353.063C353.489 201.157 353.834 200.812 353.834 200.386V192.523C353.836 192.098 353.493 191.751 353.067 191.748C353.066 191.748 353.065 191.748 353.063 191.748H344.236C343.81 191.748 343.465 192.094 343.465 192.519V192.523V200.386C343.465 200.812 343.81 201.157 344.236 201.157V201.157Z" fill="#2496ED"/>
<path d="M356.4 201.157H365.227C365.653 201.157 365.998 200.812 365.998 200.386V192.523C366 192.098 365.657 191.751 365.231 191.748C365.23 191.748 365.229 191.748 365.227 191.748H356.4C355.972 191.748 355.625 192.095 355.625 192.523V200.386C355.628 200.812 355.974 201.157 356.4 201.157" fill="#2496ED"/>
<path d="M368.749 201.157H377.576C378.002 201.157 378.347 200.812 378.347 200.386V192.523C378.35 192.098 378.006 191.751 377.581 191.748C377.579 191.748 377.578 191.748 377.576 191.748H368.749C368.323 191.748 367.979 192.094 367.979 192.519V192.523V200.386C367.979 200.812 368.324 201.157 368.749 201.157V201.157Z" fill="#2496ED"/>
<path d="M380.952 201.157H389.779C390.206 201.157 390.552 200.813 390.554 200.386V192.523C390.554 192.095 390.207 191.748 389.779 191.748H380.952C380.527 191.748 380.182 192.094 380.182 192.519V192.523V200.386C380.182 200.812 380.527 201.157 380.952 201.157V201.157Z" fill="#2496ED"/>
<path d="M356.4 189.845H365.227C365.654 189.843 365.998 189.497 365.998 189.07V181.208C365.998 180.782 365.653 180.437 365.227 180.437H356.4C355.974 180.437 355.628 180.781 355.625 181.208V189.07C355.628 189.497 355.973 189.843 356.4 189.845Z" fill="#2496ED"/>
<path d="M368.749 189.845H377.576C378.003 189.843 378.347 189.497 378.347 189.07V181.208C378.347 180.782 378.002 180.437 377.576 180.437H368.749C368.324 180.437 367.979 180.782 367.979 181.208V189.07C367.979 189.497 368.323 189.843 368.749 189.845Z" fill="#2496ED"/>
<path d="M380.952 189.845H389.779C390.206 189.843 390.552 189.497 390.554 189.07V181.208C390.552 180.781 390.206 180.437 389.779 180.437H380.952C380.527 180.437 380.182 180.782 380.182 181.208V189.07C380.182 189.497 380.526 189.843 380.952 189.845Z" fill="#2496ED"/>
<path d="M380.952 178.53H389.779C390.206 178.53 390.552 178.185 390.554 177.759V169.892C390.552 169.465 390.206 169.121 389.779 169.121H380.952C380.527 169.121 380.182 169.466 380.182 169.892V177.759C380.182 178.184 380.527 178.53 380.952 178.53Z" fill="#2496ED"/>
<path d="M393.263 201.157H402.09C402.516 201.157 402.863 200.813 402.865 200.386V192.523C402.865 192.095 402.518 191.748 402.09 191.748H393.263C392.837 191.748 392.492 192.094 392.492 192.519V192.523V200.386C392.492 200.812 392.837 201.157 393.263 201.157" fill="#2496ED"/>
<g filter="url(#filter2_d_103_2)">
<path d="M319.172 527.406C319.172 497.236 319.172 482.151 328.544 472.778C337.917 463.406 353.002 463.406 383.172 463.406H435.172C465.342 463.406 480.427 463.406 489.799 472.778C499.172 482.151 499.172 497.236 499.172 527.406V579.406C499.172 609.576 499.172 624.661 489.799 634.033C480.427 643.406 465.342 643.406 435.172 643.406H383.172C353.002 643.406 337.917 643.406 328.544 634.033C319.172 624.661 319.172 609.576 319.172 579.406V527.406Z" fill="white"/>
<path d="M328.544 634.033L327.837 634.74L328.544 634.033ZM489.799 634.033L489.092 633.326L489.799 634.033ZM489.799 472.778L490.506 472.071L489.799 472.778ZM383.172 464.406H435.172V462.406H383.172V464.406ZM498.172 527.406V579.406H500.172V527.406H498.172ZM435.172 642.406H383.172V644.406H435.172V642.406ZM320.172 579.406V527.406H318.172V579.406H320.172ZM383.172 642.406C368.059 642.406 356.824 642.404 348.192 641.243C339.589 640.086 333.721 637.796 329.251 633.326L327.837 634.74C332.74 639.643 339.101 642.039 347.926 643.225C356.722 644.408 368.115 644.406 383.172 644.406V642.406ZM318.172 579.406C318.172 594.462 318.17 605.856 319.352 614.652C320.539 623.477 322.934 629.837 327.837 634.74L329.251 633.326C324.782 628.857 322.491 622.988 321.334 614.385C320.174 605.753 320.172 594.519 320.172 579.406H318.172ZM498.172 579.406C498.172 594.519 498.17 605.753 497.009 614.385C495.852 622.988 493.562 628.857 489.092 633.326L490.506 634.74C495.409 629.837 497.805 623.477 498.991 614.652C500.174 605.856 500.172 594.462 500.172 579.406H498.172ZM435.172 644.406C450.228 644.406 461.622 644.408 470.418 643.225C479.243 642.039 485.603 639.643 490.506 634.74L489.092 633.326C484.623 637.796 478.754 640.086 470.151 641.243C461.519 642.404 450.285 642.406 435.172 642.406V644.406ZM435.172 464.406C450.285 464.406 461.519 464.408 470.151 465.568C478.754 466.725 484.623 469.016 489.092 473.485L490.506 472.071C485.603 467.168 479.243 464.773 470.418 463.586C461.622 462.404 450.228 462.406 435.172 462.406V464.406ZM500.172 527.406C500.172 512.349 500.174 500.956 498.991 492.16C497.805 483.335 495.409 476.974 490.506 472.071L489.092 473.485C493.562 477.955 495.852 483.823 497.009 492.426C498.17 501.058 498.172 512.293 498.172 527.406H500.172ZM383.172 462.406C368.115 462.406 356.722 462.404 347.926 463.586C339.101 464.773 332.74 467.168 327.837 472.071L329.251 473.485C333.721 469.016 339.589 466.725 348.192 465.568C356.824 464.408 368.059 464.406 383.172 464.406V462.406ZM320.172 527.406C320.172 512.293 320.174 501.058 321.334 492.426C322.491 483.823 324.782 477.955 329.251 473.485L327.837 472.071C322.934 476.974 320.539 483.335 319.352 492.16C318.17 500.956 318.172 512.349 318.172 527.406H320.172Z" fill="#D9D9D9"/>
</g>
<path d="M457.114 548.545L413.453 504.886C410.94 502.371 406.862 502.371 404.346 504.886L395.28 513.952L406.781 525.454C409.454 524.55 412.518 525.156 414.649 527.287C416.789 529.431 417.391 532.522 416.466 535.203L427.55 546.287C430.232 545.364 433.326 545.961 435.468 548.107C438.461 551.099 438.461 555.948 435.468 558.943C432.473 561.937 427.624 561.937 424.628 558.943C422.377 556.689 421.82 553.382 422.96 550.608L412.623 540.271L412.622 567.473C413.372 567.844 414.056 568.333 414.649 568.923C417.642 571.915 417.642 576.765 414.649 579.761C411.655 582.754 406.803 582.754 403.813 579.761C400.82 576.765 400.82 571.915 403.813 568.923C404.53 568.205 405.383 567.637 406.321 567.251V539.795C405.381 539.412 404.528 538.843 403.813 538.123C401.545 535.858 401 532.53 402.162 529.746L390.824 518.407L360.887 548.343C358.371 550.859 358.371 554.938 360.887 557.453L404.548 601.112C407.062 603.627 411.139 603.627 413.656 601.112L457.114 557.655C459.629 555.14 459.629 551.059 457.114 548.545" fill="#DE4C36"/>
<g filter="url(#filter3_d_103_2)">
<path d="M71.3434 357.406C71.3434 327.236 71.3434 312.151 80.716 302.778C90.0885 293.406 105.173 293.406 135.343 293.406H187.343C217.513 293.406 232.598 293.406 241.971 302.778C251.343 312.151 251.343 327.236 251.343 357.406V409.406C251.343 439.576 251.343 454.661 241.971 464.033C232.598 473.406 217.513 473.406 187.343 473.406H135.343C105.173 473.406 90.0885 473.406 80.716 464.033C71.3434 454.661 71.3434 439.576 71.3434 409.406V357.406Z" fill="white"/>
<path d="M80.716 464.033L80.0089 464.74L80.716 464.033ZM241.971 464.033L241.264 463.326L241.971 464.033ZM241.971 302.778L242.678 302.071L241.971 302.778ZM135.343 294.406H187.343V292.406H135.343V294.406ZM250.343 357.406V409.406H252.343V357.406H250.343ZM187.343 472.406H135.343V474.406H187.343V472.406ZM72.3434 409.406V357.406H70.3434V409.406H72.3434ZM135.343 472.406C120.23 472.406 108.996 472.404 100.364 471.243C91.7608 470.086 85.8926 467.796 81.4231 463.326L80.0089 464.74C84.9119 469.643 91.2725 472.039 100.097 473.225C108.894 474.408 120.287 474.406 135.343 474.406V472.406ZM70.3434 409.406C70.3434 424.462 70.3413 435.856 71.5239 444.652C72.7104 453.477 75.1058 459.837 80.0089 464.74L81.4231 463.326C76.9536 458.857 74.6627 452.988 73.506 444.385C72.3455 435.753 72.3434 424.519 72.3434 409.406H70.3434ZM250.343 409.406C250.343 424.519 250.341 435.753 249.181 444.385C248.024 452.988 245.733 458.857 241.264 463.326L242.678 464.74C247.581 459.837 249.976 453.477 251.163 444.652C252.346 435.856 252.343 424.462 252.343 409.406H250.343ZM187.343 474.406C202.4 474.406 213.793 474.408 222.589 473.225C231.414 472.039 237.775 469.643 242.678 464.74L241.264 463.326C236.794 467.796 230.926 470.086 222.323 471.243C213.691 472.404 202.457 472.406 187.343 472.406V474.406ZM187.343 294.406C202.457 294.406 213.691 294.408 222.323 295.568C230.926 296.725 236.794 299.016 241.264 303.485L242.678 302.071C237.775 297.168 231.414 294.773 222.589 293.586C213.793 292.404 202.4 292.406 187.343 292.406V294.406ZM252.343 357.406C252.343 342.349 252.346 330.956 251.163 322.16C249.976 313.335 247.581 306.974 242.678 302.071L241.264 303.485C245.733 307.955 248.024 313.823 249.181 322.426C250.341 331.058 250.343 342.293 250.343 357.406H252.343ZM135.343 292.406C120.287 292.406 108.894 292.404 100.097 293.586C91.2725 294.773 84.9119 297.168 80.0089 302.071L81.4231 303.485C85.8926 299.016 91.7608 296.725 100.364 295.568C108.996 294.408 120.23 294.406 135.343 294.406V292.406ZM72.3434 357.406C72.3434 342.293 72.3455 331.058 73.506 322.426C74.6627 313.823 76.9536 307.955 81.4231 303.485L80.0089 302.071C75.1058 306.974 72.7104 313.335 71.5239 322.16C70.3413 330.956 70.3434 342.349 70.3434 357.406H72.3434Z" fill="#D9D9D9"/>
</g>
<path d="M111 333H211V433H111V333Z" fill="#017ACB"/>
<path d="M159.016 370.031H163.813V378.312H150.844V415.156L150.5 415.25C150.031 415.375 143.859 415.375 142.531 415.234L141.469 415.141V378.312H128.5V370.031L132.609 369.984C134.859 369.953 140.641 369.953 145.453 369.984C150.266 370.016 156.359 370.031 159.016 370.031V370.031ZM195.625 411.25C193.719 413.266 191.672 414.391 188.266 415.312C186.781 415.719 186.531 415.734 183.188 415.719C179.844 415.703 179.578 415.703 177.953 415.281C173.75 414.203 170.359 412.094 168.047 409.109C167.391 408.266 166.313 406.516 166.313 406.297C166.313 406.234 166.469 406.094 166.672 406C166.875 405.906 167.297 405.641 167.641 405.437C167.984 405.234 168.609 404.859 169.031 404.641C169.453 404.422 170.672 403.703 171.734 403.062C172.797 402.422 173.766 401.906 173.875 401.906C173.984 401.906 174.188 402.125 174.344 402.391C175.281 403.969 177.469 405.984 179.016 406.672C179.969 407.078 182.078 407.531 183.094 407.531C184.031 407.531 185.75 407.125 186.672 406.703C187.656 406.25 188.156 405.797 188.75 404.891C189.156 404.25 189.203 404.078 189.188 402.859C189.188 401.734 189.125 401.422 188.813 400.906C187.938 399.469 186.75 398.719 181.938 396.594C176.969 394.391 174.734 393.078 172.922 391.312C171.578 390 171.313 389.641 170.469 388C169.375 385.891 169.234 385.203 169.219 382.062C169.203 379.859 169.25 379.141 169.484 378.391C169.813 377.266 170.875 375.094 171.359 374.547C172.359 373.375 172.719 373.016 173.422 372.437C175.547 370.687 178.859 369.531 182.031 369.422C182.391 369.422 183.578 369.484 184.688 369.562C187.875 369.828 190.047 370.609 192.141 372.281C193.719 373.531 196.109 376.469 195.875 376.859C195.719 377.094 189.484 381.25 189.078 381.375C188.828 381.453 188.656 381.359 188.313 380.953C186.188 378.406 185.328 377.859 183.266 377.734C181.797 377.641 181.016 377.812 180.031 378.469C179 379.156 178.5 380.203 178.5 381.656C178.516 383.781 179.328 384.781 182.328 386.266C184.266 387.219 185.922 388 186.047 388C186.234 388 190.25 390 191.297 390.625C196.172 393.484 198.156 396.422 198.672 401.484C199.047 405.297 197.969 408.781 195.625 411.25V411.25Z" fill="white"/>
<g filter="url(#filter4_d_103_2)">
<path d="M936.067 537.406C936.067 507.236 936.067 492.151 945.44 482.778C954.812 473.406 969.897 473.406 1000.07 473.406H1052.07C1082.24 473.406 1097.32 473.406 1106.69 482.778C1116.07 492.151 1116.07 507.236 1116.07 537.406V589.406C1116.07 619.576 1116.07 634.661 1106.69 644.033C1097.32 653.406 1082.24 653.406 1052.07 653.406H1000.07C969.897 653.406 954.812 653.406 945.44 644.033C936.067 634.661 936.067 619.576 936.067 589.406V537.406Z" fill="white"/>
<path d="M945.44 644.033L944.733 644.74L945.44 644.033ZM1106.69 644.033L1105.99 643.326L1106.69 644.033ZM1106.69 482.778L1107.4 482.071L1106.69 482.778ZM1000.07 474.406H1052.07V472.406H1000.07V474.406ZM1115.07 537.406V589.406H1117.07V537.406H1115.07ZM1052.07 652.406H1000.07V654.406H1052.07V652.406ZM937.067 589.406V537.406H935.067V589.406H937.067ZM1000.07 652.406C984.954 652.406 973.72 652.404 965.088 651.243C956.485 650.086 950.616 647.796 946.147 643.326L944.733 644.74C949.636 649.643 955.996 652.039 964.821 653.225C973.617 654.408 985.011 654.406 1000.07 654.406V652.406ZM935.067 589.406C935.067 604.462 935.065 615.856 936.248 624.652C937.434 633.477 939.83 639.837 944.733 644.74L946.147 643.326C941.677 638.857 939.387 632.988 938.23 624.385C937.069 615.753 937.067 604.519 937.067 589.406H935.067ZM1115.07 589.406C1115.07 604.519 1115.07 615.753 1113.9 624.385C1112.75 632.988 1110.46 638.857 1105.99 643.326L1107.4 644.74C1112.3 639.837 1114.7 633.477 1115.89 624.652C1117.07 615.856 1117.07 604.462 1117.07 589.406H1115.07ZM1052.07 654.406C1067.12 654.406 1078.52 654.408 1087.31 653.225C1096.14 652.039 1102.5 649.643 1107.4 644.74L1105.99 643.326C1101.52 647.796 1095.65 650.086 1087.05 651.243C1078.41 652.404 1067.18 652.406 1052.07 652.406V654.406ZM1052.07 474.406C1067.18 474.406 1078.41 474.408 1087.05 475.568C1095.65 476.725 1101.52 479.016 1105.99 483.485L1107.4 482.071C1102.5 477.168 1096.14 474.773 1087.31 473.586C1078.52 472.404 1067.12 472.406 1052.07 472.406V474.406ZM1117.07 537.406C1117.07 522.349 1117.07 510.956 1115.89 502.16C1114.7 493.335 1112.3 486.974 1107.4 482.071L1105.99 483.485C1110.46 487.955 1112.75 493.823 1113.9 502.426C1115.07 511.058 1115.07 522.293 1115.07 537.406H1117.07ZM1000.07 472.406C985.011 472.406 973.617 472.404 964.821 473.586C955.996 474.773 949.636 477.168 944.733 482.071L946.147 483.485C950.616 479.016 956.485 476.725 965.088 475.568C973.72 474.408 984.954 474.406 1000.07 474.406V472.406ZM937.067 537.406C937.067 522.293 937.069 511.058 938.23 502.426C939.387 493.823 941.677 487.955 946.147 483.485L944.733 482.071C939.83 486.974 937.434 493.335 936.248 502.16C935.065 510.956 935.067 522.349 935.067 537.406H937.067Z" fill="#D9D9D9"/>
</g>
<path fill-rule="evenodd" clip-rule="evenodd" d="M996.77 523.17C991.064 523.17 986.842 528.164 987.031 533.58C987.213 538.783 986.977 545.522 985.281 551.018C983.578 556.529 980.701 560.021 976 560.47V565.53C980.701 565.98 983.578 569.47 985.28 574.982C986.977 580.478 987.213 587.217 987.031 592.42C986.842 597.836 991.064 602.83 996.771 602.83H1055.24C1060.94 602.83 1065.16 597.836 1064.98 592.42C1064.79 587.217 1065.03 580.478 1066.73 574.982C1068.43 569.47 1071.3 565.978 1076 565.53V560.47C1071.3 560.02 1068.43 556.53 1066.73 551.018C1065.03 545.523 1064.79 538.783 1064.98 533.58C1065.16 528.164 1060.94 523.17 1055.24 523.17H996.77H996.77ZM1043.8 572.206C1043.8 579.664 1038.23 584.187 1029 584.187H1013.29C1012.84 584.187 1012.41 584.008 1012.09 583.69C1011.77 583.372 1011.59 582.941 1011.59 582.492V543.509C1011.59 543.059 1011.77 542.628 1012.09 542.31C1012.41 541.992 1012.84 541.814 1013.29 541.814H1028.91C1036.61 541.814 1041.66 545.983 1041.66 552.385C1041.66 556.878 1038.26 560.9 1033.93 561.605V561.839C1039.83 562.486 1043.8 566.568 1043.8 572.206V572.206ZM1027.29 547.187H1018.33V559.843H1025.88C1031.71 559.843 1034.93 557.494 1034.93 553.295C1034.93 549.359 1032.16 547.187 1027.29 547.187ZM1018.33 564.864V578.812H1027.62C1033.69 578.812 1036.91 576.375 1036.91 571.794C1036.91 567.214 1033.6 564.864 1027.23 564.864H1018.33V564.864Z" fill="#7952B3"/>
<g filter="url(#filter5_d_103_2)">
<path d="M656.343 331.406C656.343 301.236 656.343 286.151 665.716 276.778C675.089 267.406 690.173 267.406 720.343 267.406H772.343C802.513 267.406 817.598 267.406 826.971 276.778C836.343 286.151 836.343 301.236 836.343 331.406V383.406C836.343 413.576 836.343 428.661 826.971 438.033C817.598 447.406 802.513 447.406 772.343 447.406H720.343C690.173 447.406 675.089 447.406 665.716 438.033C656.343 428.661 656.343 413.576 656.343 383.406V331.406Z" fill="white"/>
<path d="M665.716 438.033L665.009 438.74L665.716 438.033ZM826.971 438.033L826.264 437.326L826.971 438.033ZM826.971 276.778L827.678 276.071L826.971 276.778ZM720.343 268.406H772.343V266.406H720.343V268.406ZM835.343 331.406V383.406H837.343V331.406H835.343ZM772.343 446.406H720.343V448.406H772.343V446.406ZM657.343 383.406V331.406H655.343V383.406H657.343ZM720.343 446.406C705.23 446.406 693.996 446.404 685.364 445.243C676.761 444.086 670.893 441.796 666.423 437.326L665.009 438.74C669.912 443.643 676.273 446.039 685.097 447.225C693.894 448.408 705.287 448.406 720.343 448.406V446.406ZM655.343 383.406C655.343 398.462 655.341 409.856 656.524 418.652C657.71 427.477 660.106 433.837 665.009 438.74L666.423 437.326C661.954 432.857 659.663 426.988 658.506 418.385C657.346 409.753 657.343 398.519 657.343 383.406H655.343ZM835.343 383.406C835.343 398.519 835.341 409.753 834.181 418.385C833.024 426.988 830.733 432.857 826.264 437.326L827.678 438.74C832.581 433.837 834.976 427.477 836.163 418.652C837.346 409.856 837.343 398.462 837.343 383.406H835.343ZM772.343 448.406C787.4 448.406 798.793 448.408 807.589 447.225C816.414 446.039 822.775 443.643 827.678 438.74L826.264 437.326C821.794 441.796 815.926 444.086 807.323 445.243C798.691 446.404 787.457 446.406 772.343 446.406V448.406ZM772.343 268.406C787.457 268.406 798.691 268.408 807.323 269.568C815.926 270.725 821.794 273.016 826.264 277.485L827.678 276.071C822.775 271.168 816.414 268.773 807.589 267.586C798.793 266.404 787.4 266.406 772.343 266.406V268.406ZM837.343 331.406C837.343 316.349 837.346 304.956 836.163 296.16C834.976 287.335 832.581 280.974 827.678 276.071L826.264 277.485C830.733 281.955 833.024 287.823 834.181 296.426C835.341 305.058 835.343 316.293 835.343 331.406H837.343ZM720.343 266.406C705.287 266.406 693.894 266.404 685.097 267.586C676.273 268.773 669.912 271.168 665.009 276.071L666.423 277.485C670.893 273.016 676.761 270.725 685.364 269.568C693.996 268.408 705.23 268.406 720.343 268.406V266.406ZM657.343 331.406C657.343 316.293 657.346 305.058 658.506 296.426C659.663 287.823 661.954 281.955 666.423 277.485L665.009 276.071C660.106 280.974 657.71 287.335 656.524 296.16C655.341 304.956 655.343 316.349 655.343 331.406H657.343Z" fill="#D9D9D9"/>
</g>
<path d="M745.87 307.009C745.87 307.009 775.239 305.687 790.805 335.203H743.373C743.373 335.203 734.415 334.908 726.779 345.776C724.577 350.329 722.228 355.028 724.87 364.278C721.053 357.818 704.605 329.183 704.605 329.183C704.605 329.183 716.208 308.183 745.87 307.009Z" fill="#C6352E"/>
<path d="M789.276 381.949C789.276 381.949 775.732 408.041 742.388 406.758C746.501 399.638 766.109 365.685 766.109 365.685C766.109 365.685 770.843 358.075 765.253 346.028C762.412 341.843 759.518 337.459 750.185 335.121C757.691 335.046 790.711 335.126 790.711 335.126C790.711 335.126 803.093 355.674 789.276 381.949Z" fill="#F4D911"/>
<path d="M702.674 382.147C702.674 382.147 686.85 357.369 704.635 329.135C708.745 336.257 728.342 370.217 728.342 370.217C728.342 370.217 732.564 378.122 745.793 379.305C750.836 378.937 756.082 378.624 762.773 371.711C759.084 378.247 742.503 406.804 742.503 406.804C742.503 406.804 718.517 407.252 702.674 382.147Z" fill="#81B354"/>
<path d="M742.388 407L749.059 379.159C749.059 379.159 756.395 378.587 762.542 371.84C758.726 378.553 742.388 407 742.388 407V407Z" fill="#7BAA50"/>
<path d="M723.525 357.312C723.525 345.038 733.473 335.089 745.748 335.089C758.021 335.089 767.97 345.038 767.97 357.312C767.97 369.585 758.021 379.535 745.748 379.535C733.473 379.535 723.525 369.586 723.525 357.312V357.312Z" fill="white"/>
<path d="M727.244 357.312C727.244 347.093 735.528 338.809 745.748 338.809C755.966 338.809 764.25 347.093 764.25 357.312C764.25 367.53 755.966 375.815 745.748 375.815C735.528 375.815 727.244 367.53 727.244 357.312V357.312Z" fill="url(#paint0_linear_103_2)"/>
<path d="M790.711 335.126L763.238 343.181C763.238 343.181 759.095 337.101 750.184 335.121C757.905 335.095 790.711 335.126 790.711 335.126Z" fill="#E7CE12"/>
<path d="M724.336 363.279C720.475 356.592 704.606 329.182 704.606 329.182L724.958 349.314C724.958 349.314 722.866 353.616 723.659 359.761L724.336 363.279V363.279Z" fill="#BC332C"/>
<g filter="url(#filter6_d_103_2)">
<path d="M558.896 71.4058C558.896 41.2359 558.896 26.1509 568.268 16.7783C577.641 7.40576 592.726 7.40576 622.896 7.40576H674.896C705.066 7.40576 720.15 7.40576 729.523 16.7783C738.896 26.1509 738.896 41.2359 738.896 71.4058V123.406C738.896 153.576 738.896 168.661 729.523 178.033C720.15 187.406 705.066 187.406 674.896 187.406H622.896C592.726 187.406 577.641 187.406 568.268 178.033C558.896 168.661 558.896 153.576 558.896 123.406V71.4058Z" fill="white"/>
<path d="M568.268 178.033L567.561 178.74L568.268 178.033ZM729.523 178.033L728.816 177.326L729.523 178.033ZM729.523 16.7783L730.23 16.0712L729.523 16.7783ZM622.896 8.40576H674.896V6.40576H622.896V8.40576ZM737.896 71.4058V123.406H739.896V71.4058H737.896ZM674.896 186.406H622.896V188.406H674.896V186.406ZM559.896 123.406V71.4058H557.896V123.406H559.896ZM622.896 186.406C607.782 186.406 596.548 186.404 587.916 185.243C579.313 184.086 573.445 181.796 568.975 177.326L567.561 178.74C572.464 183.643 578.825 186.039 587.65 187.225C596.446 188.408 607.839 188.406 622.896 188.406V186.406ZM557.896 123.406C557.896 138.462 557.894 149.856 559.076 158.652C560.263 167.477 562.658 173.837 567.561 178.74L568.975 177.326C564.506 172.857 562.215 166.988 561.058 158.385C559.898 149.753 559.896 138.519 559.896 123.406H557.896ZM737.896 123.406C737.896 138.519 737.894 149.753 736.733 158.385C735.576 166.988 733.285 172.857 728.816 177.326L730.23 178.74C735.133 173.837 737.529 167.477 738.715 158.652C739.898 149.856 739.896 138.462 739.896 123.406H737.896ZM674.896 188.406C689.952 188.406 701.345 188.408 710.142 187.225C718.967 186.039 725.327 183.643 730.23 178.74L728.816 177.326C724.346 181.796 718.478 184.086 709.875 185.243C701.243 186.404 690.009 186.406 674.896 186.406V188.406ZM674.896 8.40576C690.009 8.40576 701.243 8.40789 709.875 9.56842C718.478 10.7251 724.346 13.0159 728.816 17.4855L730.23 16.0712C725.327 11.1682 718.967 8.77273 710.142 7.58625C701.345 6.40364 689.952 6.40576 674.896 6.40576V8.40576ZM739.896 71.4058C739.896 56.3491 739.898 44.956 738.715 36.1598C737.529 27.3349 735.133 20.9743 730.23 16.0712L728.816 17.4855C733.285 21.955 735.576 27.8232 736.733 36.4263C737.894 45.0582 737.896 56.2925 737.896 71.4058H739.896ZM622.896 6.40576C607.839 6.40576 596.446 6.40364 587.65 7.58625C578.825 8.77273 572.464 11.1682 567.561 16.0712L568.975 17.4855C573.445 13.0159 579.313 10.7251 587.916 9.56842C596.548 8.40789 607.782 8.40576 622.896 8.40576V6.40576ZM559.896 71.4058C559.896 56.2925 559.898 45.0582 561.058 36.4263C562.215 27.8232 564.506 21.955 568.975 17.4855L567.561 16.0712C562.658 20.9743 560.263 27.3349 559.076 36.1598C557.894 44.956 557.896 56.3491 557.896 71.4058H559.896Z" fill="#D9D9D9"/>
</g>
<path d="M668.289 115.834C671.98 115.452 674.779 112.271 674.652 108.453C674.525 104.636 671.343 101.581 667.526 101.581H667.271C663.326 101.709 660.272 105.017 660.4 108.962C660.527 110.871 661.29 112.525 662.436 113.671C658.109 122.197 651.492 128.433 641.566 133.65C634.821 137.214 627.823 138.486 620.824 137.596C615.097 136.832 610.643 134.287 607.843 130.087C603.771 123.852 603.39 117.107 606.826 110.362C609.244 105.526 613.061 101.963 615.479 100.181C614.97 98.5269 614.206 95.7273 613.825 93.6914C595.373 107.053 597.282 125.124 602.881 133.65C607.08 140.014 615.606 143.959 625.023 143.959C627.568 143.959 630.113 143.704 632.658 143.068C648.947 139.886 661.291 130.214 668.289 115.834V115.834ZM690.686 100.054C681.015 88.7281 666.763 82.4926 650.474 82.4926H648.438C647.293 80.2019 644.875 78.6746 642.202 78.6746H641.948C638.003 78.8019 634.949 82.1105 635.076 86.0558C635.203 89.8734 638.385 92.9277 642.202 92.9277H642.457C645.256 92.8004 647.674 91.0187 648.692 88.6008H650.983C660.654 88.6008 669.816 91.4004 678.088 96.8726C684.451 101.072 689.032 106.545 691.577 113.162C693.74 118.507 693.613 123.724 691.322 128.178C687.759 134.923 681.779 138.614 673.889 138.614C668.798 138.614 663.963 137.086 661.418 135.941C660.018 137.214 657.473 139.25 655.691 140.523C661.163 143.068 666.763 144.468 672.107 144.468C684.323 144.468 693.359 137.723 696.795 130.978C700.485 123.597 700.23 110.871 690.686 100.054V100.054ZM626.041 117.997C626.168 121.815 629.35 124.869 633.167 124.869H633.422C637.367 124.742 640.421 121.433 640.293 117.488C640.166 113.67 636.985 110.616 633.167 110.616H632.913C632.658 110.616 632.276 110.616 632.022 110.743C626.805 102.09 624.641 92.673 625.405 82.4922C625.914 74.8566 628.459 68.239 632.913 62.7668C636.603 58.0582 643.729 55.7676 648.565 55.6406C662.054 55.3859 667.78 72.184 668.162 78.9289C669.816 79.3105 672.616 80.2015 674.525 80.8379C672.998 60.2223 660.272 49.5324 648.056 49.5324C636.603 49.5324 626.041 57.8043 621.841 70.0211C615.988 86.3101 619.805 101.963 626.932 114.307C626.296 115.198 625.914 116.598 626.041 117.998V117.997Z" fill="#764ABC"/>
<g filter="url(#filter7_d_103_2)">
<path d="M-0.276123 667.218C-0.276123 637.048 -0.276123 621.963 9.09646 612.59C18.469 603.218 33.554 603.218 63.7239 603.218H115.724C145.894 603.218 160.979 603.218 170.351 612.59C179.724 621.963 179.724 637.048 179.724 667.218V719.218C179.724 749.388 179.724 764.473 170.351 773.845C160.979 783.218 145.894 783.218 115.724 783.218H63.7239C33.554 783.218 18.469 783.218 9.09646 773.845C-0.276123 764.473 -0.276123 749.388 -0.276123 719.218V667.218Z" fill="white"/>
<path d="M9.09646 773.845L8.38935 774.552L9.09646 773.845ZM170.351 773.845L169.644 773.138L170.351 773.845ZM170.351 612.59L171.058 611.883L170.351 612.59ZM63.7239 604.218H115.724V602.218H63.7239V604.218ZM178.724 667.218V719.218H180.724V667.218H178.724ZM115.724 782.218H63.7239V784.218H115.724V782.218ZM0.723877 719.218V667.218H-1.27612V719.218H0.723877ZM63.7239 782.218C48.6107 782.218 37.3763 782.216 28.7444 781.055C20.1413 779.898 14.2731 777.608 9.80357 773.138L8.38935 774.552C13.2924 779.455 19.653 781.851 28.4779 783.037C37.2741 784.22 48.6672 784.218 63.7239 784.218V782.218ZM-1.27612 719.218C-1.27612 734.274 -1.27825 745.668 -0.095633 754.464C1.09085 763.289 3.48629 769.649 8.38935 774.552L9.80357 773.138C5.33404 768.669 3.0432 762.8 1.88653 754.197C0.726001 745.565 0.723877 734.331 0.723877 719.218H-1.27612ZM178.724 719.218C178.724 734.331 178.722 745.565 177.561 754.197C176.405 762.8 174.114 768.669 169.644 773.138L171.058 774.552C175.961 769.649 178.357 763.289 179.543 754.464C180.726 745.668 180.724 734.274 180.724 719.218H178.724ZM115.724 784.218C130.781 784.218 142.174 784.22 150.97 783.037C159.795 781.851 166.155 779.455 171.058 774.552L169.644 773.138C165.175 777.608 159.306 779.898 150.703 781.055C142.071 782.216 130.837 782.218 115.724 782.218V784.218ZM115.724 604.218C130.837 604.218 142.071 604.22 150.703 605.38C159.306 606.537 165.175 608.828 169.644 613.297L171.058 611.883C166.155 606.98 159.795 604.585 150.97 603.398C142.174 602.216 130.781 602.218 115.724 602.218V604.218ZM180.724 667.218C180.724 652.161 180.726 640.768 179.543 631.972C178.357 623.147 175.961 616.786 171.058 611.883L169.644 613.297C174.114 617.767 176.405 623.635 177.561 632.238C178.722 640.87 178.724 652.105 178.724 667.218H180.724ZM63.7239 602.218C48.6672 602.218 37.2741 602.216 28.4779 603.398C19.653 604.585 13.2924 606.98 8.38935 611.883L9.80357 613.297C14.2731 608.828 20.1413 606.537 28.7444 605.38C37.3764 604.22 48.6107 604.218 63.7239 604.218V602.218ZM0.723877 667.218C0.723877 652.105 0.726001 640.87 1.88653 632.238C3.0432 623.635 5.33404 617.767 9.80357 613.297L8.38935 611.883C3.48629 616.786 1.09085 623.147 -0.095633 631.972C-1.27825 640.768 -1.27612 652.161 -1.27612 667.218H0.723877Z" fill="#D9D9D9"/>
</g>
<g clip-path="url(#clip1_103_2)">
<path d="M39.7239 643.218H139.724V743.218H39.7239V643.218Z" fill="#6762A5"/>
<path d="M96.4239 722.014V690.518C96.4239 690.518 98.4718 682.982 71.1879 693.602C71.1399 693.738 71.1399 664.474 71.1399 664.474L80.0559 664.418V683.166C80.0559 683.166 105.016 673.334 105.016 690.622V722.014H96.4239ZM101.504 675.766H92.0479C95.4519 671.606 98.5318 664.474 98.5318 664.474H108.308C108.312 664.474 106.636 669.122 101.504 675.766ZM71.2999 721.962V704.026L80.2679 712.994L71.2999 721.962Z" fill="white"/>
</g>
<g filter="url(#filter8_d_103_2)">
<path d="M598.724 677.406C598.724 647.236 598.724 632.151 608.097 622.778C617.469 613.406 632.554 613.406 662.724 613.406H714.724C744.894 613.406 759.979 613.406 769.351 622.778C778.724 632.151 778.724 647.236 778.724 677.406V729.406C778.724 759.576 778.724 774.661 769.351 784.033C759.979 793.406 744.894 793.406 714.724 793.406H662.724C632.554 793.406 617.469 793.406 608.097 784.033C598.724 774.661 598.724 759.576 598.724 729.406V677.406Z" fill="white"/>
<path d="M608.097 784.033L607.389 784.74L608.097 784.033ZM769.351 784.033L768.644 783.326L769.351 784.033ZM769.351 622.778L770.059 622.071L769.351 622.778ZM662.724 614.406H714.724V612.406H662.724V614.406ZM777.724 677.406V729.406H779.724V677.406H777.724ZM714.724 792.406H662.724V794.406H714.724V792.406ZM599.724 729.406V677.406H597.724V729.406H599.724ZM662.724 792.406C647.611 792.406 636.376 792.404 627.745 791.243C619.141 790.086 613.273 787.796 608.804 783.326L607.389 784.74C612.293 789.643 618.653 792.039 627.478 793.225C636.274 794.408 647.667 794.406 662.724 794.406V792.406ZM597.724 729.406C597.724 744.462 597.722 755.856 598.904 764.652C600.091 773.477 602.486 779.837 607.389 784.74L608.804 783.326C604.334 778.857 602.043 772.988 600.887 764.385C599.726 755.753 599.724 744.519 599.724 729.406H597.724ZM777.724 729.406C777.724 744.519 777.722 755.753 776.561 764.385C775.405 772.988 773.114 778.857 768.644 783.326L770.059 784.74C774.962 779.837 777.357 773.477 778.544 764.652C779.726 755.856 779.724 744.462 779.724 729.406H777.724ZM714.724 794.406C729.781 794.406 741.174 794.408 749.97 793.225C758.795 792.039 765.155 789.643 770.059 784.74L768.644 783.326C764.175 787.796 758.307 790.086 749.703 791.243C741.072 792.404 729.837 792.406 714.724 792.406V794.406ZM714.724 614.406C729.837 614.406 741.072 614.408 749.703 615.568C758.307 616.725 764.175 619.016 768.644 623.485L770.059 622.071C765.155 617.168 758.795 614.773 749.97 613.586C741.174 612.404 729.781 612.406 714.724 612.406V614.406ZM779.724 677.406C779.724 662.349 779.726 650.956 778.544 642.16C777.357 633.335 774.962 626.974 770.059 622.071L768.644 623.485C773.114 627.955 775.405 633.823 776.561 642.426C777.722 651.058 777.724 662.293 777.724 677.406H779.724ZM662.724 612.406C647.667 612.406 636.274 612.404 627.478 613.586C618.653 614.773 612.293 617.168 607.389 622.071L608.804 623.485C613.273 619.016 619.141 616.725 627.745 615.568C636.376 614.408 647.611 614.406 662.724 614.406V612.406ZM599.724 677.406C599.724 662.293 599.726 651.058 600.887 642.426C602.043 633.823 604.334 627.955 608.804 623.485L607.389 622.071C602.486 626.974 600.091 633.335 598.904 642.16C597.722 650.956 597.724 662.349 597.724 677.406H599.724Z" fill="#D9D9D9"/>
</g>
<path d="M688.915 727.437C711.039 757.597 732.69 719.02 732.658 695.82C732.621 668.392 704.82 653.063 688.897 653.063C663.339 653.062 639 674.184 639 703.084C639 735.207 666.9 753 688.897 753C683.92 752.283 667.331 748.729 667.108 710.521C666.958 684.679 675.538 674.355 688.861 678.896C689.16 679.007 703.557 684.687 703.557 703.24C703.557 721.715 688.915 727.437 688.915 727.437V727.437Z" fill="url(#paint1_linear_103_2)"/>
<path d="M688.89 678.875C674.271 673.837 656.363 685.885 656.363 710.018C656.363 749.423 685.563 753 689.103 753C714.661 753 739 731.877 739 702.978C739 670.855 711.1 653.062 689.103 653.062C695.195 652.218 721.941 659.656 721.941 696.21C721.941 720.048 701.97 733.025 688.981 727.481C688.683 727.37 674.285 721.691 674.285 703.137C674.285 684.662 688.89 678.875 688.89 678.875V678.875Z" fill="url(#paint2_linear_103_2)"/>
<g filter="url(#filter9_d_103_2)">
<path d="M908 210C908 179.83 908 164.745 917.373 155.373C926.745 146 941.83 146 972 146H1024C1054.17 146 1069.25 146 1078.63 155.373C1088 164.745 1088 179.83 1088 210V262C1088 292.17 1088 307.255 1078.63 316.627C1069.25 326 1054.17 326 1024 326H972C941.83 326 926.745 326 917.373 316.627C908 307.255 908 292.17 908 262V210Z" fill="white"/>
<path d="M917.373 316.627L916.665 317.335L917.373 316.627ZM1078.63 316.627L1077.92 315.92L1078.63 316.627ZM1078.63 155.373L1079.33 154.665L1078.63 155.373ZM972 147H1024V145H972V147ZM1087 210V262H1089V210H1087ZM1024 325H972V327H1024V325ZM909 262V210H907V262H909ZM972 325C956.887 325 945.652 324.998 937.021 323.837C928.417 322.681 922.549 320.39 918.08 315.92L916.665 317.335C921.569 322.238 927.929 324.633 936.754 325.82C945.55 327.002 956.943 327 972 327V325ZM907 262C907 277.057 906.998 288.45 908.18 297.246C909.367 306.071 911.762 312.431 916.665 317.335L918.08 315.92C913.61 311.451 911.319 305.583 910.163 296.979C909.002 288.348 909 277.113 909 262H907ZM1087 262C1087 277.113 1087 288.348 1085.84 296.979C1084.68 305.583 1082.39 311.451 1077.92 315.92L1079.33 317.335C1084.24 312.431 1086.63 306.071 1087.82 297.246C1089 288.45 1089 277.057 1089 262H1087ZM1024 327C1039.06 327 1050.45 327.002 1059.25 325.82C1068.07 324.633 1074.43 322.238 1079.33 317.335L1077.92 315.92C1073.45 320.39 1067.58 322.681 1058.98 323.837C1050.35 324.998 1039.11 325 1024 325V327ZM1024 147C1039.11 147 1050.35 147.002 1058.98 148.163C1067.58 149.319 1073.45 151.61 1077.92 156.08L1079.33 154.665C1074.43 149.762 1068.07 147.367 1059.25 146.18C1050.45 144.998 1039.06 145 1024 145V147ZM1089 210C1089 194.943 1089 183.55 1087.82 174.754C1086.63 165.929 1084.24 159.569 1079.33 154.665L1077.92 156.08C1082.39 160.549 1084.68 166.417 1085.84 175.021C1087 183.652 1087 194.887 1087 210H1089ZM972 145C956.943 145 945.55 144.998 936.754 146.18C927.929 147.367 921.569 149.762 916.665 154.665L918.08 156.08C922.549 151.61 928.417 149.319 937.021 148.163C945.652 147.002 956.887 147 972 147V145ZM909 210C909 194.887 909.002 183.652 910.163 175.021C911.319 166.417 913.61 160.549 918.08 156.08L916.665 154.665C911.762 159.569 909.367 165.929 908.18 174.754C906.998 183.55 907 194.943 907 210H909Z" fill="#D9D9D9"/>
</g>
<path d="M961.928 276.034L953.907 186H1042.09L1034.07 275.985L997.927 286" fill="#E44D26"/>
<path d="M998 278.344V193.39H1034.05L1027.17 270.201" fill="#F16529"/>
<path d="M970.29 204.401H998V215.436H982.395L983.416 226.739H998V237.75H973.304L970.29 204.401ZM973.79 243.292H984.874L985.652 252.116L998 255.422V266.943L975.346 260.624" fill="#EBEBEB"/>
<path d="M1025.61 204.401H997.951V215.436H1024.59L1025.61 204.401ZM1023.6 226.739H997.951V237.775H1011.56L1010.27 252.116L997.951 255.422V266.895L1020.56 260.624" fill="white"/>
</g>
<defs>
<filter id="filter0_d_103_2" x="-39.8282" y="-29.5942" width="260" height="260" filterUnits="userSpaceOnUse" color-interpolation-filters="sRGB">
<feFlood flood-opacity="0" result="BackgroundImageFix"/>
<feColorMatrix in="SourceAlpha" type="matrix" values="0 0 0 0 0 0 0 0 0 0 0 0 0 0 0 0 0 0 127 0" result="hardAlpha"/>
<feOffset dy="4"/>
<feGaussianBlur stdDeviation="20"/>
<feComposite in2="hardAlpha" operator="out"/>
<feColorMatrix type="matrix" values="0 0 0 0 0.0367917 0 0 0 0 0.0348958 0 0 0 0 0.0484375 0 0 0 0.1 0"/>
<feBlend mode="normal" in2="BackgroundImageFix" result="effect1_dropShadow_103_2"/>
<feBlend mode="normal" in="SourceGraphic" in2="effect1_dropShadow_103_2" result="shape"/>
</filter>
<filter id="filter1_d_103_2" x="255.172" y="79.4058" width="260" height="260" filterUnits="userSpaceOnUse" color-interpolation-filters="sRGB">
<feFlood flood-opacity="0" result="BackgroundImageFix"/>
<feColorMatrix in="SourceAlpha" type="matrix" values="0 0 0 0 0 0 0 0 0 0 0 0 0 0 0 0 0 0 127 0" result="hardAlpha"/>
<feOffset dy="4"/>
<feGaussianBlur stdDeviation="20"/>
<feComposite in2="hardAlpha" operator="out"/>
<feColorMatrix type="matrix" values="0 0 0 0 0.0367917 0 0 0 0 0.0348958 0 0 0 0 0.0484375 0 0 0 0.1 0"/>
<feBlend mode="normal" in2="BackgroundImageFix" result="effect1_dropShadow_103_2"/>
<feBlend mode="normal" in="SourceGraphic" in2="effect1_dropShadow_103_2" result="shape"/>
</filter>
<filter id="filter2_d_103_2" x="279.172" y="427.406" width="260" height="260" filterUnits="userSpaceOnUse" color-interpolation-filters="sRGB">
<feFlood flood-opacity="0" result="BackgroundImageFix"/>
<feColorMatrix in="SourceAlpha" type="matrix" values="0 0 0 0 0 0 0 0 0 0 0 0 0 0 0 0 0 0 127 0" result="hardAlpha"/>
<feOffset dy="4"/>
<feGaussianBlur stdDeviation="20"/>
<feComposite in2="hardAlpha" operator="out"/>
<feColorMatrix type="matrix" values="0 0 0 0 0.0367917 0 0 0 0 0.0348958 0 0 0 0 0.0484375 0 0 0 0.1 0"/>
<feBlend mode="normal" in2="BackgroundImageFix" result="effect1_dropShadow_103_2"/>
<feBlend mode="normal" in="SourceGraphic" in2="effect1_dropShadow_103_2" result="shape"/>
</filter>
<filter id="filter3_d_103_2" x="31.3434" y="257.406" width="260" height="260" filterUnits="userSpaceOnUse" color-interpolation-filters="sRGB">
<feFlood flood-opacity="0" result="BackgroundImageFix"/>
<feColorMatrix in="SourceAlpha" type="matrix" values="0 0 0 0 0 0 0 0 0 0 0 0 0 0 0 0 0 0 127 0" result="hardAlpha"/>
<feOffset dy="4"/>
<feGaussianBlur stdDeviation="20"/>
<feComposite in2="hardAlpha" operator="out"/>
<feColorMatrix type="matrix" values="0 0 0 0 0.0367917 0 0 0 0 0.0348958 0 0 0 0 0.0484375 0 0 0 0.1 0"/>
<feBlend mode="normal" in2="BackgroundImageFix" result="effect1_dropShadow_103_2"/>
<feBlend mode="normal" in="SourceGraphic" in2="effect1_dropShadow_103_2" result="shape"/>
</filter>
<filter id="filter4_d_103_2" x="896.067" y="437.406" width="260" height="260" filterUnits="userSpaceOnUse" color-interpolation-filters="sRGB">
<feFlood flood-opacity="0" result="BackgroundImageFix"/>
<feColorMatrix in="SourceAlpha" type="matrix" values="0 0 0 0 0 0 0 0 0 0 0 0 0 0 0 0 0 0 127 0" result="hardAlpha"/>
<feOffset dy="4"/>
<feGaussianBlur stdDeviation="20"/>
<feComposite in2="hardAlpha" operator="out"/>
<feColorMatrix type="matrix" values="0 0 0 0 0.0367917 0 0 0 0 0.0348958 0 0 0 0 0.0484375 0 0 0 0.1 0"/>
<feBlend mode="normal" in2="BackgroundImageFix" result="effect1_dropShadow_103_2"/>
<feBlend mode="normal" in="SourceGraphic" in2="effect1_dropShadow_103_2" result="shape"/>
</filter>
<filter id="filter5_d_103_2" x="616.343" y="231.406" width="260" height="260" filterUnits="userSpaceOnUse" color-interpolation-filters="sRGB">
<feFlood flood-opacity="0" result="BackgroundImageFix"/>
<feColorMatrix in="SourceAlpha" type="matrix" values="0 0 0 0 0 0 0 0 0 0 0 0 0 0 0 0 0 0 127 0" result="hardAlpha"/>
<feOffset dy="4"/>
<feGaussianBlur stdDeviation="20"/>
<feComposite in2="hardAlpha" operator="out"/>
<feColorMatrix type="matrix" values="0 0 0 0 0.0367917 0 0 0 0 0.0348958 0 0 0 0 0.0484375 0 0 0 0.1 0"/>
<feBlend mode="normal" in2="BackgroundImageFix" result="effect1_dropShadow_103_2"/>
<feBlend mode="normal" in="SourceGraphic" in2="effect1_dropShadow_103_2" result="shape"/>
</filter>
<filter id="filter6_d_103_2" x="518.896" y="-28.5942" width="260" height="260" filterUnits="userSpaceOnUse" color-interpolation-filters="sRGB">
<feFlood flood-opacity="0" result="BackgroundImageFix"/>
<feColorMatrix in="SourceAlpha" type="matrix" values="0 0 0 0 0 0 0 0 0 0 0 0 0 0 0 0 0 0 127 0" result="hardAlpha"/>
<feOffset dy="4"/>
<feGaussianBlur stdDeviation="20"/>
<feComposite in2="hardAlpha" operator="out"/>
<feColorMatrix type="matrix" values="0 0 0 0 0.0367917 0 0 0 0 0.0348958 0 0 0 0 0.0484375 0 0 0 0.1 0"/>
<feBlend mode="normal" in2="BackgroundImageFix" result="effect1_dropShadow_103_2"/>
<feBlend mode="normal" in="SourceGraphic" in2="effect1_dropShadow_103_2" result="shape"/>
</filter>
<filter id="filter7_d_103_2" x="-40.2761" y="567.218" width="260" height="260" filterUnits="userSpaceOnUse" color-interpolation-filters="sRGB">
<feFlood flood-opacity="0" result="BackgroundImageFix"/>
<feColorMatrix in="SourceAlpha" type="matrix" values="0 0 0 0 0 0 0 0 0 0 0 0 0 0 0 0 0 0 127 0" result="hardAlpha"/>
<feOffset dy="4"/>
<feGaussianBlur stdDeviation="20"/>
<feComposite in2="hardAlpha" operator="out"/>
<feColorMatrix type="matrix" values="0 0 0 0 0.0367917 0 0 0 0 0.0348958 0 0 0 0 0.0484375 0 0 0 0.1 0"/>
<feBlend mode="normal" in2="BackgroundImageFix" result="effect1_dropShadow_103_2"/>
<feBlend mode="normal" in="SourceGraphic" in2="effect1_dropShadow_103_2" result="shape"/>
</filter>
<filter id="filter8_d_103_2" x="558.724" y="577.406" width="260" height="260" filterUnits="userSpaceOnUse" color-interpolation-filters="sRGB">
<feFlood flood-opacity="0" result="BackgroundImageFix"/>
<feColorMatrix in="SourceAlpha" type="matrix" values="0 0 0 0 0 0 0 0 0 0 0 0 0 0 0 0 0 0 127 0" result="hardAlpha"/>
<feOffset dy="4"/>
<feGaussianBlur stdDeviation="20"/>
<feComposite in2="hardAlpha" operator="out"/>
<feColorMatrix type="matrix" values="0 0 0 0 0.0367917 0 0 0 0 0.0348958 0 0 0 0 0.0484375 0 0 0 0.1 0"/>
<feBlend mode="normal" in2="BackgroundImageFix" result="effect1_dropShadow_103_2"/>
<feBlend mode="normal" in="SourceGraphic" in2="effect1_dropShadow_103_2" result="shape"/>
</filter>
<filter id="filter9_d_103_2" x="868" y="110" width="260" height="260" filterUnits="userSpaceOnUse" color-interpolation-filters="sRGB">
<feFlood flood-opacity="0" result="BackgroundImageFix"/>
<feColorMatrix in="SourceAlpha" type="matrix" values="0 0 0 0 0 0 0 0 0 0 0 0 0 0 0 0 0 0 127 0" result="hardAlpha"/>
<feOffset dy="4"/>
<feGaussianBlur stdDeviation="20"/>
<feComposite in2="hardAlpha" operator="out"/>
<feColorMatrix type="matrix" values="0 0 0 0 0.0367917 0 0 0 0 0.0348958 0 0 0 0 0.0484375 0 0 0 0.1 0"/>
<feBlend mode="normal" in2="BackgroundImageFix" result="effect1_dropShadow_103_2"/>
<feBlend mode="normal" in="SourceGraphic" in2="effect1_dropShadow_103_2" result="shape"/>
</filter>
<linearGradient id="paint0_linear_103_2" x1="745.747" y1="339.071" x2="745.747" y2="374.708" gradientUnits="userSpaceOnUse">
<stop stop-color="#A2C0E6"/>
<stop offset="1" stop-color="#406CB1"/>
</linearGradient>
<linearGradient id="paint1_linear_103_2" x1="653.79" y1="667.79" x2="728.489" y2="733.397" gradientUnits="userSpaceOnUse">
<stop/>
<stop offset="1" stop-color="white"/>
</linearGradient>
<linearGradient id="paint2_linear_103_2" x1="724.238" y1="738.237" x2="643.387" y2="683.024" gradientUnits="userSpaceOnUse">
<stop/>
<stop offset="1" stop-color="white"/>
</linearGradient>
<clipPath id="clip0_103_2">
<rect width="1199" height="800" fill="white"/>
</clipPath>
<clipPath id="clip1_103_2">
<rect width="100" height="100" fill="white" transform="translate(39.7239 643.218)"/>
</clipPath>
</defs>
</svg>
