<svg width="1199" height="800" viewBox="0 0 1199 800" fill="none" xmlns="http://www.w3.org/2000/svg">
<g clip-path="url(#clip0_103_3)">
<g filter="url(#filter0_d_103_3)">
<path d="M20.8956 228C20.8956 197.83 20.8956 182.745 30.2682 173.373C39.6408 164 54.7257 164 84.8956 164H136.896C167.066 164 182.15 164 191.523 173.373C200.896 182.745 200.896 197.83 200.896 228V280C200.896 310.17 200.896 325.255 191.523 334.627C182.15 344 167.066 344 136.896 344H84.8956C54.7257 344 39.6408 344 30.2682 334.627C20.8956 325.255 20.8956 310.17 20.8956 280V228Z" fill="white"/>
<path d="M30.2682 334.627L29.5611 335.335L30.2682 334.627ZM191.523 334.627L190.816 333.92L191.523 334.627ZM191.523 173.373L192.23 172.665L191.523 173.373ZM84.8956 165H136.896V163H84.8956V165ZM199.896 228V280H201.896V228H199.896ZM136.896 343H84.8956V345H136.896V343ZM21.8956 280V228H19.8956V280H21.8956ZM84.8956 343C69.7824 343 58.5481 342.998 49.9162 341.837C41.313 340.681 35.4448 338.39 30.9753 333.92L29.5611 335.335C34.4642 340.238 40.8247 342.633 49.6497 343.82C58.4459 345.002 69.839 345 84.8956 345V343ZM19.8956 280C19.8956 295.057 19.8935 306.45 21.0761 315.246C22.2626 324.071 24.658 330.431 29.5611 335.335L30.9753 333.92C26.5058 329.451 24.2149 323.583 23.0583 314.979C21.8978 306.348 21.8956 295.113 21.8956 280H19.8956ZM199.896 280C199.896 295.113 199.894 306.348 198.733 314.979C197.576 323.583 195.285 329.451 190.816 333.92L192.23 335.335C197.133 330.431 199.529 324.071 200.715 315.246C201.898 306.45 201.896 295.057 201.896 280H199.896ZM136.896 345C151.952 345 163.345 345.002 172.142 343.82C180.967 342.633 187.327 340.238 192.23 335.335L190.816 333.92C186.346 338.39 180.478 340.681 171.875 341.837C163.243 342.998 152.009 343 136.896 343V345ZM136.896 165C152.009 165 163.243 165.002 171.875 166.163C180.478 167.319 186.346 169.61 190.816 174.08L192.23 172.665C187.327 167.762 180.967 165.367 172.142 164.18C163.345 162.998 151.952 163 136.896 163V165ZM201.896 228C201.896 212.943 201.898 201.55 200.715 192.754C199.529 183.929 197.133 177.569 192.23 172.665L190.816 174.08C195.285 178.549 197.576 184.417 198.733 193.021C199.894 201.652 199.896 212.887 199.896 228H201.896ZM84.8956 163C69.839 163 58.4459 162.998 49.6497 164.18C40.8248 165.367 34.4642 167.762 29.5611 172.665L30.9753 174.08C35.4448 169.61 41.313 167.319 49.9162 166.163C58.5481 165.002 69.7824 165 84.8956 165V163ZM21.8956 228C21.8956 212.887 21.8978 201.652 23.0583 193.021C24.2149 184.417 26.5058 178.549 30.9753 174.08L29.5611 172.665C24.658 177.569 22.2626 183.929 21.0761 192.754C19.8935 201.55 19.8956 212.943 19.8956 228H21.8956Z" fill="#D9D9D9"/>
</g>
<path d="M94.3334 304C103.533 304 111 296.533 111 287.333V270.667H94.3334C85.1334 270.667 77.6667 278.133 77.6667 287.333C77.6667 296.533 85.1334 304 94.3334 304Z" fill="#0ACF83"/>
<path d="M77.6667 254C77.6667 244.8 85.1334 237.333 94.3334 237.333H111V270.667H94.3334C85.1334 270.667 77.6667 263.2 77.6667 254Z" fill="#A259FF"/>
<path d="M77.6667 220.667C77.6667 211.467 85.1334 204 94.3334 204H111V237.333H94.3334C85.1334 237.333 77.6667 229.867 77.6667 220.667Z" fill="#F24E1E"/>
<path d="M111 204H127.667C136.867 204 144.333 211.467 144.333 220.667C144.333 229.867 136.867 237.333 127.667 237.333H111V204Z" fill="#FF7262"/>
<path d="M144.333 254C144.333 263.2 136.867 270.667 127.667 270.667C118.467 270.667 111 263.2 111 254C111 244.8 118.467 237.333 127.667 237.333C136.867 237.333 144.333 244.8 144.333 254Z" fill="#1ABCFE"/>
<g filter="url(#filter1_d_103_3)">
<path d="M523.448 168.406C523.448 138.236 523.448 123.151 532.82 113.778C542.193 104.406 557.278 104.406 587.448 104.406H639.448C669.618 104.406 684.703 104.406 694.075 113.778C703.448 123.151 703.448 138.236 703.448 168.406V220.406C703.448 250.576 703.448 265.661 694.075 275.033C684.703 284.406 669.618 284.406 639.448 284.406H587.448C557.278 284.406 542.193 284.406 532.82 275.033C523.448 265.661 523.448 250.576 523.448 220.406V168.406Z" fill="white"/>
<path d="M532.82 275.033L532.113 275.74L532.82 275.033ZM694.075 275.033L693.368 274.326L694.075 275.033ZM694.075 113.778L694.782 113.071L694.075 113.778ZM587.448 105.406H639.448V103.406H587.448V105.406ZM702.448 168.406V220.406H704.448V168.406H702.448ZM639.448 283.406H587.448V285.406H639.448V283.406ZM524.448 220.406V168.406H522.448V220.406H524.448ZM587.448 283.406C572.335 283.406 561.1 283.404 552.468 282.243C543.865 281.086 537.997 278.796 533.528 274.326L532.113 275.74C537.016 280.643 543.377 283.039 552.202 284.225C560.998 285.408 572.391 285.406 587.448 285.406V283.406ZM522.448 220.406C522.448 235.462 522.446 246.856 523.628 255.652C524.815 264.477 527.21 270.837 532.113 275.74L533.528 274.326C529.058 269.857 526.767 263.988 525.611 255.385C524.45 246.753 524.448 235.519 524.448 220.406H522.448ZM702.448 220.406C702.448 235.519 702.446 246.753 701.285 255.385C700.129 263.988 697.838 269.857 693.368 274.326L694.782 275.74C699.685 270.837 702.081 264.477 703.267 255.652C704.45 246.856 704.448 235.462 704.448 220.406H702.448ZM639.448 285.406C654.505 285.406 665.898 285.408 674.694 284.225C683.519 283.039 689.879 280.643 694.782 275.74L693.368 274.326C688.899 278.796 683.03 281.086 674.427 282.243C665.795 283.404 654.561 283.406 639.448 283.406V285.406ZM639.448 105.406C654.561 105.406 665.795 105.408 674.427 106.568C683.03 107.725 688.899 110.016 693.368 114.485L694.782 113.071C689.879 108.168 683.519 105.773 674.694 104.586C665.898 103.404 654.505 103.406 639.448 103.406V105.406ZM704.448 168.406C704.448 153.349 704.45 141.956 703.267 133.16C702.081 124.335 699.685 117.974 694.782 113.071L693.368 114.485C697.838 118.955 700.129 124.823 701.285 133.426C702.446 142.058 702.448 153.293 702.448 168.406H704.448ZM587.448 103.406C572.391 103.406 560.998 103.404 552.202 104.586C543.377 105.773 537.016 108.168 532.113 113.071L533.528 114.485C537.997 110.016 543.865 107.725 552.468 106.568C561.1 105.408 572.335 105.406 587.448 105.406V103.406ZM524.448 168.406C524.448 153.293 524.45 142.058 525.611 133.426C526.767 124.823 529.058 118.955 533.528 114.485L532.113 113.071C527.21 117.974 524.815 124.335 523.628 133.16C522.446 141.956 522.448 153.349 522.448 168.406H524.448Z" fill="#D9D9D9"/>
</g>
<path d="M613 145.234C585.389 145.234 563 167.62 563 195.234C563 217.326 577.327 236.068 597.193 242.68C599.692 243.143 600.61 241.595 600.61 240.274C600.61 239.082 600.563 235.143 600.542 230.965C586.631 233.99 583.696 225.066 583.696 225.066C581.422 219.287 578.145 217.75 578.145 217.75C573.608 214.647 578.487 214.71 578.487 214.71C583.508 215.063 586.151 219.863 586.151 219.863C590.611 227.507 597.848 225.297 600.701 224.02C601.15 220.788 602.446 218.582 603.876 217.334C592.77 216.069 581.095 211.782 581.095 192.623C581.095 187.165 583.049 182.704 586.247 179.202C585.728 177.943 584.017 172.858 586.732 165.97C586.732 165.97 590.93 164.627 600.485 171.096C604.473 169.987 608.751 169.432 613 169.413C617.249 169.432 621.53 169.987 625.526 171.096C635.07 164.627 639.262 165.97 639.262 165.97C641.984 172.858 640.272 177.943 639.753 179.202C642.958 182.704 644.898 187.164 644.898 192.623C644.898 211.827 633.201 216.056 622.068 217.294C623.861 218.845 625.459 221.888 625.459 226.553C625.459 233.243 625.401 238.627 625.401 240.274C625.401 241.605 626.301 243.164 628.836 242.673C648.691 236.054 663 217.319 663 195.234C663 167.62 640.614 145.234 613 145.234Z" fill="#161614"/>
<path d="M581.727 216.461C581.617 216.709 581.226 216.784 580.87 216.613C580.507 216.45 580.303 216.111 580.421 215.862C580.529 215.606 580.92 215.535 581.282 215.707C581.646 215.869 581.853 216.211 581.727 216.461V216.461ZM584.186 218.655C583.948 218.876 583.482 218.774 583.165 218.424C582.838 218.076 582.777 217.61 583.019 217.385C583.265 217.164 583.717 217.267 584.045 217.616C584.372 217.969 584.435 218.432 584.186 218.656L584.186 218.655ZM585.874 221.463C585.567 221.676 585.066 221.476 584.756 221.032C584.45 220.587 584.45 220.054 584.763 219.84C585.074 219.627 585.567 219.819 585.881 220.26C586.187 220.712 586.187 221.245 585.873 221.463L585.874 221.463ZM588.727 224.715C588.453 225.017 587.869 224.936 587.442 224.524C587.005 224.121 586.883 223.548 587.158 223.246C587.435 222.943 588.022 223.028 588.453 223.437C588.887 223.84 589.019 224.416 588.727 224.715H588.727ZM592.415 225.813C592.294 226.204 591.732 226.382 591.166 226.216C590.6 226.045 590.23 225.586 590.344 225.19C590.462 224.796 591.026 224.611 591.597 224.789C592.162 224.959 592.533 225.415 592.415 225.813H592.415ZM596.612 226.278C596.626 226.691 596.146 227.033 595.551 227.04C594.953 227.053 594.47 226.72 594.464 226.314C594.464 225.898 594.933 225.559 595.531 225.549C596.125 225.537 596.612 225.869 596.612 226.278V226.278ZM600.735 226.12C600.806 226.523 600.393 226.936 599.803 227.046C599.223 227.152 598.685 226.904 598.611 226.505C598.539 226.092 598.96 225.679 599.539 225.572C600.131 225.469 600.66 225.711 600.735 226.12" fill="#161614"/>
<g filter="url(#filter2_d_103_3)">
<path d="M271.724 390.703C271.724 360.533 271.724 345.448 281.097 336.075C290.469 326.703 305.554 326.703 335.724 326.703H387.724C417.894 326.703 432.979 326.703 442.351 336.075C451.724 345.448 451.724 360.533 451.724 390.703V442.703C451.724 472.873 451.724 487.958 442.351 497.33C432.979 506.703 417.894 506.703 387.724 506.703H335.724C305.554 506.703 290.469 506.703 281.097 497.33C271.724 487.958 271.724 472.873 271.724 442.703V390.703Z" fill="white"/>
<path d="M281.097 497.33L280.389 498.037L281.097 497.33ZM442.351 497.33L441.644 496.623L442.351 497.33ZM442.351 336.075L443.059 335.368L442.351 336.075ZM335.724 327.703H387.724V325.703H335.724V327.703ZM450.724 390.703V442.703H452.724V390.703H450.724ZM387.724 505.703H335.724V507.703H387.724V505.703ZM272.724 442.703V390.703H270.724V442.703H272.724ZM335.724 505.703C320.611 505.703 309.376 505.701 300.745 504.54C292.141 503.384 286.273 501.093 281.804 496.623L280.389 498.037C285.293 502.94 291.653 505.336 300.478 506.522C309.274 507.705 320.667 507.703 335.724 507.703V505.703ZM270.724 442.703C270.724 457.76 270.722 469.153 271.904 477.949C273.091 486.774 275.486 493.134 280.389 498.037L281.804 496.623C277.334 492.154 275.043 486.285 273.887 477.682C272.726 469.05 272.724 457.816 272.724 442.703H270.724ZM450.724 442.703C450.724 457.816 450.722 469.05 449.561 477.682C448.405 486.285 446.114 492.154 441.644 496.623L443.059 498.037C447.962 493.134 450.357 486.774 451.544 477.949C452.726 469.153 452.724 457.76 452.724 442.703H450.724ZM387.724 507.703C402.781 507.703 414.174 507.705 422.97 506.522C431.795 505.336 438.155 502.94 443.059 498.037L441.644 496.623C437.175 501.093 431.307 503.384 422.703 504.54C414.072 505.701 402.837 505.703 387.724 505.703V507.703ZM387.724 327.703C402.837 327.703 414.072 327.705 422.703 328.866C431.307 330.022 437.175 332.313 441.644 336.783L443.059 335.368C438.155 330.465 431.795 328.07 422.97 326.883C414.174 325.701 402.781 325.703 387.724 325.703V327.703ZM452.724 390.703C452.724 375.646 452.726 364.253 451.544 355.457C450.357 346.632 447.962 340.271 443.059 335.368L441.644 336.783C446.114 341.252 448.405 347.12 449.561 355.723C450.722 364.355 450.724 375.59 450.724 390.703H452.724ZM335.724 325.703C320.667 325.703 309.274 325.701 300.478 326.883C291.653 328.07 285.293 330.465 280.389 335.368L281.804 336.783C286.273 332.313 292.141 330.022 300.745 328.866C309.376 327.705 320.611 327.703 335.724 327.703V325.703ZM272.724 390.703C272.724 375.59 272.726 364.355 273.887 355.723C275.043 347.12 277.334 341.252 281.804 336.783L280.389 335.368C275.486 340.271 273.091 346.632 271.904 355.457C270.722 364.253 270.724 375.646 270.724 390.703H272.724Z" fill="#D9D9D9"/>
</g>
<path d="M362 367L317.808 392V442L362 467L406.192 442V392L362 367Z" fill="white"/>
<path d="M325.7 440.275L360.542 459.983V444.633L338.833 432.692L325.7 440.275ZM323.317 438.117V396.9L336.067 404.258V430.75L323.317 438.117ZM398.442 440.275L363.6 459.983V444.633L385.308 432.692L398.442 440.275V440.275ZM400.825 438.117V396.9L388.075 404.258V430.75L400.825 438.117V438.117ZM399.333 394.233L363.6 374.017V388.858L386.492 401.45L386.667 401.55L399.333 394.233V394.233ZM324.808 394.233L360.542 374.017V388.858L337.65 401.45L337.475 401.55L324.808 394.233V394.233Z" fill="#8ED6FB"/>
<path d="M363.6 441.142L385.017 429.367V406.033L363.6 418.4V441.142ZM360.542 441.142L339.125 429.367V406.033L360.542 418.4V441.142ZM383.567 403.333L362.067 391.508L340.567 403.333L362.067 415.75L383.567 403.333" fill="#1C78C0"/>
<g filter="url(#filter3_d_103_3)">
<path d="M399.62 668.703C399.62 638.533 399.62 623.448 408.992 614.075C418.365 604.703 433.45 604.703 463.62 604.703H515.62C545.789 604.703 560.874 604.703 570.247 614.075C579.62 623.448 579.62 638.533 579.62 668.703V720.703C579.62 750.873 579.62 765.958 570.247 775.33C560.874 784.703 545.789 784.703 515.62 784.703H463.62C433.45 784.703 418.365 784.703 408.992 775.33C399.62 765.958 399.62 750.873 399.62 720.703V668.703Z" fill="white"/>
<path d="M408.992 775.33L408.285 776.037L408.992 775.33ZM570.247 775.33L569.54 774.623L570.247 775.33ZM570.247 614.075L570.954 613.368L570.247 614.075ZM463.62 605.703H515.62V603.703H463.62V605.703ZM578.62 668.703V720.703H580.62V668.703H578.62ZM515.62 783.703H463.62V785.703H515.62V783.703ZM400.62 720.703V668.703H398.62V720.703H400.62ZM463.62 783.703C448.506 783.703 437.272 783.701 428.64 782.54C420.037 781.384 414.169 779.093 409.699 774.623L408.285 776.037C413.188 780.94 419.549 783.336 428.374 784.522C437.17 785.705 448.563 785.703 463.62 785.703V783.703ZM398.62 720.703C398.62 735.76 398.617 747.153 399.8 755.949C400.986 764.774 403.382 771.134 408.285 776.037L409.699 774.623C405.23 770.154 402.939 764.285 401.782 755.682C400.622 747.05 400.62 735.816 400.62 720.703H398.62ZM578.62 720.703C578.62 735.816 578.617 747.05 577.457 755.682C576.3 764.285 574.009 770.154 569.54 774.623L570.954 776.037C575.857 771.134 578.253 764.774 579.439 755.949C580.622 747.153 580.62 735.76 580.62 720.703H578.62ZM515.62 785.703C530.676 785.703 542.069 785.705 550.865 784.522C559.69 783.336 566.051 780.94 570.954 776.037L569.54 774.623C565.07 779.093 559.202 781.384 550.599 782.54C541.967 783.701 530.733 783.703 515.62 783.703V785.703ZM515.62 605.703C530.733 605.703 541.967 605.705 550.599 606.866C559.202 608.022 565.07 610.313 569.54 614.783L570.954 613.368C566.051 608.465 559.69 606.07 550.865 604.883C542.069 603.701 530.676 603.703 515.62 603.703V605.703ZM580.62 668.703C580.62 653.646 580.622 642.253 579.439 633.457C578.253 624.632 575.857 618.271 570.954 613.368L569.54 614.783C574.009 619.252 576.3 625.12 577.457 633.723C578.617 642.355 578.62 653.59 578.62 668.703H580.62ZM463.62 603.703C448.563 603.703 437.17 603.701 428.374 604.883C419.549 606.07 413.188 608.465 408.285 613.368L409.699 614.783C414.169 610.313 420.037 608.022 428.64 606.866C437.272 605.705 448.506 605.703 463.62 605.703V603.703ZM400.62 668.703C400.62 653.59 400.622 642.355 401.782 633.723C402.939 625.12 405.23 619.252 409.699 614.783L408.285 613.368C403.382 618.271 400.986 624.632 399.8 633.457C398.617 642.253 398.62 653.646 398.62 668.703H400.62Z" fill="#D9D9D9"/>
</g>
<path d="M526.108 700.614C522.619 700.632 519.587 701.473 517.048 702.715C516.117 700.87 515.185 699.226 515.021 698.02C514.838 696.614 514.619 695.756 514.838 694.075C515.057 692.395 516.044 690.002 516.025 689.819C516.007 689.637 515.806 688.778 513.797 688.76C511.788 688.742 510.053 689.143 509.852 689.673C509.651 690.203 509.267 691.408 509.011 692.65C508.664 694.477 504.993 700.998 502.893 704.413C502.217 703.08 501.632 701.911 501.504 700.979C501.322 699.573 501.103 698.715 501.322 697.034C501.541 695.354 502.527 692.961 502.509 692.778C502.491 692.596 502.29 691.737 500.281 691.719C498.271 691.701 496.536 692.102 496.335 692.632C496.134 693.162 495.915 694.404 495.495 695.609C495.075 696.815 490.198 707.701 488.919 710.514C488.262 711.957 487.696 713.108 487.294 713.893C487.294 713.893 487.276 713.948 487.221 714.039C486.874 714.715 486.673 715.08 486.673 715.08C486.673 715.08 486.673 715.08 486.673 715.099C486.399 715.592 486.107 716.048 485.961 716.048C485.851 716.048 485.65 714.733 485.997 712.943C486.728 709.162 488.463 703.281 488.445 703.08C488.445 702.97 488.773 701.947 487.312 701.418C485.887 700.888 485.376 701.765 485.248 701.765C485.12 701.765 485.029 702.075 485.029 702.075C485.029 702.075 486.618 695.463 481.997 695.463C479.111 695.463 475.129 698.623 473.156 701.473C471.914 702.148 469.266 703.591 466.435 705.144C465.357 705.747 464.243 706.349 463.202 706.916C463.129 706.843 463.056 706.751 462.983 706.678C457.393 700.705 447.055 696.486 447.494 688.468C447.658 685.545 448.663 677.874 467.348 668.558C482.728 660.978 494.965 663.079 497.084 667.736C500.116 674.385 490.527 686.732 474.636 688.522C468.572 689.198 465.394 686.86 464.59 685.984C463.75 685.07 463.622 685.015 463.311 685.198C462.8 685.472 463.129 686.294 463.311 686.769C463.786 688.011 465.741 690.203 469.047 691.281C471.969 692.23 479.074 692.76 487.677 689.436C497.303 685.71 504.829 675.353 502.619 666.677C500.408 657.873 485.796 654.969 471.969 659.882C463.75 662.805 454.836 667.408 448.425 673.399C440.808 680.522 439.603 686.714 440.096 689.308C441.868 698.514 454.562 704.505 459.64 708.943C459.384 709.089 459.147 709.217 458.946 709.327C456.407 710.587 446.726 715.647 444.315 720.998C441.576 727.062 444.754 731.41 446.854 731.994C453.375 733.802 460.078 730.551 463.677 725.181C467.275 719.811 466.837 712.834 465.174 709.637C465.156 709.601 465.138 709.564 465.101 709.528C465.759 709.144 466.435 708.742 467.092 708.359C468.389 707.591 469.668 706.879 470.764 706.295C470.143 707.993 469.686 710.021 469.467 712.943C469.193 716.377 470.599 720.834 472.444 722.587C473.266 723.355 474.234 723.373 474.855 723.373C477.01 723.373 477.979 721.583 479.056 719.464C480.371 716.87 481.559 713.857 481.559 713.857C481.559 713.857 480.079 722.003 484.097 722.003C485.559 722.003 487.038 720.103 487.696 719.135C487.696 719.153 487.696 719.153 487.696 719.153C487.696 719.153 487.732 719.099 487.805 718.971C487.951 718.733 488.043 718.587 488.043 718.587C488.043 718.587 488.043 718.569 488.043 718.551C488.627 717.528 489.942 715.208 491.897 711.354C494.417 706.386 496.847 700.176 496.847 700.176C496.847 700.176 497.066 701.692 497.815 704.212C498.253 705.692 499.166 707.318 499.897 708.888C499.312 709.71 498.947 710.167 498.947 710.167C498.947 710.167 498.947 710.167 498.965 710.185C498.491 710.806 497.979 711.482 497.413 712.14C495.422 714.514 493.047 717.236 492.719 718.021C492.335 718.953 492.426 719.628 493.157 720.176C493.687 720.578 494.637 720.633 495.605 720.578C497.395 720.45 498.655 720.012 499.276 719.738C500.244 719.391 501.376 718.861 502.436 718.076C504.39 716.633 505.578 714.569 505.468 711.847C505.413 710.35 504.92 708.852 504.317 707.445C504.5 707.19 504.664 706.934 504.847 706.678C507.934 702.167 510.327 697.217 510.327 697.217C510.327 697.217 510.546 698.733 511.295 701.253C511.66 702.532 512.409 703.92 513.066 705.272C510.162 707.628 508.372 710.368 507.733 712.158C506.582 715.482 507.477 716.98 509.176 717.327C509.943 717.491 511.039 717.126 511.843 716.779C512.865 716.45 514.071 715.884 515.222 715.044C517.176 713.601 519.057 711.592 518.948 708.87C518.893 707.628 518.564 706.404 518.108 705.217C520.573 704.194 523.752 703.628 527.807 704.103C536.501 705.126 538.218 710.55 537.889 712.834C537.56 715.117 535.734 716.359 535.131 716.742C534.528 717.126 534.327 717.254 534.382 717.528C534.455 717.93 534.747 717.911 535.259 717.838C535.971 717.711 539.825 715.994 539.99 711.793C540.264 706.423 535.149 700.559 526.108 700.614ZM459.037 723.227C456.151 726.368 452.133 727.556 450.398 726.551C448.535 725.473 449.265 720.834 452.809 717.51C454.964 715.482 457.74 713.601 459.585 712.45C460.005 712.194 460.626 711.829 461.375 711.372C461.503 711.299 461.576 711.263 461.576 711.263C461.722 711.172 461.868 711.08 462.015 710.989C463.311 715.738 462.069 719.921 459.037 723.227ZM480.043 708.943C479.038 711.391 476.937 717.656 475.659 717.309C474.563 717.016 473.887 712.267 475.44 707.573C476.225 705.217 477.887 702.404 478.855 701.308C480.426 699.555 482.161 698.97 482.581 699.683C483.111 700.614 480.664 707.409 480.043 708.943ZM497.376 717.236C496.956 717.455 496.554 717.601 496.372 717.491C496.244 717.418 496.554 717.126 496.554 717.126C496.554 717.126 498.728 714.788 499.586 713.729C500.08 713.108 500.664 712.377 501.285 711.555C501.285 711.628 501.285 711.719 501.285 711.793C501.285 714.587 498.582 716.468 497.376 717.236ZM510.747 714.185C510.436 713.966 510.491 713.236 511.532 710.952C511.934 710.057 512.884 708.56 514.509 707.117C514.692 707.701 514.82 708.267 514.802 708.797C514.783 712.322 512.263 713.637 510.747 714.185Z" fill="#CD6799"/>
<g filter="url(#filter4_d_103_3)">
<path d="M663.067 442.703C663.067 412.533 663.067 397.448 672.44 388.075C681.812 378.703 696.897 378.703 727.067 378.703H779.067C809.237 378.703 824.322 378.703 833.695 388.075C843.067 397.448 843.067 412.533 843.067 442.703V494.703C843.067 524.873 843.067 539.958 833.695 549.33C824.322 558.703 809.237 558.703 779.067 558.703H727.067C696.897 558.703 681.812 558.703 672.44 549.33C663.067 539.958 663.067 524.873 663.067 494.703V442.703Z" fill="white"/>
<path d="M672.44 549.33L671.733 550.037L672.44 549.33ZM833.695 549.33L832.988 548.623L833.695 549.33ZM833.695 388.075L834.402 387.368L833.695 388.075ZM727.067 379.703H779.067V377.703H727.067V379.703ZM842.067 442.703V494.703H844.067V442.703H842.067ZM779.067 557.703H727.067V559.703H779.067V557.703ZM664.067 494.703V442.703H662.067V494.703H664.067ZM727.067 557.703C711.954 557.703 700.72 557.701 692.088 556.54C683.485 555.384 677.616 553.093 673.147 548.623L671.733 550.037C676.636 554.94 682.996 557.336 691.821 558.522C700.617 559.705 712.011 559.703 727.067 559.703V557.703ZM662.067 494.703C662.067 509.76 662.065 521.153 663.248 529.949C664.434 538.774 666.83 545.134 671.733 550.037L673.147 548.623C668.677 544.154 666.387 538.285 665.23 529.682C664.069 521.05 664.067 509.816 664.067 494.703H662.067ZM842.067 494.703C842.067 509.816 842.065 521.05 840.905 529.682C839.748 538.285 837.457 544.154 832.988 548.623L834.402 550.037C839.305 545.134 841.7 538.774 842.887 529.949C844.069 521.153 844.067 509.76 844.067 494.703H842.067ZM779.067 559.703C794.124 559.703 805.517 559.705 814.313 558.522C823.138 557.336 829.499 554.94 834.402 550.037L832.988 548.623C828.518 553.093 822.65 555.384 814.047 556.54C805.415 557.701 794.18 557.703 779.067 557.703V559.703ZM779.067 379.703C794.18 379.703 805.415 379.705 814.047 380.866C822.65 382.022 828.518 384.313 832.988 388.783L834.402 387.368C829.499 382.465 823.138 380.07 814.313 378.883C805.517 377.701 794.124 377.703 779.067 377.703V379.703ZM844.067 442.703C844.067 427.646 844.069 416.253 842.887 407.457C841.7 398.632 839.305 392.271 834.402 387.368L832.988 388.783C837.457 393.252 839.748 399.12 840.905 407.723C842.065 416.355 842.067 427.59 842.067 442.703H844.067ZM727.067 377.703C712.011 377.703 700.617 377.701 691.821 378.883C682.996 380.07 676.636 382.465 671.733 387.368L673.147 388.783C677.616 384.313 683.485 382.022 692.088 380.866C700.72 379.705 711.954 379.703 727.067 379.703V377.703ZM664.067 442.703C664.067 427.59 664.069 416.355 665.23 407.723C666.387 399.12 668.677 393.252 673.147 388.783L671.733 387.368C666.83 392.271 664.434 398.632 663.248 407.457C662.065 416.253 662.067 427.646 662.067 442.703H664.067Z" fill="#D9D9D9"/>
</g>
<path d="M703.951 454.033C703.951 454.033 701.516 452.278 704.439 449.933L711.248 443.844C711.248 443.844 713.197 441.794 715.257 443.58L778.096 491.156V513.97C778.096 513.97 778.065 517.552 773.468 517.157L703.951 454.033Z" fill="#2489CA"/>
<path d="M720.148 468.739L703.951 483.464C703.951 483.464 702.287 484.702 703.951 486.914L711.471 493.755C711.471 493.755 713.258 495.673 715.896 493.491L733.067 480.47L720.148 468.739Z" fill="#1070B3"/>
<path d="M748.584 468.86L778.289 446.179L778.096 423.487C778.096 423.487 776.827 418.534 772.596 421.112L733.067 457.088L748.584 468.86Z" fill="#0877B9"/>
<path d="M773.468 517.187C775.194 518.953 777.284 518.375 777.284 518.375L800.433 506.968C803.396 504.948 802.98 502.441 802.98 502.441V434.325C802.98 431.331 799.915 430.296 799.915 430.296L779.852 420.625C775.468 417.915 772.596 421.112 772.596 421.112C772.596 421.112 776.29 418.453 778.096 423.486V513.554C778.096 514.173 777.964 514.782 777.7 515.33C777.173 516.396 776.026 517.39 773.276 516.974L773.468 517.187Z" fill="#3C99D4"/>
<g filter="url(#filter5_d_103_3)">
<path d="M232.343 74C232.343 43.8301 232.343 28.7452 241.716 19.3726C251.089 10 266.173 10 296.343 10H348.343C378.513 10 393.598 10 402.971 19.3726C412.343 28.7452 412.343 43.8301 412.343 74V126C412.343 156.17 412.343 171.255 402.971 180.627C393.598 190 378.513 190 348.343 190H296.343C266.173 190 251.089 190 241.716 180.627C232.343 171.255 232.343 156.17 232.343 126V74Z" fill="white"/>
<path d="M241.716 180.627L241.009 181.335L241.716 180.627ZM402.971 180.627L402.264 179.92L402.971 180.627ZM402.971 19.3726L403.678 18.6655L402.971 19.3726ZM296.343 11H348.343V9H296.343V11ZM411.343 74V126H413.343V74H411.343ZM348.343 189H296.343V191H348.343V189ZM233.343 126V74H231.343V126H233.343ZM296.343 189C281.23 189 269.996 188.998 261.364 187.837C252.761 186.681 246.893 184.39 242.423 179.92L241.009 181.335C245.912 186.238 252.273 188.633 261.097 189.82C269.894 191.002 281.287 191 296.343 191V189ZM231.343 126C231.343 141.057 231.341 152.45 232.524 161.246C233.71 170.071 236.106 176.431 241.009 181.335L242.423 179.92C237.954 175.451 235.663 169.583 234.506 160.979C233.346 152.348 233.343 141.113 233.343 126H231.343ZM411.343 126C411.343 141.113 411.341 152.348 410.181 160.979C409.024 169.583 406.733 175.451 402.264 179.92L403.678 181.335C408.581 176.431 410.976 170.071 412.163 161.246C413.346 152.45 413.343 141.057 413.343 126H411.343ZM348.343 191C363.4 191 374.793 191.002 383.589 189.82C392.414 188.633 398.775 186.238 403.678 181.335L402.264 179.92C397.794 184.39 391.926 186.681 383.323 187.837C374.691 188.998 363.457 189 348.343 189V191ZM348.343 11C363.457 11 374.691 11.0021 383.323 12.1627C391.926 13.3193 397.794 15.6102 402.264 20.0797L403.678 18.6655C398.775 13.7624 392.414 11.367 383.589 10.1805C374.793 8.99788 363.4 9 348.343 9V11ZM413.343 74C413.343 58.9433 413.346 47.5502 412.163 38.7541C410.976 29.9291 408.581 23.5685 403.678 18.6655L402.264 20.0797C406.733 24.5492 409.024 30.4174 410.181 39.0205C411.341 47.6525 411.343 58.8868 411.343 74H413.343ZM296.343 9C281.287 9 269.894 8.99788 261.097 10.1805C252.273 11.367 245.912 13.7624 241.009 18.6655L242.423 20.0797C246.893 15.6102 252.761 13.3193 261.364 12.1627C269.996 11.0021 281.23 11 296.343 11V9ZM233.343 74C233.343 58.8868 233.346 47.6525 234.506 39.0205C235.663 30.4174 237.954 24.5492 242.423 20.0797L241.009 18.6655C236.106 23.5685 233.71 29.9291 232.524 38.7541C231.341 47.5502 231.343 58.9433 231.343 74H233.343Z" fill="#D9D9D9"/>
</g>
<path d="M272 50H372V150H272V50Z" fill="#CC0000"/>
<path d="M321.66 60.74H282.74V139.256H321.656V80.54H341.456V139.256H361.256V60.74H321.66Z" fill="white"/>
<g filter="url(#filter6_d_103_3)">
<path d="M789.62 78C789.62 47.8301 789.62 32.7452 798.992 23.3726C808.365 14 823.45 14 853.62 14H905.62C935.789 14 950.874 14 960.247 23.3726C969.62 32.7452 969.62 47.8301 969.62 78V130C969.62 160.17 969.62 175.255 960.247 184.627C950.874 194 935.789 194 905.62 194H853.62C823.45 194 808.365 194 798.992 184.627C789.62 175.255 789.62 160.17 789.62 130V78Z" fill="white"/>
<path d="M798.992 184.627L798.285 185.335L798.992 184.627ZM960.247 184.627L959.54 183.92L960.247 184.627ZM960.247 23.3726L960.954 22.6655L960.247 23.3726ZM853.62 15H905.62V13H853.62V15ZM968.62 78V130H970.62V78H968.62ZM905.62 193H853.62V195H905.62V193ZM790.62 130V78H788.62V130H790.62ZM853.62 193C838.506 193 827.272 192.998 818.64 191.837C810.037 190.681 804.169 188.39 799.699 183.92L798.285 185.335C803.188 190.238 809.549 192.633 818.374 193.82C827.17 195.002 838.563 195 853.62 195V193ZM788.62 130C788.62 145.057 788.617 156.45 789.8 165.246C790.986 174.071 793.382 180.431 798.285 185.335L799.699 183.92C795.23 179.451 792.939 173.583 791.782 164.979C790.622 156.348 790.62 145.113 790.62 130H788.62ZM968.62 130C968.62 145.113 968.617 156.348 967.457 164.979C966.3 173.583 964.009 179.451 959.54 183.92L960.954 185.335C965.857 180.431 968.253 174.071 969.439 165.246C970.622 156.45 970.62 145.057 970.62 130H968.62ZM905.62 195C920.676 195 932.069 195.002 940.865 193.82C949.69 192.633 956.051 190.238 960.954 185.335L959.54 183.92C955.07 188.39 949.202 190.681 940.599 191.837C931.967 192.998 920.733 193 905.62 193V195ZM905.62 15C920.733 15 931.967 15.0021 940.599 16.1627C949.202 17.3193 955.07 19.6102 959.54 24.0797L960.954 22.6655C956.051 17.7624 949.69 15.367 940.865 14.1805C932.069 12.9979 920.676 13 905.62 13V15ZM970.62 78C970.62 62.9433 970.622 51.5502 969.439 42.7541C968.253 33.9291 965.857 27.5685 960.954 22.6655L959.54 24.0797C964.009 28.5492 966.3 34.4174 967.457 43.0205C968.617 51.6525 968.62 62.8868 968.62 78H970.62ZM853.62 13C838.563 13 827.17 12.9979 818.374 14.1805C809.549 15.367 803.188 17.7624 798.285 22.6655L799.699 24.0797C804.169 19.6102 810.037 17.3193 818.64 16.1627C827.272 15.0021 838.506 15 853.62 15V13ZM790.62 78C790.62 62.8868 790.622 51.6525 791.782 43.0205C792.939 34.4174 795.23 28.5492 799.699 24.0797L798.285 22.6655C793.382 27.5685 790.986 33.9291 789.8 42.7541C788.617 51.5502 788.62 62.9433 788.62 78H790.62Z" fill="#D9D9D9"/>
</g>
<path d="M924.087 54L916.054 143.99L879.946 154L843.937 144.004L835.913 54H924.087Z" fill="#264DE4"/>
<path d="M909.177 138.259L916.042 61.3591H880V146.348L909.177 138.259Z" fill="#2965F1"/>
<path d="M854.308 94.7402L855.298 105.779H880V94.7402H854.308Z" fill="#EBEBEB"/>
<path d="M880 72.3977H879.962H852.32L853.324 83.4364H880V72.3977Z" fill="#EBEBEB"/>
<path d="M880 134.893V123.408L879.952 123.421L867.658 120.102L866.872 111.298H860.898H855.791L857.338 128.63L879.949 134.907L880 134.893Z" fill="#EBEBEB"/>
<path d="M893.555 105.779L892.273 120.095L879.962 123.418V134.902L902.592 128.63L902.758 126.765L905.352 97.7042L905.621 94.7401L907.614 72.3977H879.962V83.4364H895.516L894.512 94.7401H879.962V105.779H893.555Z" fill="white"/>
<g filter="url(#filter7_d_103_3)">
<path d="M906.172 669C906.172 638.83 906.172 623.745 915.544 614.373C924.917 605 940.002 605 970.172 605H1022.17C1052.34 605 1067.43 605 1076.8 614.373C1086.17 623.745 1086.17 638.83 1086.17 669V721C1086.17 751.17 1086.17 766.255 1076.8 775.627C1067.43 785 1052.34 785 1022.17 785H970.172C940.002 785 924.917 785 915.544 775.627C906.172 766.255 906.172 751.17 906.172 721V669Z" fill="white"/>
<path d="M915.544 775.627L914.837 776.335L915.544 775.627ZM1076.8 775.627L1076.09 774.92L1076.8 775.627ZM1076.8 614.373L1077.51 613.665L1076.8 614.373ZM970.172 606H1022.17V604H970.172V606ZM1085.17 669V721H1087.17V669H1085.17ZM1022.17 784H970.172V786H1022.17V784ZM907.172 721V669H905.172V721H907.172ZM970.172 784C955.059 784 943.824 783.998 935.192 782.837C926.589 781.681 920.721 779.39 916.251 774.92L914.837 776.335C919.74 781.238 926.101 783.633 934.926 784.82C943.722 786.002 955.115 786 970.172 786V784ZM905.172 721C905.172 736.057 905.17 747.45 906.352 756.246C907.539 765.071 909.934 771.431 914.837 776.335L916.251 774.92C911.782 770.451 909.491 764.583 908.334 755.979C907.174 747.348 907.172 736.113 907.172 721H905.172ZM1085.17 721C1085.17 736.113 1085.17 747.348 1084.01 755.979C1082.85 764.583 1080.56 770.451 1076.09 774.92L1077.51 776.335C1082.41 771.431 1084.8 765.071 1085.99 756.246C1087.17 747.45 1087.17 736.057 1087.17 721H1085.17ZM1022.17 786C1037.23 786 1048.62 786.002 1057.42 784.82C1066.24 783.633 1072.6 781.238 1077.51 776.335L1076.09 774.92C1071.62 779.39 1065.75 781.681 1057.15 782.837C1048.52 783.998 1037.28 784 1022.17 784V786ZM1022.17 606C1037.28 606 1048.52 606.002 1057.15 607.163C1065.75 608.319 1071.62 610.61 1076.09 615.08L1077.51 613.665C1072.6 608.762 1066.24 606.367 1057.42 605.18C1048.62 603.998 1037.23 604 1022.17 604V606ZM1087.17 669C1087.17 653.943 1087.17 642.55 1085.99 633.754C1084.8 624.929 1082.41 618.569 1077.51 613.665L1076.09 615.08C1080.56 619.549 1082.85 625.417 1084.01 634.021C1085.17 642.652 1085.17 653.887 1085.17 669H1087.17ZM970.172 604C955.115 604 943.722 603.998 934.926 605.18C926.101 606.367 919.74 608.762 914.837 613.665L916.251 615.08C920.721 610.61 926.589 608.319 935.192 607.163C943.824 606.002 955.059 606 970.172 606V604ZM907.172 669C907.172 653.887 907.174 642.652 908.334 634.021C909.491 625.417 911.782 619.549 916.251 615.08L914.837 613.665C909.934 618.569 907.539 624.929 906.352 633.754C905.17 642.55 905.172 653.943 905.172 669H907.172Z" fill="#D9D9D9"/>
</g>
<path d="M1005.8 709.717L981.277 704.592C981.175 704.791 981.06 704.983 980.935 705.169L1003.26 737.738L1004.61 736.392L1008.41 712.772C1007.76 712.5 1007.2 712.083 1006.74 711.553C1006.29 711.022 1005.97 710.394 1005.8 709.717V709.717ZM996.855 677.658C995.937 679.067 994.351 680 992.545 680C992.266 680 991.996 679.972 991.731 679.929L980.546 697.43L1010.43 684.57C1010.42 684.45 1010.39 684.338 1010.39 684.214C1010.39 683.963 1010.43 683.719 1010.47 683.478L996.855 677.658V677.658ZM997.668 674.469L1012.15 680.659C1012.61 680.299 1013.14 680.032 1013.7 679.875L1016.08 665.078L1007.01 656.012L996.809 671.98C997.309 672.72 997.605 673.578 997.668 674.469V674.469ZM1028.01 677.005L1018.92 667.917L1016.94 680.186C1017.45 680.437 1017.9 680.78 1018.27 681.195L1028.01 677.005V677.005ZM1006.24 706.486C1006.59 705.84 1007.1 705.293 1007.72 704.895C1008.34 704.496 1009.05 704.259 1009.79 704.203L1012.4 687.973C1012.19 687.838 1012.01 687.675 1011.83 687.508L981.776 700.442C981.852 700.756 981.905 701.076 981.93 701.409L1006.24 706.486V706.486ZM1030.48 679.481L1019.97 684.004L1045.91 695.094L1046 695L1030.48 679.481ZM1011.69 712.82L1008.54 732.462L1026.88 714.117L1013.67 711.358C1013.16 712.021 1012.48 712.528 1011.69 712.82V712.82ZM976.037 707.77C975.373 707.77 974.737 707.656 974.141 707.454L968.048 716.991L965.693 714.638L971.465 705.606C971.322 705.429 971.189 705.244 971.066 705.053L960.61 709.555L958.132 707.076L969.577 702.15L948.886 697.831L946.055 695L946.951 694.105L970.812 699.086C971.086 698.565 971.437 698.089 971.854 697.673L960.273 680.781L962.612 678.442L974.711 696.092C975.146 695.991 975.59 695.939 976.036 695.937C976.547 695.937 977.042 696.009 977.516 696.131L988.838 678.415C987.916 677.459 987.401 676.183 987.402 674.855C987.402 674.448 987.454 674.055 987.543 673.676L973.418 667.637L975.896 665.159L989.278 670.883C989.957 670.323 990.768 669.948 991.634 669.793C992.499 669.638 993.39 669.708 994.221 669.997L1004.66 653.659L996.001 645L946.001 695L996.001 745L1000.92 740.08L978.427 707.264C977.674 707.598 976.86 707.77 976.037 707.77V707.77ZM1015.58 688.673L1012.92 705.172C1013.39 705.544 1013.77 706.007 1014.05 706.531C1014.34 707.055 1014.51 707.631 1014.56 708.224L1029.63 711.369L1043.43 697.572L1018.52 686.925C1017.81 687.874 1016.75 688.502 1015.58 688.673V688.673Z" fill="#25C7B7"/>
<g filter="url(#filter8_d_103_3)">
<path d="M38.4479 603.406C38.4479 573.236 38.4479 558.151 47.8205 548.778C57.193 539.406 72.278 539.406 102.448 539.406H154.448C184.618 539.406 199.703 539.406 209.075 548.778C218.448 558.151 218.448 573.236 218.448 603.406V655.406C218.448 685.576 218.448 700.661 209.075 710.033C199.703 719.406 184.618 719.406 154.448 719.406H102.448C72.278 719.406 57.193 719.406 47.8205 710.033C38.4479 700.661 38.4479 685.576 38.4479 655.406V603.406Z" fill="white"/>
<path d="M47.8205 710.033L47.1134 710.74L47.8205 710.033ZM209.075 710.033L208.368 709.326L209.075 710.033ZM209.075 548.778L209.782 548.071L209.075 548.778ZM102.448 540.406H154.448V538.406H102.448V540.406ZM217.448 603.406V655.406H219.448V603.406H217.448ZM154.448 718.406H102.448V720.406H154.448V718.406ZM39.4479 655.406V603.406H37.4479V655.406H39.4479ZM102.448 718.406C87.3347 718.406 76.1003 718.404 67.4684 717.243C58.8653 716.086 52.9971 713.796 48.5276 709.326L47.1134 710.74C52.0164 715.643 58.377 718.039 67.2019 719.225C75.9981 720.408 87.3912 720.406 102.448 720.406V718.406ZM37.4479 655.406C37.4479 670.462 37.4458 681.856 38.6284 690.652C39.8148 699.477 42.2103 705.837 47.1134 710.74L48.5276 709.326C44.058 704.857 41.7672 698.988 40.6105 690.385C39.45 681.753 39.4479 670.519 39.4479 655.406H37.4479ZM217.448 655.406C217.448 670.519 217.446 681.753 216.285 690.385C215.129 698.988 212.838 704.857 208.368 709.326L209.782 710.74C214.685 705.837 217.081 699.477 218.267 690.652C219.45 681.856 219.448 670.462 219.448 655.406H217.448ZM154.448 720.406C169.505 720.406 180.898 720.408 189.694 719.225C198.519 718.039 204.879 715.643 209.782 710.74L208.368 709.326C203.899 713.796 198.03 716.086 189.427 717.243C180.795 718.404 169.561 718.406 154.448 718.406V720.406ZM154.448 540.406C169.561 540.406 180.795 540.408 189.427 541.568C198.03 542.725 203.899 545.016 208.368 549.485L209.782 548.071C204.879 543.168 198.519 540.773 189.694 539.586C180.898 538.404 169.505 538.406 154.448 538.406V540.406ZM219.448 603.406C219.448 588.349 219.45 576.956 218.267 568.16C217.081 559.335 214.685 552.974 209.782 548.071L208.368 549.485C212.838 553.955 215.129 559.823 216.285 568.426C217.446 577.058 217.448 588.293 217.448 603.406H219.448ZM102.448 538.406C87.3912 538.406 75.9981 538.404 67.2019 539.586C58.377 540.773 52.0164 543.168 47.1134 548.071L48.5276 549.485C52.9971 545.016 58.8653 542.725 67.4684 541.568C76.1003 540.408 87.3347 540.406 102.448 540.406V538.406ZM39.4479 603.406C39.4479 588.293 39.45 577.058 40.6105 568.426C41.7672 559.823 44.058 553.955 48.5276 549.485L47.1134 548.071C42.2103 552.974 39.8148 559.335 38.6284 568.16C37.4458 576.956 37.4479 588.349 37.4479 603.406H39.4479Z" fill="#D9D9D9"/>
</g>
<path d="M108.455 616.55L127.428 605.596C127.661 605.462 127.926 605.391 128.195 605.391C128.465 605.391 128.729 605.462 128.963 605.596L147.936 616.55C148.169 616.685 148.363 616.879 148.497 617.112C148.632 617.346 148.703 617.61 148.703 617.88V639.787C148.703 640.336 148.41 640.842 147.936 641.117L128.963 652.071C128.729 652.205 128.465 652.276 128.195 652.276C127.926 652.276 127.661 652.205 127.428 652.071L108.455 641.117C108.222 640.982 108.028 640.788 107.893 640.555C107.758 640.322 107.687 640.057 107.687 639.787V617.879C107.688 617.331 107.98 616.825 108.455 616.55" fill="#8080F2"/>
<path d="M177.382 627.038L154.689 587.559C153.864 586.132 152.342 585.078 150.693 585.078H105.307C103.658 585.078 102.135 586.132 101.311 587.559L78.6182 626.951C77.7939 628.379 77.7939 630.181 78.6182 631.609L101.311 670.765C102.135 672.192 103.658 672.922 105.307 672.922H150.693C152.341 672.922 153.864 672.214 154.688 670.786L177.381 631.566C178.206 630.139 178.206 628.466 177.381 627.038H177.382ZM158.591 646.023C158.591 646.603 158.241 647.14 157.738 647.431L128.832 664.107C128.583 664.25 128.302 664.325 128.015 664.325C127.728 664.325 127.446 664.25 127.197 664.107L98.269 647.431C97.7663 647.14 97.4143 646.603 97.4143 646.022V612.668C97.4143 612.087 97.7612 611.55 98.2643 611.26L127.169 594.582C127.417 594.44 127.699 594.364 127.986 594.364C128.273 594.364 128.555 594.44 128.803 594.582L157.733 611.26C158.237 611.55 158.591 612.087 158.591 612.668V646.022V646.023Z" fill="#4B32C3"/>
<g filter="url(#filter9_d_103_3)">
<path d="M923.172 308.406C923.172 278.236 923.172 263.151 932.544 253.778C941.917 244.406 957.002 244.406 987.172 244.406H1039.17C1069.34 244.406 1084.43 244.406 1093.8 253.778C1103.17 263.151 1103.17 278.236 1103.17 308.406V360.406C1103.17 390.576 1103.17 405.661 1093.8 415.033C1084.43 424.406 1069.34 424.406 1039.17 424.406H987.172C957.002 424.406 941.917 424.406 932.544 415.033C923.172 405.661 923.172 390.576 923.172 360.406V308.406Z" fill="white"/>
<path d="M932.544 415.033L931.837 415.74L932.544 415.033ZM1093.8 415.033L1093.09 414.326L1093.8 415.033ZM1093.8 253.778L1094.51 253.071L1093.8 253.778ZM987.172 245.406H1039.17V243.406H987.172V245.406ZM1102.17 308.406V360.406H1104.17V308.406H1102.17ZM1039.17 423.406H987.172V425.406H1039.17V423.406ZM924.172 360.406V308.406H922.172V360.406H924.172ZM987.172 423.406C972.059 423.406 960.824 423.404 952.192 422.243C943.589 421.086 937.721 418.796 933.251 414.326L931.837 415.74C936.74 420.643 943.101 423.039 951.926 424.225C960.722 425.408 972.115 425.406 987.172 425.406V423.406ZM922.172 360.406C922.172 375.462 922.17 386.856 923.352 395.652C924.539 404.477 926.934 410.837 931.837 415.74L933.251 414.326C928.782 409.857 926.491 403.988 925.334 395.385C924.174 386.753 924.172 375.519 924.172 360.406H922.172ZM1102.17 360.406C1102.17 375.519 1102.17 386.753 1101.01 395.385C1099.85 403.988 1097.56 409.857 1093.09 414.326L1094.51 415.74C1099.41 410.837 1101.8 404.477 1102.99 395.652C1104.17 386.856 1104.17 375.462 1104.17 360.406H1102.17ZM1039.17 425.406C1054.23 425.406 1065.62 425.408 1074.42 424.225C1083.24 423.039 1089.6 420.643 1094.51 415.74L1093.09 414.326C1088.62 418.796 1082.75 421.086 1074.15 422.243C1065.52 423.404 1054.28 423.406 1039.17 423.406V425.406ZM1039.17 245.406C1054.28 245.406 1065.52 245.408 1074.15 246.568C1082.75 247.725 1088.62 250.016 1093.09 254.485L1094.51 253.071C1089.6 248.168 1083.24 245.773 1074.42 244.586C1065.62 243.404 1054.23 243.406 1039.17 243.406V245.406ZM1104.17 308.406C1104.17 293.349 1104.17 281.956 1102.99 273.16C1101.8 264.335 1099.41 257.974 1094.51 253.071L1093.09 254.485C1097.56 258.955 1099.85 264.823 1101.01 273.426C1102.17 282.058 1102.17 293.293 1102.17 308.406H1104.17ZM987.172 243.406C972.115 243.406 960.722 243.404 951.926 244.586C943.101 245.773 936.74 248.168 931.837 253.071L933.251 254.485C937.721 250.016 943.589 247.725 952.192 246.568C960.824 245.408 972.059 245.406 987.172 245.406V243.406ZM924.172 308.406C924.172 293.293 924.174 282.058 925.334 273.426C926.491 264.823 928.782 258.955 933.251 254.485L931.837 253.071C926.934 257.974 924.539 264.335 923.352 273.16C922.17 281.956 922.172 293.349 922.172 308.406H924.172Z" fill="#D9D9D9"/>
</g>
<path d="M1036.81 303.048H1041.57C1042.9 303.048 1043.95 304.095 1043.95 305.429C1043.95 306.762 1042.9 307.809 1041.57 307.809H1036.81C1035.48 307.809 1034.43 306.762 1034.43 305.429C1034.43 304.095 1035.48 303.048 1036.81 303.048Z" fill="#56B3B4"/>
<path d="M965.381 379.238H989.19C990.524 379.238 991.571 380.286 991.571 381.619C991.571 382.952 990.524 384 989.19 384H965.381C964.048 384 963 382.952 963 381.619C963 380.286 964.048 379.238 965.381 379.238Z" fill="#EA5E5E"/>
<path d="M1022.52 341.143H1036.81C1038.14 341.143 1039.19 342.191 1039.19 343.524C1039.19 344.857 1038.14 345.905 1036.81 345.905H1022.52C1021.19 345.905 1020.14 344.857 1020.14 343.524C1020.14 342.191 1021.19 341.143 1022.52 341.143Z" fill="#BF85BF"/>
<path d="M993.952 341.143H1013C1014.33 341.143 1015.38 342.191 1015.38 343.524C1015.38 344.857 1014.33 345.905 1013 345.905H993.952C992.619 345.905 991.571 344.857 991.571 343.524C991.571 342.191 992.619 341.143 993.952 341.143Z" fill="#EA5E5E"/>
<path d="M965.381 341.143H984.429C985.762 341.143 986.81 342.191 986.81 343.524C986.81 344.857 985.762 345.905 984.429 345.905H965.381C964.048 345.905 963 344.857 963 343.524C963 342.191 964.048 341.143 965.381 341.143Z" fill="#56B3B4"/>
<path d="M965.381 360.19H989.19C990.524 360.19 991.571 361.238 991.571 362.571C991.571 363.905 990.524 364.952 989.19 364.952H965.381C964.048 364.952 963 363.905 963 362.571C963 361.238 964.048 360.19 965.381 360.19Z" fill="#BF85BF"/>
<path d="M965.381 322.095H989.19C990.524 322.095 991.571 323.143 991.571 324.476C991.571 325.81 990.524 326.857 989.19 326.857H965.381C964.048 326.857 963 325.81 963 324.476C963 323.143 964.048 322.095 965.381 322.095Z" fill="#BF85BF"/>
<path d="M989.19 293.524H1036.81C1038.14 293.524 1039.19 294.571 1039.19 295.905C1039.19 297.238 1038.14 298.286 1036.81 298.286H989.19C987.857 298.286 986.81 297.238 986.81 295.905C986.81 294.571 987.857 293.524 989.19 293.524Z" fill="#F7BA3E"/>
<path d="M965.381 293.524H979.667C981 293.524 982.048 294.571 982.048 295.905C982.048 297.238 981 298.286 979.667 298.286H965.381C964.048 298.286 963 297.238 963 295.905C963 294.571 964.048 293.524 965.381 293.524Z" fill="#EA5E5E"/>
<path d="M984.429 369.714H989.191C990.524 369.714 991.571 370.762 991.571 372.095C991.571 373.429 990.524 374.476 989.191 374.476H984.429C983.095 374.476 982.048 373.429 982.048 372.095C982.048 370.762 983.095 369.714 984.429 369.714Z" fill="#F7BA3E"/>
<path d="M984.429 312.572H989.191C990.524 312.572 991.571 313.619 991.571 314.952C991.571 316.286 990.524 317.333 989.191 317.333H984.429C983.095 317.333 982.048 316.286 982.048 314.952C982.048 313.619 983.095 312.572 984.429 312.572Z" fill="#56B3B4"/>
<path d="M965.381 369.714H974.905C976.238 369.714 977.286 370.762 977.286 372.095C977.286 373.429 976.238 374.476 974.905 374.476H965.381C964.048 374.476 963 373.429 963 372.095C963 370.762 964.048 369.714 965.381 369.714Z" fill="#56B3B4"/>
<path d="M965.381 312.572H974.905C976.238 312.572 977.286 313.619 977.286 314.952C977.286 316.286 976.238 317.333 974.905 317.333H965.381C964.048 317.333 963 316.286 963 314.952C963 313.619 964.048 312.572 965.381 312.572Z" fill="#F7BA3E"/>
<path opacity="0.5" d="M1027.29 369.714H1032.05C1033.38 369.714 1034.43 370.762 1034.43 372.095C1034.43 373.429 1033.38 374.476 1032.05 374.476H1027.29C1025.95 374.476 1024.9 373.429 1024.9 372.095C1024.9 370.762 1025.95 369.714 1027.29 369.714Z" fill="#D0D4D8"/>
<path opacity="0.5" d="M998.714 369.714H1017.76C1019.1 369.714 1020.14 370.762 1020.14 372.095C1020.14 373.429 1019.1 374.476 1017.76 374.476H998.714C997.381 374.476 996.333 373.429 996.333 372.095C996.333 370.762 997.381 369.714 998.714 369.714Z" fill="#D0D4D8"/>
<path opacity="0.5" d="M1041.57 369.714H1060.62C1061.95 369.714 1063 370.762 1063 372.095C1063 373.429 1061.95 374.476 1060.62 374.476H1041.57C1040.24 374.476 1039.19 373.429 1039.19 372.095C1039.19 370.762 1040.24 369.714 1041.57 369.714Z" fill="#D0D4D8"/>
<path d="M1003.48 331.619H1041.57C1042.9 331.619 1043.95 332.667 1043.95 334C1043.95 335.333 1042.9 336.381 1041.57 336.381H1003.48C1002.14 336.381 1001.1 335.333 1001.1 334C1001.1 332.667 1002.14 331.619 1003.48 331.619Z" fill="#56B3B4"/>
<path d="M979.667 331.619H993.952C995.286 331.619 996.333 332.667 996.333 334C996.333 335.333 995.286 336.381 993.952 336.381H979.667C978.333 336.381 977.286 335.333 977.286 334C977.286 332.667 978.333 331.619 979.667 331.619Z" fill="#F7BA3E"/>
<path d="M965.381 331.619H970.143C971.476 331.619 972.524 332.667 972.524 334C972.524 335.333 971.476 336.381 970.143 336.381H965.381C964.048 336.381 963 335.333 963 334C963 332.667 964.048 331.619 965.381 331.619Z" fill="#EA5E5E"/>
<path d="M1008.24 303.048H1027.29C1028.62 303.048 1029.67 304.095 1029.67 305.429C1029.67 306.762 1028.62 307.809 1027.29 307.809H1008.24C1006.9 307.809 1005.86 306.762 1005.86 305.429C1005.86 304.095 1006.9 303.048 1008.24 303.048Z" fill="#BF85BF"/>
<path d="M965.381 303.048H998.714C1000.05 303.048 1001.1 304.095 1001.1 305.429C1001.1 306.762 1000.05 307.809 998.714 307.809H965.381C964.048 307.809 963 306.762 963 305.429C963 304.095 964.048 303.048 965.381 303.048Z" fill="#56B3B4"/>
<path d="M979.667 350.667H1022.52C1023.86 350.667 1024.9 351.714 1024.9 353.048C1024.9 354.381 1023.86 355.429 1022.52 355.429H979.667C978.333 355.429 977.286 354.381 977.286 353.048C977.286 351.714 978.333 350.667 979.667 350.667Z" fill="#F7BA3E"/>
<path d="M965.381 350.667H970.143C971.476 350.667 972.524 351.714 972.524 353.048C972.524 354.381 971.476 355.429 970.143 355.429H965.381C964.048 355.429 963 354.381 963 353.048C963 351.714 964.048 350.667 965.381 350.667Z" fill="#BF85BF"/>
<path d="M1022.52 312.572H1046.33C1047.67 312.572 1048.71 313.619 1048.71 314.952C1048.71 316.286 1047.67 317.333 1046.33 317.333H1022.52C1021.19 317.333 1020.14 316.286 1020.14 314.952C1020.14 313.619 1021.19 312.572 1022.52 312.572Z" fill="#EA5E5E"/>
<path d="M1022.52 322.095H1046.33C1047.67 322.095 1048.71 323.143 1048.71 324.476C1048.71 325.81 1047.67 326.857 1046.33 326.857H1022.52C1021.19 326.857 1020.14 325.81 1020.14 324.476C1020.14 323.143 1021.19 322.095 1022.52 322.095Z" fill="#F7BA3E"/>
<path d="M965.381 284H1022.52C1023.86 284 1024.9 285.048 1024.9 286.381C1024.9 287.714 1023.86 288.762 1022.52 288.762H965.381C964.048 288.762 963 287.714 963 286.381C963 285.048 964.048 284 965.381 284Z" fill="#56B3B4"/>
<path opacity="0.5" d="M1032.05 284H1060.62C1061.95 284 1063 285.048 1063 286.381C1063 287.714 1061.95 288.762 1060.62 288.762H1032.05C1030.71 288.762 1029.67 287.714 1029.67 286.381C1029.67 285.048 1030.71 284 1032.05 284Z" fill="#D0D4D8"/>
<path opacity="0.5" d="M1032.05 350.667H1041.57C1042.9 350.667 1043.95 351.714 1043.95 353.048C1043.95 354.381 1042.9 355.429 1041.57 355.429H1032.05C1030.71 355.429 1029.67 354.381 1029.67 353.048C1029.67 351.714 1030.71 350.667 1032.05 350.667Z" fill="#D0D4D8"/>
<path opacity="0.5" d="M1051.1 350.667H1060.62C1061.95 350.667 1063 351.714 1063 353.048C1063 354.381 1061.95 355.429 1060.62 355.429H1051.1C1049.76 355.429 1048.71 354.381 1048.71 353.048C1048.71 351.714 1049.76 350.667 1051.1 350.667Z" fill="#D0D4D8"/>
<path opacity="0.5" d="M1046.33 341.143H1060.62C1061.95 341.143 1063 342.191 1063 343.524C1063 344.857 1061.95 345.905 1060.62 345.905H1046.33C1045 345.905 1043.95 344.857 1043.95 343.524C1043.95 342.191 1045 341.143 1046.33 341.143Z" fill="#D0D4D8"/>
<path opacity="0.5" d="M1046.33 293.524H1060.62C1061.95 293.524 1063 294.571 1063 295.905C1063 297.238 1061.95 298.286 1060.62 298.286H1046.33C1045 298.286 1043.95 297.238 1043.95 295.905C1043.95 294.571 1045 293.524 1046.33 293.524Z" fill="#D0D4D8"/>
<path opacity="0.5" d="M1051.1 331.619H1060.62C1061.95 331.619 1063 332.667 1063 334C1063 335.333 1061.95 336.381 1060.62 336.381H1051.1C1049.76 336.381 1048.71 335.333 1048.71 334C1048.71 332.667 1049.76 331.619 1051.1 331.619Z" fill="#D0D4D8"/>
<path opacity="0.5" d="M1051.1 303.048H1060.62C1061.95 303.048 1063 304.095 1063 305.429C1063 306.762 1061.95 307.809 1060.62 307.809H1051.1C1049.76 307.809 1048.71 306.762 1048.71 305.429C1048.71 304.095 1049.76 303.048 1051.1 303.048Z" fill="#D0D4D8"/>
<path opacity="0.5" d="M1055.86 312.572H1060.62C1061.95 312.572 1063 313.619 1063 314.952C1063 316.286 1061.95 317.333 1060.62 317.333H1055.86C1054.52 317.333 1053.48 316.286 1053.48 314.952C1053.48 313.619 1054.52 312.572 1055.86 312.572Z" fill="#D0D4D8"/>
<path opacity="0.5" d="M1055.86 322.095H1060.62C1061.95 322.095 1063 323.143 1063 324.476C1063 325.81 1061.95 326.857 1060.62 326.857H1055.86C1054.52 326.857 1053.48 325.81 1053.48 324.476C1053.48 323.143 1054.52 322.095 1055.86 322.095Z" fill="#D0D4D8"/>
<path opacity="0.5" d="M1017.76 360.19H1060.62C1061.95 360.19 1063 361.238 1063 362.571C1063 363.905 1061.95 364.952 1060.62 364.952H1017.76C1016.43 364.952 1015.38 363.905 1015.38 362.571C1015.38 361.238 1016.43 360.19 1017.76 360.19Z" fill="#D0D4D8"/>
<path opacity="0.5" d="M998.714 360.19H1008.24C1009.57 360.19 1010.62 361.238 1010.62 362.571C1010.62 363.905 1009.57 364.952 1008.24 364.952H998.714C997.381 364.952 996.333 363.905 996.333 362.571C996.333 361.238 997.381 360.19 998.714 360.19Z" fill="#D0D4D8"/>
<path opacity="0.5" d="M1036.81 379.238H1060.62C1061.95 379.238 1063 380.286 1063 381.619C1063 382.952 1061.95 384 1060.62 384H1036.81C1035.48 384 1034.43 382.952 1034.43 381.619C1034.43 380.286 1035.48 379.238 1036.81 379.238Z" fill="#D0D4D8"/>
<path opacity="0.5" d="M998.714 379.238H1027.29C1028.62 379.238 1029.67 380.286 1029.67 381.619C1029.67 382.952 1028.62 384 1027.29 384H998.714C997.381 384 996.333 382.952 996.333 381.619C996.333 380.286 997.381 379.238 998.714 379.238Z" fill="#D0D4D8"/>
<path opacity="0.5" d="M998.714 312.572H1013C1014.33 312.572 1015.38 313.619 1015.38 314.952C1015.38 316.286 1014.33 317.333 1013 317.333H998.714C997.381 317.333 996.333 316.286 996.333 314.952C996.333 313.619 997.381 312.572 998.714 312.572Z" fill="#D0D4D8"/>
<path opacity="0.5" d="M998.714 322.095H1013C1014.33 322.095 1015.38 323.143 1015.38 324.476C1015.38 325.81 1014.33 326.857 1013 326.857H998.714C997.381 326.857 996.333 325.81 996.333 324.476C996.333 323.143 997.381 322.095 998.714 322.095Z" fill="#D0D4D8"/>
</g>
<defs>
<filter id="filter0_d_103_3" x="-19.1044" y="128" width="260" height="260" filterUnits="userSpaceOnUse" color-interpolation-filters="sRGB">
<feFlood flood-opacity="0" result="BackgroundImageFix"/>
<feColorMatrix in="SourceAlpha" type="matrix" values="0 0 0 0 0 0 0 0 0 0 0 0 0 0 0 0 0 0 127 0" result="hardAlpha"/>
<feOffset dy="4"/>
<feGaussianBlur stdDeviation="20"/>
<feComposite in2="hardAlpha" operator="out"/>
<feColorMatrix type="matrix" values="0 0 0 0 0.0367917 0 0 0 0 0.0348958 0 0 0 0 0.0484375 0 0 0 0.1 0"/>
<feBlend mode="normal" in2="BackgroundImageFix" result="effect1_dropShadow_103_3"/>
<feBlend mode="normal" in="SourceGraphic" in2="effect1_dropShadow_103_3" result="shape"/>
</filter>
<filter id="filter1_d_103_3" x="483.448" y="68.4058" width="260" height="260" filterUnits="userSpaceOnUse" color-interpolation-filters="sRGB">
<feFlood flood-opacity="0" result="BackgroundImageFix"/>
<feColorMatrix in="SourceAlpha" type="matrix" values="0 0 0 0 0 0 0 0 0 0 0 0 0 0 0 0 0 0 127 0" result="hardAlpha"/>
<feOffset dy="4"/>
<feGaussianBlur stdDeviation="20"/>
<feComposite in2="hardAlpha" operator="out"/>
<feColorMatrix type="matrix" values="0 0 0 0 0.0367917 0 0 0 0 0.0348958 0 0 0 0 0.0484375 0 0 0 0.1 0"/>
<feBlend mode="normal" in2="BackgroundImageFix" result="effect1_dropShadow_103_3"/>
<feBlend mode="normal" in="SourceGraphic" in2="effect1_dropShadow_103_3" result="shape"/>
</filter>
<filter id="filter2_d_103_3" x="231.724" y="290.703" width="260" height="260" filterUnits="userSpaceOnUse" color-interpolation-filters="sRGB">
<feFlood flood-opacity="0" result="BackgroundImageFix"/>
<feColorMatrix in="SourceAlpha" type="matrix" values="0 0 0 0 0 0 0 0 0 0 0 0 0 0 0 0 0 0 127 0" result="hardAlpha"/>
<feOffset dy="4"/>
<feGaussianBlur stdDeviation="20"/>
<feComposite in2="hardAlpha" operator="out"/>
<feColorMatrix type="matrix" values="0 0 0 0 0.0367917 0 0 0 0 0.0348958 0 0 0 0 0.0484375 0 0 0 0.1 0"/>
<feBlend mode="normal" in2="BackgroundImageFix" result="effect1_dropShadow_103_3"/>
<feBlend mode="normal" in="SourceGraphic" in2="effect1_dropShadow_103_3" result="shape"/>
</filter>
<filter id="filter3_d_103_3" x="359.62" y="568.703" width="260" height="260" filterUnits="userSpaceOnUse" color-interpolation-filters="sRGB">
<feFlood flood-opacity="0" result="BackgroundImageFix"/>
<feColorMatrix in="SourceAlpha" type="matrix" values="0 0 0 0 0 0 0 0 0 0 0 0 0 0 0 0 0 0 127 0" result="hardAlpha"/>
<feOffset dy="4"/>
<feGaussianBlur stdDeviation="20"/>
<feComposite in2="hardAlpha" operator="out"/>
<feColorMatrix type="matrix" values="0 0 0 0 0.0367917 0 0 0 0 0.0348958 0 0 0 0 0.0484375 0 0 0 0.1 0"/>
<feBlend mode="normal" in2="BackgroundImageFix" result="effect1_dropShadow_103_3"/>
<feBlend mode="normal" in="SourceGraphic" in2="effect1_dropShadow_103_3" result="shape"/>
</filter>
<filter id="filter4_d_103_3" x="623.067" y="342.703" width="260" height="260" filterUnits="userSpaceOnUse" color-interpolation-filters="sRGB">
<feFlood flood-opacity="0" result="BackgroundImageFix"/>
<feColorMatrix in="SourceAlpha" type="matrix" values="0 0 0 0 0 0 0 0 0 0 0 0 0 0 0 0 0 0 127 0" result="hardAlpha"/>
<feOffset dy="4"/>
<feGaussianBlur stdDeviation="20"/>
<feComposite in2="hardAlpha" operator="out"/>
<feColorMatrix type="matrix" values="0 0 0 0 0.0367917 0 0 0 0 0.0348958 0 0 0 0 0.0484375 0 0 0 0.1 0"/>
<feBlend mode="normal" in2="BackgroundImageFix" result="effect1_dropShadow_103_3"/>
<feBlend mode="normal" in="SourceGraphic" in2="effect1_dropShadow_103_3" result="shape"/>
</filter>
<filter id="filter5_d_103_3" x="192.343" y="-26" width="260" height="260" filterUnits="userSpaceOnUse" color-interpolation-filters="sRGB">
<feFlood flood-opacity="0" result="BackgroundImageFix"/>
<feColorMatrix in="SourceAlpha" type="matrix" values="0 0 0 0 0 0 0 0 0 0 0 0 0 0 0 0 0 0 127 0" result="hardAlpha"/>
<feOffset dy="4"/>
<feGaussianBlur stdDeviation="20"/>
<feComposite in2="hardAlpha" operator="out"/>
<feColorMatrix type="matrix" values="0 0 0 0 0.0367917 0 0 0 0 0.0348958 0 0 0 0 0.0484375 0 0 0 0.1 0"/>
<feBlend mode="normal" in2="BackgroundImageFix" result="effect1_dropShadow_103_3"/>
<feBlend mode="normal" in="SourceGraphic" in2="effect1_dropShadow_103_3" result="shape"/>
</filter>
<filter id="filter6_d_103_3" x="749.62" y="-22" width="260" height="260" filterUnits="userSpaceOnUse" color-interpolation-filters="sRGB">
<feFlood flood-opacity="0" result="BackgroundImageFix"/>
<feColorMatrix in="SourceAlpha" type="matrix" values="0 0 0 0 0 0 0 0 0 0 0 0 0 0 0 0 0 0 127 0" result="hardAlpha"/>
<feOffset dy="4"/>
<feGaussianBlur stdDeviation="20"/>
<feComposite in2="hardAlpha" operator="out"/>
<feColorMatrix type="matrix" values="0 0 0 0 0.0367917 0 0 0 0 0.0348958 0 0 0 0 0.0484375 0 0 0 0.1 0"/>
<feBlend mode="normal" in2="BackgroundImageFix" result="effect1_dropShadow_103_3"/>
<feBlend mode="normal" in="SourceGraphic" in2="effect1_dropShadow_103_3" result="shape"/>
</filter>
<filter id="filter7_d_103_3" x="866.172" y="569" width="260" height="260" filterUnits="userSpaceOnUse" color-interpolation-filters="sRGB">
<feFlood flood-opacity="0" result="BackgroundImageFix"/>
<feColorMatrix in="SourceAlpha" type="matrix" values="0 0 0 0 0 0 0 0 0 0 0 0 0 0 0 0 0 0 127 0" result="hardAlpha"/>
<feOffset dy="4"/>
<feGaussianBlur stdDeviation="20"/>
<feComposite in2="hardAlpha" operator="out"/>
<feColorMatrix type="matrix" values="0 0 0 0 0.0367917 0 0 0 0 0.0348958 0 0 0 0 0.0484375 0 0 0 0.1 0"/>
<feBlend mode="normal" in2="BackgroundImageFix" result="effect1_dropShadow_103_3"/>
<feBlend mode="normal" in="SourceGraphic" in2="effect1_dropShadow_103_3" result="shape"/>
</filter>
<filter id="filter8_d_103_3" x="-1.55212" y="503.406" width="260" height="260" filterUnits="userSpaceOnUse" color-interpolation-filters="sRGB">
<feFlood flood-opacity="0" result="BackgroundImageFix"/>
<feColorMatrix in="SourceAlpha" type="matrix" values="0 0 0 0 0 0 0 0 0 0 0 0 0 0 0 0 0 0 127 0" result="hardAlpha"/>
<feOffset dy="4"/>
<feGaussianBlur stdDeviation="20"/>
<feComposite in2="hardAlpha" operator="out"/>
<feColorMatrix type="matrix" values="0 0 0 0 0.0367917 0 0 0 0 0.0348958 0 0 0 0 0.0484375 0 0 0 0.1 0"/>
<feBlend mode="normal" in2="BackgroundImageFix" result="effect1_dropShadow_103_3"/>
<feBlend mode="normal" in="SourceGraphic" in2="effect1_dropShadow_103_3" result="shape"/>
</filter>
<filter id="filter9_d_103_3" x="883.172" y="208.406" width="260" height="260" filterUnits="userSpaceOnUse" color-interpolation-filters="sRGB">
<feFlood flood-opacity="0" result="BackgroundImageFix"/>
<feColorMatrix in="SourceAlpha" type="matrix" values="0 0 0 0 0 0 0 0 0 0 0 0 0 0 0 0 0 0 127 0" result="hardAlpha"/>
<feOffset dy="4"/>
<feGaussianBlur stdDeviation="20"/>
<feComposite in2="hardAlpha" operator="out"/>
<feColorMatrix type="matrix" values="0 0 0 0 0.0367917 0 0 0 0 0.0348958 0 0 0 0 0.0484375 0 0 0 0.1 0"/>
<feBlend mode="normal" in2="BackgroundImageFix" result="effect1_dropShadow_103_3"/>
<feBlend mode="normal" in="SourceGraphic" in2="effect1_dropShadow_103_3" result="shape"/>
</filter>
<clipPath id="clip0_103_3">
<rect width="1199" height="800" fill="white"/>
</clipPath>
</defs>
</svg>
